SplineFontDB: 3.0
FontName: Norasi-Italic
FullName: Norasi Italic
FamilyName: Norasi
Weight: Book
Copyright: Copyright (C) 1999, The National Font Project (v.beta). Yannis Haralambous, Virach Sornlertlamvanich and Anutara Tantraporn. All rights reserved.\n\nModified under GNU General Public License, with creators' permission, by Thai Linux Working Group (TLWG).
Version: 004.009: 2008-05-16
ItalicAngle: -15.5
UnderlinePosition: -100
UnderlineWidth: 50
Ascent: 800
Descent: 200
LayerCount: 2
Layer: 0 0 "Back" 
Layer: 1 0 "Fore" 
NeedsXUIDChange: 1
FSType: 0
OS2Version: 0
OS2_WeightWidthSlopeOnly: 0
OS2_UseTypoMetrics: 0
CreationTime: 1153665708
ModificationTime: 1210925990
PfmFamily: 17
TTFWeight: 400
TTFWidth: 5
LineGap: 0
VLineGap: 0
Panose: 2 7 5 6 6 0 0 2 0 4
OS2TypoAscent: 0
OS2TypoAOffset: 1
OS2TypoDescent: 0
OS2TypoDOffset: 1
OS2TypoLinegap: 0
OS2WinAscent: 1216
OS2WinAOffset: 0
OS2WinDescent: 488
OS2WinDOffset: 0
HheadAscent: 1216
HheadAOffset: 0
HheadDescent: -488
HheadDOffset: 0
OS2Vendor: 'PfEd'
Lookup: 4 0 1 "'liga' Standard Ligatures lookup 2"  {"'liga' Standard Ligatures lookup 2 subtable"  } ['liga' ('DFLT' <'dflt' > ) ]
Lookup: 4 0 1 "'liga' Standard Ligatures in Latin lookup 3"  {"'liga' Standard Ligatures in Latin lookup 3 subtable"  } ['liga' ('latn' <'dflt' > ) ]
Lookup: 4 0 0 "'frac' Diagonal Fractions lookup 4"  {"'frac' Diagonal Fractions lookup 4 subtable"  } ['frac' ('DFLT' <'dflt' > ) ]
Lookup: 6 0 0 "'ccmp' Thai General Composition"  {"'ccmp' Thai Below Vowel Tone Reordering"  "'ccmp' Thai General Composition"  } ['ccmp' ('DFLT' <'dflt' > 'thai' <'KUY ' 'PAL ' 'THA ' 'dflt' > ) ]
Lookup: 6 0 0 "'ccmp' Thai Conditional Descender Removal"  {"'ccmp' Thai Conditional Descender Removal"  } ['ccmp' ('DFLT' <'dflt' > 'thai' <'KUY ' 'PAL ' 'THA ' 'dflt' > ) ]
Lookup: 5 0 0 "Required Thai Descender Removal"  {"Required Thai Descender Removal"  } [' RQD' ('thai' <'PAL ' > ) ]

StartChar: .notdef
Encoding: 0 -1 0
Width: 366
Flags: W
HStem: 0 22<22 344> 542 22<22 344>
VStem: 0 22<22 542> 344 22<22 542>
LayerCount: 2
Fore
SplineSet
22 542 m 1
 22 22 l 1
 344 22 l 1
 344 542 l 1
 22 542 l 1
366 0 m 1
 0 0 l 1
 0 564 l 1
 366 564 l 1
 366 0 l 1
EndSplineSet
EndChar

StartChar: exclam
Encoding: 33 33 1
Width: 332
Flags: W
HStem: -12 107<50.4748 133.228> 646 20G<244 275.5>
VStem: 40 105<-0.303474 83.2284> 120 18<182 326.575>
LayerCount: 2
Back
SplineSet
241.749 594.36 m 1
 240.318 557.882 l 1
 194.543 175.947 l 1
 181.669 175.947 l 1
 176.662 228.16 172.372 275.365 167.365 315.418 c 0
 163.073 356.187 159.498 392.663 155.921 424.85 c 0
 152.345 457.035 149.484 486.359 145.908 513.538 c 0
 142.332 540.002 139.471 566.466 135.895 591.499 c 1
 135.895 647.288 153.06 675.182 187.392 675.182 c 0
 223.868 675.182 241.749 650.148 241.749 600.797 c 2
 241.749 594.36 l 1
244.61 40.7686 m 0
 244.61 27.1787 238.889 16.4502 227.444 7.15234 c 0
 216.716 -1.43066 203.842 -5.72168 188.821 -5.72168 c 0
 153.774 -5.72168 135.895 10.0137 135.895 40.7686 c 0
 135.895 72.9541 153.774 91.5498 188.821 95.126 c 1
 225.3 95.126 243.896 77.2451 244.61 40.7686 c 0
EndSplineSet
Fore
SplineSet
138 177 m 1xd0
 120 182 l 1
 161 371 168 407 192 551 c 0
 207 634 226 666 262 666 c 0
 289 666 302 649 302 617 c 0
 302 545 258 518 138 177 c 1xd0
91 95 m 0
 120 95 145 70 145 41 c 0
 145 13 120 -12 89 -12 c 0
 62 -12 40 12 40 42 c 0xe0
 40 70 64 95 91 95 c 0
EndSplineSet
EndChar

StartChar: quotedbl
Encoding: 34 34 2
Width: 418
Flags: W
HStem: 420 246
VStem: 144 288<420 637 420 420>
LayerCount: 2
Back
SplineSet
357.618 632.982 m 0
 357.618 622.254 352.611 589.354 342.598 534.995 c 0
 337.591 506.386 334.014 482.783 331.153 464.902 c 0
 328.292 447.021 325.432 433.432 324.001 424.85 c 1
 303.259 424.85 l 1
 295.392 467.764 288.955 502.094 284.663 527.844 c 0
 280.371 553.592 276.796 574.333 274.65 588.637 c 0
 272.504 603.657 271.074 613.671 270.358 619.394 c 0
 269.644 625.115 269.644 630.122 269.644 632.982 c 0
 269.644 660.877 283.948 675.182 313.272 675.182 c 0
 341.882 675.182 356.187 660.877 357.618 632.982 c 0
184.531 632.982 m 0
 184.531 622.254 179.524 589.354 170.226 534.995 c 0
 165.219 506.386 160.928 482.783 158.066 464.902 c 0
 155.206 447.021 153.06 433.432 150.914 424.85 c 1
 130.173 424.85 l 1
 122.305 467.764 116.583 502.094 112.292 527.844 c 0
 108 553.592 104.424 574.333 101.563 588.637 c 0
 99.418 603.657 97.9873 613.671 97.2715 619.394 c 0
 97.2715 625.115 96.5566 630.122 96.5566 632.982 c 0
 96.5566 660.877 111.576 675.182 140.901 675.182 c 0
 168.795 675.182 183.814 660.877 184.531 632.982 c 0
EndSplineSet
Fore
SplineSet
344 420 m 1
 324 420 l 1
 331 523 340 601 346 625 c 0
 352 647 376 666 400 666 c 0
 417 666 432 653 432 637 c 0
 432 621 401 545 344 420 c 1
166 420 m 1
 144 420 l 1
 152 523 161 601 167 625 c 0
 171 647 196 666 223 666 c 0
 239 666 253 653 253 637 c 0
 253 621 223 546 166 420 c 1
EndSplineSet
EndChar

StartChar: numbersign
Encoding: 35 35 3
Width: 499
Flags: W
HStem: 0 21G<18 86.4528 208 277.453> 212 55<13 97 179 289 371 454> 410 54<86 171 253 363 444 529>
LayerCount: 2
Back
SplineSet
514.253 405.537 m 1
 409.829 405.537 l 1
 389.803 272.504 l 1
 489.22 272.504 l 1
 489.22 216.716 l 1
 379.074 216.716 l 1
 349.75 0 l 1
 291.816 0 l 1
 322.571 216.716 l 1
 187.392 216.716 l 1
 155.206 0 l 1
 96.5566 0 l 1
 128.742 216.716 l 1
 22.1719 216.716 l 1
 22.1719 272.504 l 1
 139.471 272.504 l 1
 159.498 405.537 l 1
 50.0664 405.537 l 1
 50.0664 461.325 l 1
 168.795 461.325 l 1
 199.55 662.307 l 1
 256.055 662.307 l 1
 226.729 461.325 l 1
 360.479 461.325 l 1
 389.803 662.307 l 1
 447.021 662.307 l 1
 417.696 461.325 l 1
 514.253 461.325 l 1
 514.253 405.537 l 1
351.895 405.537 m 1
 218.146 405.537 l 1
 195.975 272.504 l 1
 331.153 272.504 l 1
 351.895 405.537 l 1
EndSplineSet
Fore
SplineSet
464 267 m 1
 454 212 l 1
 349 212 l 1
 270 0 l 1
 208 0 l 1
 289 212 l 1
 158 212 l 1
 79 0 l 1
 18 0 l 1
 97 212 l 1
 1 212 l 1
 13 267 l 1
 119 267 l 1
 171 410 l 1
 76 410 l 1
 86 464 l 1
 192 464 l 1
 272 677 l 1
 333 677 l 1
 253 464 l 1
 382 464 l 1
 463 677 l 1
 524 677 l 1
 444 464 l 1
 541 464 l 1
 529 410 l 1
 423 410 l 1
 371 267 l 1
 464 267 l 1
363 410 m 1
 233 410 l 1
 179 267 l 1
 309 267 l 1
 363 410 l 1
EndSplineSet
EndChar

StartChar: dollar
Encoding: 36 36 4
Width: 499
Flags: W
HStem: 1 31<134.726 182 221 307.973> 642 26<285.674 335>
VStem: 123 78<473.586 587.308> 379 77<102.042 237.659>
LayerCount: 2
Back
SplineSet
486.359 178.809 m 0
 486.359 79.3906 420.558 19.3115 288.239 0 c 1
 288.239 -86.543 l 1
 253.193 -86.543 l 1
 253.193 0 l 1
 183.814 0 120.875 17.8809 62.9404 52.9277 c 1
 62.9404 185.961 l 1
 77.9609 185.961 l 1
 100.848 81.5371 159.498 29.3242 253.193 29.3242 c 1
 253.193 317.564 l 1
 223.868 334.73 198.835 349.75 178.094 364.054 c 0
 156.637 378.359 140.186 391.233 127.312 402.677 c 0
 89.4043 439.869 70.0928 480.638 70.0928 524.267 c 0
 70.0928 572.188 89.4043 610.81 127.312 640.135 c 0
 160.928 667.313 202.412 680.903 253.193 680.903 c 1
 253.193 745.274 l 1
 288.239 745.274 l 1
 288.239 680.903 l 1
 371.922 666.599 l 2
 403.393 660.877 429.855 647.288 452.743 627.261 c 1
 452.743 512.823 l 1
 437.724 512.823 l 1
 422.703 597.936 372.638 644.426 288.239 653.01 c 1
 288.239 401.247 l 1
 384.081 342.598 l 1
 436.294 301.829 l 1
 469.909 268.212 486.359 227.444 486.359 178.809 c 0
251.763 417.696 m 1
 251.763 653.01 l 1
 181.669 641.564 146.624 605.803 146.624 545.008 c 0
 146.624 521.406 155.921 498.519 175.947 476.346 c 1
 251.763 417.696 l 1
405.537 155.206 m 0
 405.537 187.392 394.094 216.001 370.492 240.318 c 0
 359.048 253.193 331.868 273.219 288.239 300.398 c 1
 288.239 29.3242 l 1
 366.915 42.9141 405.537 85.1133 405.537 155.206 c 0
EndSplineSet
Fore
SplineSet
497 612 m 1
 469 498 l 1
 454 499 l 1
 453 574 431 609 369 633 c 1
 313 395 l 1
 431 305 456 270 456 190 c 0
 456 120 420 60 360 29 c 0
 322 10 289 3 215 0 c 1
 193 -89 l 1
 160 -89 l 1
 182 1 l 1
 119 15 67 37 31 67 c 1
 59 190 l 1
 75 193 l 1
 85 88 111 51 189 32 c 1
 258 330 l 1
 207 366 186 382 166 410 c 0
 135 445 123 476 123 513 c 0
 123 565 151 612 198 639 c 0
 239 664 267 668 341 668 c 1
 357 731 l 1
 393 731 l 1
 376 664 l 1
 423 652 464 636 497 612 c 1
283 420 m 1
 335 642 l 1
 296 642 287 640 268 633 c 0
 226 618 201 583 201 538 c 0
 201 494 220 464 283 420 c 1
289 306 m 1
 221 25 l 1
 327 34 379 79 379 163 c 0
 379 215 363 245 294 300 c 1
 289 306 l 1
EndSplineSet
EndChar

StartChar: percent
Encoding: 37 37 5
Width: 832
Flags: W
HStem: 0 29<556.721 665.654> 289 35<167.169 275.158> 338 33<642.806 742.256> 583 25<414.493 550.674> 631 31<254.962 338.645>
VStem: 79 76<342.898 491.803> 376 27<446.923 578.15 572.187 584.113> 469 74<49.2396 196.416> 765 25<161.685 315.376>
LayerCount: 2
Back
SplineSet
653.01 693.062 m 1
 257.484 -10.0137 l 1
 209.563 -10.0137 l 1
 567.181 623.684 l 1
 530.704 606.518 494.227 597.936 457.035 597.936 c 0
 425.563 597.936 403.393 600.797 389.803 607.949 c 1
 396.955 562.174 l 1
 396.955 518.545 386.941 474.916 366.2 432.002 c 0
 361.193 420.558 352.611 406.254 339.737 389.803 c 0
 297.537 326.863 246.756 296.106 185.961 296.106 c 0
 148.768 296.106 119.444 309.697 97.9873 336.875 c 0
 76.5303 364.054 65.8018 396.955 65.8018 434.862 c 0
 65.8018 494.942 87.9736 550.015 131.604 600.797 c 0
 177.379 652.293 228.875 678.043 285.378 678.043 c 0
 306.836 678.043 333.299 668.744 363.339 650.148 c 1
 397.67 632.982 426.995 623.684 452.743 623.684 c 0
 507.101 623.684 560.743 647.288 612.241 693.062 c 1
 653.01 693.062 l 1
793.91 268.212 m 0
 793.91 204.557 776.029 145.908 739.553 92.2656 c 0
 700.931 30.7549 650.148 0 588.638 0 c 0
 547.869 0 516.399 12.874 494.942 39.3379 c 0
 473.485 65.8018 462.757 99.418 462.757 140.901 c 0
 462.757 198.12 485.645 252.478 529.988 303.259 c 0
 576.479 354.757 627.261 380.505 682.333 380.505 c 0
 756.719 380.505 793.91 343.312 793.91 268.212 c 0
370.492 567.181 m 0
 370.492 578.625 367.631 594.36 361.908 615.102 c 1
 343.312 620.108 325.432 627.261 308.982 637.274 c 2
 296.106 645.856 l 1
 291.816 647.288 l 2
 256.055 647.288 221.723 615.816 187.392 552.161 c 0
 158.066 495.657 143.762 447.021 143.762 406.969 c 0
 143.762 356.187 164.504 331.153 206.702 331.153 c 0
 252.478 331.153 292.531 359.762 326.863 417.696 c 0
 356.187 467.049 370.492 517.114 370.492 567.181 c 0
767.447 261.062 m 0
 767.447 283.948 761.009 304.69 748.85 321.856 c 0
 735.976 338.306 718.095 346.888 695.924 346.888 c 0
 653.01 346.888 614.387 313.272 581.486 244.61 c 0
 554.307 190.968 540.718 145.192 540.718 108.716 c 0
 540.718 56.5039 562.174 30.7549 606.518 30.7549 c 0
 650.148 30.7549 688.771 59.3643 722.387 115.868 c 0
 752.427 163.788 767.447 211.709 767.447 261.062 c 0
EndSplineSet
Fore
SplineSet
790 264 m 0
 790 158 718 0 587 0 c 0
 513 0 469 50 469 136 c 0
 469 252 577 371 683 371 c 0
 750 371 790 330 790 264 c 0
694 338 m 0
 602 338 543 161 543 101 c 0
 543 54 564 29 605 29 c 0
 634 29 664 44 686 67 c 0
 732 119 765 196 765 259 c 0
 765 303 732 338 694 338 c 0
403 541 m 0
 403 460 331 289 198 289 c 0
 130 289 79 346 79 419 c 0
 79 542 187 662 297 662 c 0
 324 662 352 653 365 642 c 2
 382 625 l 2
 395 614 420 608 453 608 c 0
 519 608 562 627 612 677 c 1
 653 677 l 1
 267 -13 l 1
 220 -13 l 1
 570 612 l 1
 527 590 504 583 458 583 c 0
 431 583 416 584 395 593 c 1
 397 590 397 590 397 587 c 2
 401 570 403 554 403 541 c 0
368 601 m 1
 314 611 320 631 300 631 c 0
 237 631 155 494 155 387 c 0
 155 347 179 324 214 324 c 0
 296 324 376 437 376 549 c 0
 376 565 375 579 368 601 c 1
EndSplineSet
EndChar

StartChar: ampersand
Encoding: 38 38 6
Width: 777
Flags: W
HStem: -18 52<231.648 356.469 580.204 671.495> 331 19<530 578.865 656.145 715> 634 32<429.271 510.323>
VStem: 76 94<92.1516 219.768> 331 79<428.539 475.83 452.185 570.395> 517 69<508.06 629.133>
LayerCount: 2
Back
SplineSet
768.876 99.418 m 1
 766.732 90.835 763.155 81.5371 756.719 71.5234 c 0
 750.281 62.2256 742.413 51.4971 733.831 40.7686 c 0
 701.646 7.15234 662.307 -10.0137 616.531 -10.0137 c 0
 565.035 -10.0137 508.531 19.3115 447.021 77.9609 c 1
 402.677 40.7686 l 1
 367.631 19.3115 l 1
 322.571 -0.714844 275.365 -10.0137 225.3 -10.0137 c 0
 173.802 -10.0137 133.033 2.14551 103.709 27.8945 c 0
 74.3848 52.9277 60.0801 91.5498 60.0801 143.762 c 0
 60.0801 222.438 112.292 293.246 216.716 354.757 c 2
 256.055 376.213 l 1
 230.306 458.465 l 1
 219.576 518.545 l 1
 219.576 540.002 223.868 560.028 231.735 579.34 c 0
 239.604 598.65 250.331 615.102 263.922 629.407 c 0
 277.511 642.996 293.962 654.439 312.558 663.022 c 0
 331.868 670.891 351.895 675.182 373.353 675.182 c 0
 410.544 675.182 442.729 664.452 469.193 642.996 c 0
 496.372 621.538 509.963 592.214 509.963 555.021 c 0
 509.963 512.107 492.082 474.916 457.035 444.161 c 0
 439.154 429.141 405.537 409.114 354.757 384.081 c 1
 374.067 345.458 394.809 309.697 416.981 275.365 c 0
 438.438 241.034 462.042 208.849 487.79 178.809 c 1
 547.154 256.055 577.194 316.133 577.194 359.048 c 0
 577.194 389.088 555.738 404.107 512.823 404.107 c 1
 512.823 426.28 l 1
 730.969 426.28 l 1
 730.969 404.107 l 1
 708.798 401.247 691.632 396.955 679.473 391.233 c 0
 665.884 385.512 651.578 369.775 635.844 345.458 c 1
 610.81 300.398 l 2
 595.075 273.936 579.34 248.187 562.889 222.438 c 0
 547.154 197.405 529.273 173.087 509.963 149.484 c 1
 520.691 131.604 533.565 115.868 550.015 102.278 c 0
 566.466 88.6895 585.776 77.9609 607.949 68.6621 c 0
 620.823 62.2256 637.274 58.6494 658.016 58.6494 c 0
 682.333 58.6494 702.359 63.6562 718.095 72.9541 c 0
 722.387 75.0996 728.108 79.3906 733.115 85.8281 c 0
 738.838 92.2656 745.274 100.848 753.142 111.576 c 1
 768.876 99.418 l 1
457.035 559.313 m 0
 457.035 582.916 449.883 602.942 434.862 619.394 c 0
 420.558 636.559 401.247 644.426 377.643 644.426 c 0
 326.146 644.426 300.398 615.102 300.398 556.453 c 0
 300.398 515.685 313.272 468.479 339.737 416.267 c 1
 417.696 456.319 457.035 504.24 457.035 559.313 c 0
423.418 103.709 m 1
 399.815 132.318 375.498 165.934 349.034 205.987 c 0
 323.286 245.324 296.822 291.1 269.644 342.598 c 1
 223.868 311.843 l 1
 194.543 283.948 l 1
 166.65 251.048 152.345 216.001 152.345 180.239 c 0
 152.345 161.644 155.206 143.762 161.644 126.597 c 0
 168.08 109.431 177.379 94.4111 188.821 81.5371 c 0
 200.98 67.9473 214.569 57.9336 230.306 50.0664 c 0
 245.324 42.1992 262.49 37.9072 281.088 37.9072 c 0
 323.286 37.9072 370.492 60.0801 423.418 103.709 c 1
EndSplineSet
Fore
SplineSet
586 573 m 0
 586 503 518 449 415 397 c 1
 438 294 469 209 501 160 c 1
 564 236 580 265 580 299 c 0
 580 321 568 328 530 331 c 1
 530 350 l 1
 715 350 l 1
 715 333 l 1
 643 326 658 314 520 125 c 1
 560 59 595 31 642 31 c 0
 665 31 683 40 712 62 c 1
 724 50 l 1
 680 1 645 -18 595 -18 c 0
 541 -18 502 4 457 62 c 1
 354 -4 321 -18 258 -18 c 0
 146 -18 76 42 76 141 c 0
 76 275 232 334 331 378 c 1
 328 416 324 435 324 460 c 0
 324 582 390 666 483 666 c 0
 542 666 586 625 586 573 c 0
333 346 m 1
 233 308 170 236 170 164 c 0
 170 91 226 34 297 34 c 0
 349 34 391 51 438 89 c 1
 404 133 369 218 333 346 c 1
410 428 m 1
 466 464 517 493 517 577 c 0
 517 617 504 634 472 634 c 0
 428 634 404 592 404 504 c 0
 404 478 406 458 410 428 c 1
EndSplineSet
EndChar

StartChar: quotesingle
Encoding: 39 39 7
Width: 213
Flags: W
HStem: 420 246
VStem: 132 110<420 636 420 420> 155 87<574.553 654.847>
LayerCount: 2
Back
SplineSet
191.683 594.36 m 0
 191.683 569.327 179.524 539.287 153.774 505.671 c 0
 130.173 477.062 105.14 456.319 77.9609 444.161 c 1
 68.6621 462.757 l 1
 124.451 499.949 152.345 536.426 152.345 572.902 c 0
 152.345 581.486 147.338 585.776 138.04 585.776 c 2
 125.881 584.347 l 1
 113.007 582.916 l 2
 70.8086 582.916 50.0664 600.082 50.0664 634.412 c 0
 50.0664 668.744 70.0928 688.056 110.146 693.062 c 1
 127.312 693.062 143.762 687.34 159.498 675.182 c 0
 180.954 656.585 191.683 630.122 191.683 594.36 c 0
EndSplineSet
Fore
SplineSet
152 420 m 1xc0
 132 420 l 1xc0
 138 476 146 593 155 625 c 0xa0
 163 650 187 666 208 666 c 0
 230 666 242 652 242 636 c 0
 242 618 193 510 152 420 c 1xc0
EndSplineSet
EndChar

StartChar: parenleft
Encoding: 40 40 8
Width: 332
Flags: W
VStem: 42 69<3.43808 282.121>
LayerCount: 2
Back
SplineSet
344.027 -162.358 m 1
 331.153 -178.809 l 1
 251.763 -136.609 185.246 -63.6562 130.173 39.3379 c 0
 125.166 50.0664 120.875 60.0801 116.583 69.3779 c 0
 112.292 78.6758 108.716 88.6895 105.14 97.9873 c 0
 90.1191 145.192 82.252 201.695 82.252 268.212 c 0
 82.252 447.736 165.934 589.354 334.014 693.062 c 1
 344.027 676.611 l 1
 290.385 634.412 251.763 592.929 228.16 552.161 c 0
 185.246 473.485 165.934 380.505 170.226 275.365 c 2
 174.518 153.774 l 1
 175.232 140.186 176.662 125.166 179.524 110.146 c 0
 181.669 94.4111 185.246 77.2451 190.253 58.6494 c 0
 216.716 -39.3379 268.212 -113.007 344.027 -162.358 c 1
EndSplineSet
Fore
SplineSet
141 -182 m 1
 114 -133 42 -17 42 180 c 0
 42 256 53 318 79 381 c 0
 122 485 171 551 302 669 c 1
 315 653 l 1
 250 586 218 539 186 460 c 0
 141 349 111 205 111 85 c 0
 111 -12 123 -75 160 -174 c 1
 141 -182 l 1
EndSplineSet
EndChar

StartChar: parenright
Encoding: 41 41 9
Width: 332
Flags: W
VStem: 220 69<202.833 480.478>
LayerCount: 2
Back
SplineSet
324.001 243.181 m 0
 324.001 154.491 301.829 73.6689 256.77 0.714844 c 0
 212.426 -72.2383 150.914 -131.604 71.5234 -178.809 c 1
 61.5098 -162.358 l 1
 85.1133 -143.762 105.14 -125.881 123.021 -108 c 0
 140.901 -89.4043 155.206 -70.8086 167.365 -52.2119 c 0
 180.239 -32.9004 190.253 -12.1592 199.55 9.29785 c 0
 208.134 31.4707 215.286 55.7881 221.008 82.252 c 0
 231.021 122.305 236.027 173.087 236.027 236.027 c 0
 236.027 327.577 228.875 399.815 215.286 452.743 c 0
 188.106 552.161 136.609 627.261 61.5098 676.611 c 1
 74.3848 693.062 l 1
 151.63 650.863 213.14 587.208 257.484 500.664 c 0
 301.829 420.558 324.001 334.73 324.001 243.181 c 0
EndSplineSet
Fore
SplineSet
190 669 m 1
 211 630 289 509 289 305 c 0
 289 230 277 167 249 101 c 0
 204 -7 152 -72 29 -180 c 1
 16 -166 l 1
 78 -101 107 -59 136 6 c 0
 186 113 220 275 220 401 c 0
 220 502 205 583 171 664 c 1
 190 669 l 1
EndSplineSet
EndChar

StartChar: asterisk
Encoding: 42 42 10
Width: 499
Flags: MW
HStem: 499 83<135.506 200.63>
VStem: 272 75<258.767 312.161 604.849 661.953> 300 19<388.233 444.257 476 531.173>
LayerCount: 2
Back
SplineSet
474.916 395.525 m 0
 474.916 371.207 462.042 359.048 437.724 359.048 c 0
 425.563 359.048 405.537 374.067 377.643 404.107 c 0
 362.624 420.558 348.319 434.147 336.16 444.161 c 0
 324.001 453.458 313.987 460.61 306.12 464.188 c 2
 298.969 467.049 l 1
 298.969 459.896 l 2
 298.969 421.988 303.976 388.373 313.272 360.479 c 2
 328.292 314.703 l 1
 328.292 289.67 314.703 274.65 286.81 271.074 c 1
 263.922 271.074 251.763 284.663 251.763 311.843 c 1
 265.352 367.631 l 1
 274.65 405.537 279.656 429.855 279.656 440.584 c 2
 279.656 459.896 l 1
 278.226 467.049 l 1
 230.306 433.432 l 1
 200.98 404.107 l 1
 174.518 373.353 l 1
 162.358 364.769 150.199 360.479 138.04 360.479 c 0
 114.438 360.479 102.278 371.207 102.278 392.663 c 0
 102.278 414.836 120.159 430.57 155.206 439.154 c 0
 210.279 454.175 248.901 468.479 272.504 483.498 c 1
 261.062 490.65 l 2
 256.77 494.942 225.3 504.956 165.219 521.406 c 0
 123.735 534.28 102.278 550.731 102.278 571.473 c 0
 102.278 579.34 105.14 587.208 111.576 596.506 c 0
 117.299 602.228 125.166 605.803 135.895 606.518 c 0
 151.63 606.518 169.511 595.075 188.821 572.902 c 0
 217.432 538.572 247.471 513.538 279.656 497.804 c 1
 279.656 511.393 l 2
 279.656 529.988 275.365 554.307 266.782 584.347 c 0
 257.484 616.531 253.193 639.419 253.193 653.01 c 0
 253.193 679.473 266.067 693.062 291.816 693.062 c 0
 314.703 693.062 326.863 679.473 326.863 653.01 c 1
 313.272 597.936 l 1
 303.976 559.313 298.969 534.995 298.969 522.837 c 2
 298.969 496.372 l 1
 306.12 500.664 l 2
 328.292 514.968 354.041 537.141 382.649 568.612 c 0
 405.537 594.36 424.135 607.949 436.294 607.949 c 0
 462.042 607.949 474.916 595.79 474.916 571.473 c 0
 474.916 553.592 467.764 540.718 454.175 532.851 c 1
 396.955 519.975 l 2
 360.479 512.107 331.153 499.233 307.551 482.068 c 1
 314.703 476.346 l 1
 359.048 455.604 l 1
 426.28 439.154 l 2
 458.465 432.717 474.916 417.696 474.916 395.525 c 0
EndSplineSet
Fore
SplineSet
319 499 m 2
 319 473 l 1
 362 502 368 505 417 561 c 0
 434 579 441 582 454 582 c 0
 476 582 492 567 492 545 c 0
 492 519 478 508 435 501 c 0
 388 494 371 486 328 458 c 1
 365 439 l 2
 379 432 403 425 431 420 c 0
 475 413 492 401 492 378 c 0
 492 356 475 338 454 338 c 0
 439 338 428 347 409 371 c 0
 382 403 359 423 327 442 c 2
 319 445 l 1
 319 393 324 371 338 330 c 0
 346 311 347 303 347 294 c 0
 347 272 331 255 308 255 c 0
 289 255 272 271 272 293 c 0
 272 302 275 313 283 334 c 0
 297 371 302 395 302 417 c 0
 302 422 302 429 300 445 c 1
 297 442 294 441 286 437 c 0
 253 417 240 404 212 371 c 0
 196 352 180 340 163 340 c 0
 144 340 127 357 127 376 c 0
 127 400 145 413 187 420 c 0
 233 428 250 435 294 461 c 1
 283 469 l 2
 258 483 226 494 189 499 c 0
 144 508 127 519 127 546 c 0
 127 565 144 582 163 582 c 0
 179 582 190 574 209 551 c 0
 242 516 262 498 300 476 c 1
 300 519 297 542 284 587 c 0
 277 608 275 617 275 625 c 0
 275 650 289 666 311 666 c 0
 331 666 346 650 346 627 c 0
 346 617 343 603 335 577 c 0
 324 543 319 521 319 499 c 2
EndSplineSet
EndChar

StartChar: plus
Encoding: 43 43 11
Width: 673
Flags: W
HStem: 0 21G<305 371> 220 66<86 305 371 590>
VStem: 305 66<0 220 286 505>
LayerCount: 2
Back
SplineSet
580.055 234.597 m 1
 346.888 234.597 l 1
 346.888 0 l 1
 296.106 0 l 1
 296.106 234.597 l 1
 62.9404 234.597 l 1
 62.9404 285.378 l 1
 296.106 285.378 l 1
 296.106 518.545 l 1
 346.888 518.545 l 1
 346.888 285.378 l 1
 580.055 285.378 l 1
 580.055 234.597 l 1
EndSplineSet
Fore
SplineSet
305 286 m 1
 305 505 l 1
 371 505 l 1
 371 286 l 1
 590 286 l 1
 590 220 l 1
 371 220 l 1
 371 0 l 1
 305 0 l 1
 305 220 l 1
 86 220 l 1
 86 286 l 1
 305 286 l 1
EndSplineSet
EndChar

StartChar: comma
Encoding: 44 44 12
Width: 249
Flags: MW
VStem: 70 65<-36.1728 41.0625>
LayerCount: 2
Back
SplineSet
202.412 5.72168 m 0
 202.412 -16.4502 189.538 -45.0596 163.788 -79.3906 c 0
 139.471 -111.576 114.438 -132.318 87.9736 -142.332 c 1
 79.3906 -121.59 l 1
 134.464 -86.543 162.358 -50.0664 162.358 -12.874 c 0
 162.358 -4.29102 158.066 0 148.053 0 c 2
 135.895 -1.43066 l 1
 124.451 -2.86133 l 2
 81.5371 -2.86133 60.0801 12.874 60.0801 45.0596 c 0
 60.0801 84.3975 80.1064 103.709 120.159 103.709 c 0
 146.624 103.709 166.65 94.4111 180.954 75.0996 c 0
 195.26 56.5039 202.412 32.9004 202.412 5.72168 c 0
EndSplineSet
Fore
SplineSet
70 -23 m 0
 70 10 26 12 26 54 c 0
 26 81 48 101 78 101 c 0
 110 101 135 70 135 29 c 0
 135 -26 89 -82 4 -129 c 1
 -4 -111 l 1
 48 -78 70 -50 70 -23 c 0
EndSplineSet
EndChar

StartChar: hyphen
Encoding: 45 45 13
Width: 332
Flags: W
HStem: 192 63<63 270 48 283 63 63>
LayerCount: 2
Back
SplineSet
356.187 188.821 m 1
 37.9072 188.821 l 1
 37.9072 237.457 l 1
 356.187 237.457 l 1
 356.187 188.821 l 1
EndSplineSet
Fore
SplineSet
283 255 m 1
 270 192 l 1
 48 192 l 1
 63 255 l 1
 283 255 l 1
EndSplineSet
EndChar

StartChar: period
Encoding: 46 46 14
Width: 249
Flags: W
HStem: -12 112<38.5391 125.386>
VStem: 26 112<1.24292 87.0681>
LayerCount: 2
Back
SplineSet
203.842 43.6289 m 0
 203.842 29.3242 197.405 17.166 185.246 6.4375 c 0
 173.087 -3.57617 159.498 -8.58301 145.192 -8.58301 c 0
 130.173 -8.58301 117.299 -3.57617 105.854 6.4375 c 0
 95.126 17.166 89.4043 29.3242 89.4043 43.6289 c 0
 89.4043 59.3643 94.4111 72.9541 105.14 85.1133 c 0
 115.868 96.5566 129.457 102.278 145.192 102.278 c 0
 159.498 102.278 173.087 96.5566 185.246 84.3975 c 0
 197.405 72.2383 203.842 58.6494 203.842 43.6289 c 0
EndSplineSet
Fore
SplineSet
82 100 m 0
 111 100 138 75 138 42 c 0
 138 13 111 -12 81 -12 c 0
 53 -12 26 15 26 42 c 0
 26 75 53 100 82 100 c 0
EndSplineSet
EndChar

StartChar: slash
Encoding: 47 47 15
Width: 276
Flags: MW
HStem: -18 21G<-64 18.1111> 646 20G<301.977 387>
LayerCount: 2
Back
SplineSet
341.167 693.062 m 1
 52.9277 -177.379 l 1
 0 -177.379 l 1
 286.81 693.062 l 1
 341.167 693.062 l 1
EndSplineSet
Fore
SplineSet
313 666 m 1
 387 666 l 1
 7 -18 l 1
 -64 -18 l 1
 313 666 l 1
EndSplineSet
EndChar

StartChar: zero
Encoding: 48 48 16
Width: 499
Flags: W
HStem: -7 28<145.507 255.209> 647 30<274.387 385.386>
VStem: 32 79<94.9494 310.843> 417 80<334.603 567.007>
LayerCount: 2
Back
SplineSet
500.664 331.153 m 0
 500.664 246.041 486.359 173.087 457.035 113.007 c 0
 417.696 30.04 357.618 -11.4434 275.365 -11.4434 c 0
 233.167 -11.4434 198.12 -0.714844 169.511 20.7422 c 0
 140.186 42.1992 117.299 69.3779 99.418 102.994 c 0
 82.252 136.609 69.3779 173.802 61.5098 213.854 c 0
 53.6426 253.908 50.0664 293.246 50.0664 331.153 c 0
 50.0664 368.346 53.6426 406.969 61.5098 447.736 c 0
 69.3779 487.79 82.252 524.981 99.418 558.599 c 0
 117.299 592.214 140.186 620.108 169.511 642.281 c 0
 198.12 664.452 233.167 675.182 275.365 675.182 c 0
 357.618 675.182 417.696 632.982 457.035 547.869 c 0
 486.359 486.359 500.664 414.121 500.664 331.153 c 0
405.537 331.153 m 0
 405.537 543.578 362.624 650.148 275.365 650.148 c 0
 188.821 650.148 145.192 543.578 145.192 331.153 c 0
 145.192 118.014 188.821 11.4434 275.365 11.4434 c 0
 362.624 11.4434 405.537 118.014 405.537 331.153 c 0
EndSplineSet
Fore
SplineSet
341 677 m 0
 438 677 497 582 497 423 c 0
 497 278 420 113 319 40 c 0
 278 7 236 -7 193 -7 c 0
 97 -7 32 81 32 212 c 0
 32 448 185 677 341 677 c 0
334 647 m 0
 290 647 250 617 215 554 c 0
 163 461 111 262 111 157 c 0
 111 70 144 21 196 21 c 0
 242 21 283 56 321 122 c 0
 378 223 417 388 417 521 c 0
 417 602 388 647 334 647 c 0
EndSplineSet
EndChar

StartChar: one
Encoding: 49 49 17
Width: 499
Flags: MW
HStem: 0 15<48 140.803 243.97 328> 623 19<211 221.254 221.254 247.763> 657 20G<401 405.5>
VStem: 306 103<588.562 670.5>
LayerCount: 2
Back
SplineSet
429.141 0 m 1
 153.774 0 l 1
 153.774 14.3047 l 1
 188.106 14.3047 212.426 20.0264 226.015 30.04 c 0
 240.318 40.0527 247.471 60.7949 247.471 92.2656 c 2
 247.471 545.008 l 2
 247.471 576.479 236.027 591.499 213.854 591.499 c 0
 210.279 591.499 187.392 585.062 146.624 571.473 c 1
 146.624 582.916 l 1
 325.432 675.182 l 1
 334.014 673.751 l 1
 334.014 74.3848 l 2
 334.014 46.4902 343.312 28.6094 361.908 20.7422 c 0
 373.353 16.4502 396.24 14.3047 429.141 14.3047 c 1
 429.141 0 l 1
EndSplineSet
Fore
SplineSet
48 0 m 1
 48 15 l 1
 127 21 149 31 161 67 c 2
 299 560 l 2
 305 579 306 587 306 595 c 0
 306 614 291 625 268 625 c 2
 211 623 l 1
 211 639 l 1
 223 640 230 642 231 642 c 2
 322 661 l 1
 401 675 l 1
 401 677 404 677 404 677 c 1
 407 677 409 672 409 669 c 0
 409 664 407 655 403 640 c 2
 261 122 l 2
 256 107 242 69 242 47 c 0
 242 25 264 15 312 15 c 2
 328 15 l 1
 328 0 l 1
 48 0 l 1
EndSplineSet
EndChar

StartChar: two
Encoding: 50 50 18
Width: 499
Flags: W
HStem: 0 76<111 368> 603 74<226.186 312.698>
VStem: 366 87<439.416 549.387>
LayerCount: 2
Back
SplineSet
507.101 135.895 m 1
 452.743 0 l 1
 62.9404 0 l 1
 62.9404 11.4434 l 1
 241.749 202.412 l 2
 328.292 293.246 371.922 378.359 371.922 458.465 c 0
 371.922 505.671 359.762 540.718 334.73 565.75 c 0
 309.697 590.068 273.936 602.228 226.729 602.228 c 0
 186.676 602.228 155.206 587.208 131.604 557.882 c 0
 115.868 539.287 100.848 509.963 85.1133 469.909 c 1
 64.3711 476.346 l 1
 74.3848 537.857 96.5566 586.493 131.604 621.538 c 0
 166.65 657.3 215.286 675.182 276.796 675.182 c 0
 302.544 675.182 326.146 670.891 347.604 662.307 c 0
 369.775 653.01 389.088 640.85 404.822 624.4 c 0
 421.273 608.664 434.147 589.354 443.444 567.896 c 0
 452.028 545.725 457.035 521.406 457.035 494.942 c 0
 457.035 422.703 414.836 341.882 329.724 251.763 c 2
 160.928 74.3848 l 1
 399.815 74.3848 l 2
 424.135 74.3848 443.444 80.1064 457.035 90.835 c 0
 467.049 97.9873 479.206 114.438 493.512 140.901 c 1
 507.101 135.895 l 1
EndSplineSet
Fore
SplineSet
400 139 m 1
 417 132 l 1
 368 0 l 1
 12 0 l 1
 12 18 l 1
 223 242 l 2
 289 311 333 374 357 428 c 0
 363 441 366 460 366 480 c 0
 366 551 312 603 242 603 c 0
 182 603 138 574 101 508 c 1
 81 516 l 1
 108 587 136 623 187 650 c 0
 217 666 255 677 290 677 c 0
 381 677 453 602 453 505 c 0
 453 439 420 390 303 272 c 2
 111 81 l 1
 111 76 l 1
 300 76 l 2
 354 76 376 89 400 139 c 1
EndSplineSet
EndChar

StartChar: three
Encoding: 51 51 19
Width: 499
Flags: W
HStem: -7 38<97.0496 247.875> 634 43<241.364 350.026>
VStem: 327 79<150.625 289.59> 379 87<479.568 606.002>
LayerCount: 2
Back
SplineSet
464.188 215.286 m 0
 464.188 140.901 436.294 83.6826 379.074 42.1992 c 0
 326.863 6.4375 262.49 -11.4434 187.392 -11.4434 c 0
 158.066 -11.4434 136.609 -8.58301 123.021 -1.43066 c 1
 91.5498 6.4375 75.8145 20.7422 75.8145 42.1992 c 0
 75.8145 65.8018 88.6895 77.9609 114.438 77.9609 c 0
 128.027 77.9609 150.199 68.6621 181.669 50.0664 c 0
 216.001 30.04 241.034 20.7422 257.484 20.7422 c 0
 301.113 20.7422 334.014 36.4766 357.618 68.6621 c 1
 380.505 97.2715 392.663 133.033 392.663 175.947 c 0
 392.663 199.55 387.656 220.293 377.643 238.889 c 1
 356.187 298.969 292.531 329.724 185.961 329.724 c 1
 184.531 342.598 l 1
 296.106 377.643 351.895 434.147 351.895 511.393 c 0
 351.895 542.147 341.167 567.896 321.14 586.493 c 0
 300.398 605.803 273.936 615.102 241.749 615.102 c 0
 180.954 615.102 131.604 580.055 93.6953 509.963 c 1
 77.9609 514.253 l 1
 111.576 621.538 177.379 675.182 275.365 675.182 c 0
 318.994 675.182 356.187 663.737 386.227 640.85 c 0
 415.551 617.963 430.57 585.062 430.57 542.147 c 0
 430.57 489.936 399.815 443.444 338.306 401.247 c 1
 372.638 385.512 398.386 369.061 416.267 351.895 c 0
 448.451 318.994 464.188 273.936 464.188 215.286 c 0
EndSplineSet
Fore
SplineSet
327 195 m 0xe0
 327 380 156 360 141 360 c 1
 141 376 l 1
 229 393 272 407 313 437 c 0
 357 464 379 501 379 543 c 0xd0
 379 598 343 634 290 634 c 0
 248 634 212 612 179 567 c 1
 163 573 l 1
 195 636 256 677 327 677 c 0xe0
 406 677 466 623 466 549 c 0xd0
 466 480 431 448 311 401 c 1
 311 398 l 1
 376 368 406 321 406 249 c 0
 406 160 356 76 277 29 c 0
 234 4 185 -7 127 -7 c 0
 56 -7 15 15 15 53 c 0
 15 78 31 91 59 91 c 0
 107 91 144 31 195 31 c 0
 239 31 327 71 327 195 c 0xe0
EndSplineSet
EndChar

StartChar: four
Encoding: 52 52 20
Width: 499
Flags: MW
HStem: 0 21G<214 298.114> 179 63<64 264 357 439> 657 20G<418.694 479>
LayerCount: 2
Back
SplineSet
493.512 163.788 m 1
 395.525 163.788 l 1
 395.525 0 l 1
 318.994 0 l 1
 318.994 163.788 l 1
 43.6289 163.788 l 1
 43.6289 226.729 l 1
 351.895 662.307 l 1
 395.525 662.307 l 1
 395.525 226.729 l 1
 493.512 226.729 l 1
 493.512 163.788 l 1
317.564 226.729 m 1
 317.564 559.313 l 1
 83.6826 226.729 l 1
 317.564 226.729 l 1
EndSplineSet
Fore
SplineSet
453 242 m 1
 439 176 l 1
 338 176 l 1
 293 0 l 1
 214 0 l 1
 264 179 l 1
 1 179 l 1
 21 245 l 1
 438 677 l 1
 479 677 l 1
 357 242 l 1
 453 242 l 1
277 242 m 1
 374 562 l 1
 369 562 l 1
 64 245 l 1
 64 242 l 1
 277 242 l 1
EndSplineSet
EndChar

StartChar: five
Encoding: 53 53 21
Width: 499
Flags: W
HStem: -7 42<88.5173 231.702> 595 71<237 469>
VStem: 350 69<173.966 331.634>
LayerCount: 2
Back
SplineSet
480.638 683.765 m 1
 442.015 594.36 l 2
 439.154 588.637 431.287 585.776 419.128 585.776 c 2
 222.438 585.776 l 1
 180.239 500.664 l 1
 298.969 483.498 376.928 448.451 413.406 395.525 c 1
 442.015 356.187 l 1
 457.035 325.432 l 1
 464.902 298.969 468.479 265.352 468.479 223.868 c 0
 468.479 151.63 442.015 93.6953 388.373 50.0664 c 0
 335.445 8.58301 273.219 -11.4434 200.98 -11.4434 c 0
 114.438 -11.4434 71.5234 7.15234 71.5234 45.0596 c 0
 71.5234 71.5234 85.1133 85.1133 113.007 85.1133 c 0
 134.464 85.1133 160.213 74.3848 190.253 52.9277 c 0
 221.008 32.9004 243.896 23.6025 258.915 23.6025 c 0
 302.544 23.6025 336.875 42.9141 363.339 82.252 c 0
 385.512 115.868 396.955 155.921 396.955 202.412 c 0
 396.955 273.219 363.339 328.292 296.106 366.2 c 0
 238.174 397.67 177.379 413.406 113.007 413.406 c 0
 107.285 413.406 104.424 417.696 105.14 426.28 c 1
 215.286 663.737 l 1
 424.85 663.737 l 2
 441.3 663.737 457.035 673.036 471.339 691.632 c 1
 480.638 683.765 l 1
EndSplineSet
Fore
SplineSet
350 242 m 0
 350 389 231 412 130 434 c 1
 130 448 l 1
 234 666 l 1
 491 666 l 1
 469 595 l 1
 237 595 l 1
 199 507 l 1
 280 486 316 472 353 437 c 0
 395 395 419 341 419 280 c 0
 419 122 286 -7 122 -7 c 0
 56 -7 15 15 15 50 c 0
 15 75 32 89 56 89 c 0
 97 89 128 35 179 35 c 0
 270 35 350 133 350 242 c 0
EndSplineSet
EndChar

StartChar: six
Encoding: 54 54 22
Width: 499
Flags: W
HStem: -7 26<144.702 267.888> 412 35<228.669 326.802> 669 17<410.878 519.138>
VStem: 29 76<97.7351 284.253> 29 492 374 87<164.407 360.794>
LayerCount: 2
Back
SplineSet
487.79 215.286 m 0
 487.79 183.1 482.783 153.06 474.2 125.166 c 0
 464.902 97.2715 451.312 73.6689 433.432 53.6426 c 0
 416.267 33.6162 394.094 17.8809 367.631 5.72168 c 0
 341.167 -5.72168 311.126 -11.4434 276.796 -11.4434 c 0
 236.027 -11.4434 201.695 -2.86133 174.518 14.3047 c 0
 146.624 32.1855 124.451 55.0732 108 82.9668 c 0
 90.835 110.861 78.6758 142.332 70.8086 178.809 c 0
 63.6562 214.569 60.0801 251.048 60.0801 286.81 c 0
 60.0801 339.737 70.8086 389.803 92.9805 437.009 c 0
 115.152 484.93 144.478 525.697 181.669 560.743 c 0
 218.861 596.506 261.775 623.684 311.126 644.426 c 0
 360.479 665.169 411.975 675.182 465.617 675.182 c 1
 468.479 659.445 l 1
 389.803 645.142 324.717 614.387 273.936 565.75 c 0
 223.153 516.399 190.253 454.175 175.947 377.643 c 1
 241.749 411.26 l 1
 265.352 418.413 286.81 421.988 307.551 421.988 c 0
 336.16 421.988 361.193 416.267 384.081 405.537 c 0
 406.254 394.809 424.85 380.505 439.869 362.624 c 0
 455.604 344.743 467.049 322.571 475.631 297.537 c 0
 483.498 271.789 487.79 244.61 487.79 215.286 c 0
399.815 175.947 m 0
 399.815 309.697 354.757 376.213 263.922 376.213 c 0
 222.438 376.213 191.683 366.915 171.657 346.888 c 1
 168.795 337.591 165.219 324.717 161.644 308.982 c 0
 158.781 293.246 156.637 274.65 156.637 251.763 c 0
 156.637 227.444 158.781 201.695 161.644 173.802 c 0
 165.219 145.908 171.657 120.159 181.669 96.5566 c 0
 191.683 72.9541 205.272 53.6426 222.438 37.9072 c 0
 240.318 22.1719 263.207 14.3047 291.816 14.3047 c 0
 311.843 14.3047 329.007 19.3115 342.598 27.8945 c 0
 356.187 36.4766 367.631 48.6357 376.213 63.6562 c 0
 385.512 78.6758 391.233 95.8418 394.809 115.868 c 0
 398.386 135.18 399.815 155.206 399.815 175.947 c 0
EndSplineSet
Fore
SplineSet
521 686 m 1xe8
 521 669 l 1xe8
 403 656 270 555 199 428 c 1
 204 426 l 1
 231 439 264 447 291 447 c 0
 391 447 461 374 461 271 c 0
 461 120 349 -7 212 -7 c 0
 103 -7 29 76 29 204 c 0xf4
 29 347 107 489 234 583 c 0
 319 646 387 671 521 686 c 1xe8
204 19 m 0
 311 19 374 179 374 284 c 0
 374 360 330 412 259 412 c 0
 212 412 180 391 152 346 c 0
 126 300 105 217 105 149 c 0xf4
 105 67 142 19 204 19 c 0
EndSplineSet
EndChar

StartChar: seven
Encoding: 55 55 23
Width: 499
Flags: MW
HStem: -7 21G<79 160.735> 593 73<157 444>
LayerCount: 2
Back
SplineSet
483.498 647.288 m 1
 271.074 -5.72168 l 1
 205.272 -5.72168 l 1
 404.107 590.068 l 1
 185.961 590.068 l 2
 158.781 590.068 135.18 583.632 115.868 570.042 c 0
 105.14 562.889 90.1191 542.147 70.0928 508.531 c 1
 52.9277 515.685 l 1
 111.576 663.737 l 1
 483.498 663.737 l 1
 483.498 647.288 l 1
EndSplineSet
Fore
SplineSet
538 656 m 1
 149 -7 l 1
 79 -7 l 1
 445 590 l 1
 444 593 l 1
 223 593 l 2
 164 593 138 579 89 521 c 1
 75 530 l 1
 157 666 l 1
 532 666 l 1
 538 656 l 1
EndSplineSet
EndChar

StartChar: eight
Encoding: 56 56 24
Width: 499
Flags: W
HStem: -7 22<158.561 306.106> 653 24<252.446 381.256>
VStem: 29 69<83.8755 238.167> 138 77<477.796 601.132> 369 75<93.2671 230.144> 425 69<464.974 604.84>
LayerCount: 2
Back
SplineSet
464.188 149.484 m 0
 464.188 122.305 459.181 97.9873 449.168 77.9609 c 0
 438.438 57.2188 424.85 40.0527 406.969 27.1787 c 0
 389.803 13.5898 369.061 4.29102 345.458 -2.14551 c 0
 322.571 -8.58301 297.537 -11.4434 271.074 -11.4434 c 0
 246.756 -11.4434 223.153 -8.58301 200.98 -1.43066 c 0
 178.094 5.72168 158.781 15.7354 141.616 29.3242 c 0
 124.451 42.9141 110.861 59.3643 100.133 79.3906 c 0
 90.1191 98.7021 85.1133 120.875 85.1133 145.192 c 0
 85.1133 169.511 87.9736 189.538 92.9805 205.272 c 0
 98.7021 221.008 106.57 234.597 118.014 247.471 c 0
 129.457 260.345 142.332 273.219 158.066 285.378 c 0
 173.802 298.252 191.683 313.272 212.426 331.153 c 1
 193.828 350.465 176.662 366.915 161.644 379.789 c 0
 146.624 393.379 133.749 406.254 123.735 419.843 c 0
 113.723 432.717 105.14 447.021 99.418 462.757 c 0
 93.6953 478.491 90.835 497.804 90.835 521.406 c 0
 90.835 545.008 95.8418 566.466 105.854 585.062 c 0
 116.583 604.373 130.173 620.108 147.338 633.697 c 0
 164.504 646.571 183.814 657.3 205.987 664.452 c 0
 227.444 671.604 250.331 675.182 273.936 675.182 c 0
 296.106 675.182 318.279 672.319 339.021 667.313 c 0
 359.762 661.592 378.359 653.01 394.094 641.564 c 0
 409.829 630.122 421.988 615.102 431.287 597.936 c 0
 440.584 580.055 445.591 559.313 445.591 534.995 c 0
 445.591 493.512 432.717 461.325 407.684 437.724 c 0
 383.366 414.836 351.895 391.948 313.272 370.492 c 1
 336.16 351.18 356.187 334.014 374.067 318.994 c 0
 392.663 304.69 408.399 289.67 421.988 273.936 c 0
 435.577 258.2 446.307 241.034 453.458 221.723 c 0
 460.61 203.127 464.188 178.809 464.188 149.484 c 0
376.213 539.287 m 0
 376.213 569.327 368.346 594.36 351.895 613.671 c 0
 331.153 637.274 303.259 648.718 268.212 648.718 c 0
 237.457 648.718 212.426 639.419 192.398 620.823 c 0
 172.372 602.228 162.358 577.909 162.358 546.439 c 0
 162.358 495.657 203.842 442.729 285.378 388.373 c 1
 321.14 416.267 l 1
 344.027 439.154 l 1
 365.485 467.049 376.213 499.949 376.213 539.287 c 0
391.233 125.881 m 0
 391.233 160.928 379.789 190.968 357.618 215.286 c 0
 339.737 233.882 299.684 265.352 237.457 310.412 c 1
 208.134 282.518 l 1
 187.392 257.484 l 1
 168.795 229.59 159.498 195.26 159.498 155.206 c 0
 159.498 114.438 170.226 80.8213 191.683 54.3574 c 0
 213.14 27.8945 243.896 14.3047 282.518 14.3047 c 0
 313.987 14.3047 339.737 25.0332 360.479 46.4902 c 0
 380.505 67.2324 391.233 93.6953 391.233 125.881 c 0
EndSplineSet
Fore
SplineSet
229 -7 m 0xf8
 75 -7 29 98 29 161 c 0
 29 249 100 319 226 360 c 1
 160 434 138 472 138 526 c 0
 138 615 211 677 318 677 c 0
 420 677 494 617 494 535 c 0xf4
 494 464 447 420 330 382 c 1
 415 294 444 240 444 173 c 0
 444 70 352 -7 229 -7 c 0xf8
248 344 m 1
 149 307 98 231 98 155 c 0
 98 75 154 15 233 15 c 0
 311 15 369 75 369 155 c 0xf8
 369 211 357 229 248 344 c 1
311 398 m 1
 350 421 425 443 425 535 c 0xf4
 425 605 382 653 318 653 c 0
 255 653 215 609 215 541 c 0
 215 498 233 472 311 398 c 1
EndSplineSet
EndChar

StartChar: nine
Encoding: 57 57 25
Width: 499
Flags: W
HStem: -18 19<23 143.733> 229 46<198.221 306.051> 650 27<251.469 377.458>
VStem: 23 469 69 88<320.103 509.893> 417 75<381.162 568.927>
LayerCount: 2
Back
SplineSet
492.082 395.525 m 0
 492.082 283.232 457.035 189.538 386.941 114.438 c 0
 304.69 25.0332 206.702 -19.3115 92.2656 -19.3115 c 1
 89.4043 0 l 1
 127.312 5.00684 163.073 15.7354 195.975 32.1855 c 0
 229.59 48.6357 258.915 70.0928 284.663 96.5566 c 0
 311.126 123.021 332.584 153.06 350.465 185.961 c 0
 369.061 219.576 382.649 253.908 391.233 290.385 c 1
 349.034 254.623 299.684 237.457 243.181 237.457 c 0
 187.392 237.457 143.047 256.77 110.146 296.106 c 0
 78.6758 331.868 62.9404 377.643 62.9404 433.432 c 0
 62.9404 502.094 80.8213 557.882 115.868 602.228 c 0
 135.18 627.261 158.066 645.856 184.531 658.016 c 0
 210.994 669.459 240.318 675.182 272.504 675.182 c 0
 344.027 675.182 399.101 645.142 439.154 584.347 c 0
 474.916 531.419 492.082 468.479 492.082 395.525 c 0
394.094 354.757 m 2
 394.094 394.094 l 2
 394.094 563.605 349.75 648.718 262.49 648.718 c 0
 190.253 648.718 153.774 590.068 153.774 473.485 c 0
 153.774 420.558 162.358 377.643 180.239 345.458 c 0
 202.412 301.829 236.742 279.656 282.518 279.656 c 0
 316.133 279.656 348.319 291.1 379.074 313.272 c 0
 389.088 321.14 394.094 334.73 394.094 354.757 c 2
EndSplineSet
Fore
SplineSet
23 -18 m 1xf0
 23 1 l 1xf0
 103 18 152 44 224 105 c 0
 286 163 335 227 352 272 c 1
 349 274 l 1
 296 242 261 229 220 229 c 0
 130 229 69 305 69 409 c 0
 69 548 185 677 311 677 c 0
 420 677 492 589 492 458 c 0xec
 492 324 423 189 308 98 c 0
 226 34 158 6 23 -18 c 1xf0
318 650 m 0
 207 650 157 507 157 415 c 0
 157 327 193 275 256 275 c 0
 294 275 335 291 362 318 c 0
 393 347 417 439 417 519 c 0xec
 417 601 379 650 318 650 c 0
EndSplineSet
EndChar

StartChar: colon
Encoding: 58 58 26
Width: 332
Flags: W
HStem: -12 112<61.8467 149.003> 330 111<160.922 249.003>
VStem: 50 111<0.388973 87.9281> 149 112<341.463 429.003>
LayerCount: 2
Back
SplineSet
213.854 411.26 m 0
 213.854 375.498 194.543 357.618 156.637 357.618 c 0
 142.332 357.618 129.457 362.624 118.014 373.353 c 0
 106.57 384.081 100.848 396.955 100.848 411.26 c 0
 100.848 445.591 119.444 465.617 156.637 469.909 c 0
 172.372 469.909 185.961 464.188 196.688 452.743 c 0
 208.134 440.584 213.854 426.995 213.854 411.26 c 0
213.854 43.6289 m 0
 213.854 28.6094 208.134 15.7354 196.688 5.72168 c 0
 185.961 -3.57617 172.372 -8.58301 156.637 -8.58301 c 0
 142.332 -8.58301 129.457 -3.57617 118.014 6.4375 c 0
 106.57 17.166 100.848 29.3242 100.848 43.6289 c 0
 100.848 59.3643 106.57 72.9541 117.299 85.1133 c 0
 128.027 96.5566 140.901 102.278 156.637 102.278 c 0
 172.372 102.278 185.961 96.5566 196.688 85.1133 c 0
 208.134 72.9541 213.854 59.3643 213.854 43.6289 c 0
EndSplineSet
Fore
SplineSet
105 100 m 0xe0
 136 100 161 75 161 42 c 0
 161 13 136 -12 104 -12 c 0
 75 -12 50 15 50 42 c 0
 50 75 75 100 105 100 c 0xe0
205 441 m 0
 236 441 261 416 261 384 c 0
 261 354 236 330 204 330 c 0
 174 330 149 354 149 384 c 0xd0
 149 416 174 441 205 441 c 0
EndSplineSet
EndChar

StartChar: semicolon
Encoding: 59 59 27
Width: 332
Flags: W
HStem: 330 111<160.922 249.003>
VStem: 103 63<-36.1728 39.8167> 149 112<341.463 429.003>
LayerCount: 2
Back
SplineSet
213.854 411.26 m 0
 213.854 375.498 194.543 357.618 156.637 357.618 c 0
 142.332 357.618 129.457 362.624 118.014 373.353 c 0
 106.57 384.081 100.848 396.955 100.848 411.26 c 0
 100.848 445.591 119.444 465.617 156.637 469.909 c 0
 172.372 469.909 185.961 464.188 196.688 452.743 c 0
 208.134 440.584 213.854 426.995 213.854 411.26 c 0
241.749 5.72168 m 0
 241.749 -27.1787 226.729 -58.6494 195.975 -87.9736 c 2
 159.498 -123.021 l 2
 154.491 -126.597 149.484 -130.888 144.478 -133.749 c 0
 138.756 -137.325 133.033 -140.186 127.312 -142.332 c 1
 118.729 -121.59 l 1
 174.518 -86.543 202.412 -50.0664 202.412 -12.874 c 0
 202.412 -4.29102 197.405 0 187.392 0 c 2
 175.947 -1.43066 l 1
 162.358 -2.86133 l 2
 120.875 -2.86133 99.418 12.874 99.418 45.0596 c 0
 99.418 84.3975 119.444 103.709 159.498 103.709 c 0
 214.569 103.709 241.749 71.5234 241.749 5.72168 c 0
EndSplineSet
Fore
SplineSet
103 -23 m 0xc0
 103 5 57 13 57 54 c 0
 57 81 79 101 108 101 c 0
 141 101 166 70 166 29 c 0
 166 -26 120 -82 37 -129 c 1
 26 -111 l 1
 79 -78 103 -50 103 -23 c 0xc0
205 441 m 0
 236 441 261 416 261 384 c 0
 261 354 236 330 204 330 c 0
 174 330 149 354 149 384 c 0xa0
 149 416 174 441 205 441 c 0
EndSplineSet
EndChar

StartChar: less
Encoding: 60 60 28
Width: 673
Flags: W
HStem: -10 21G<547.739 592>
LayerCount: 2
Back
SplineSet
581.486 -5.72168 m 1
 61.5098 226.729 l 1
 61.5098 291.816 l 1
 581.486 527.127 l 1
 581.486 469.909 l 1
 117.299 261.062 l 1
 581.486 50.0664 l 1
 581.486 -5.72168 l 1
EndSplineSet
Fore
SplineSet
592 -10 m 1
 83 220 l 1
 83 286 l 1
 592 516 l 1
 592 444 l 1
 171 253 l 1
 592 62 l 1
 592 -10 l 1
EndSplineSet
EndChar

StartChar: equal
Encoding: 61 61 29
Width: 673
Flags: W
HStem: 120 66<86 590> 319 68<86 590>
LayerCount: 2
Back
SplineSet
580.055 336.875 m 1
 62.9404 336.875 l 1
 62.9404 388.373 l 1
 580.055 388.373 l 1
 580.055 336.875 l 1
580.055 131.604 m 1
 62.9404 131.604 l 1
 62.9404 183.1 l 1
 580.055 183.1 l 1
 580.055 131.604 l 1
EndSplineSet
Fore
SplineSet
590 387 m 1
 590 319 l 1
 86 319 l 1
 86 387 l 1
 590 387 l 1
590 186 m 1
 590 120 l 1
 86 120 l 1
 86 186 l 1
 590 186 l 1
EndSplineSet
EndChar

StartChar: greater
Encoding: 62 62 30
Width: 673
Flags: W
HStem: -10 21G<83 127.261>
LayerCount: 2
Back
SplineSet
581.486 226.729 m 1
 61.5098 -5.72168 l 1
 61.5098 50.0664 l 1
 525.697 261.062 l 1
 61.5098 469.909 l 1
 61.5098 527.127 l 1
 581.486 291.816 l 1
 581.486 226.729 l 1
EndSplineSet
Fore
SplineSet
83 -10 m 1
 83 62 l 1
 504 253 l 1
 83 444 l 1
 83 516 l 1
 592 286 l 1
 592 220 l 1
 83 -10 l 1
EndSplineSet
EndChar

StartChar: question
Encoding: 63 63 31
Width: 499
Flags: W
HStem: -12 104<142.315 226.164> 642 22<257.77 375.053>
VStem: 132 105<-0.687241 81.7521> 185 63<526.445 616.288> 199 16<176.578 207.47> 398 74<477.552 607.351>
LayerCount: 2
Back
SplineSet
427.71 522.837 m 0
 427.71 479.923 401.962 426.995 349.75 363.339 c 2
 311.843 316.133 l 1
 285.378 273.936 l 2
 281.088 265.352 275.365 251.763 269.644 234.597 c 0
 263.922 216.716 258.2 194.543 253.193 168.795 c 1
 236.027 168.795 l 1
 236.027 217.432 246.041 265.352 266.782 313.272 c 2
 294.677 379.074 l 2
 319.71 442.015 332.584 492.797 332.584 531.419 c 0
 332.584 568.612 322.571 600.082 303.259 624.4 c 0
 283.948 649.433 256.055 662.307 219.576 662.307 c 0
 199.55 662.307 177.379 656.585 155.206 644.426 c 1
 134.464 630.122 124.451 614.387 124.451 599.367 c 0
 124.451 592.214 130.888 580.77 143.762 565.75 c 0
 157.352 548.585 163.788 534.995 163.788 522.837 c 0
 165.934 494.942 153.06 480.638 124.451 480.638 c 0
 90.1191 480.638 72.9541 502.094 72.9541 545.008 c 0
 72.9541 567.181 77.9609 587.922 86.543 605.803 c 0
 95.126 623.684 107.285 639.419 123.021 651.578 c 0
 138.756 664.452 156.637 674.466 176.662 681.618 c 0
 196.688 689.485 217.432 693.062 240.318 693.062 c 0
 267.497 693.062 296.106 687.34 326.863 675.182 c 1
 361.908 658.016 l 1
 391.233 634.412 l 1
 415.551 600.797 427.71 563.605 427.71 522.837 c 0
301.829 43.6289 m 0
 301.829 29.3242 296.106 17.8809 284.663 8.58301 c 0
 273.936 0 261.062 -5.00684 246.041 -5.72168 c 0
 210.279 -7.15234 191.683 10.0137 191.683 43.6289 c 0
 191.683 77.2451 210.279 95.8418 246.041 99.418 c 0
 261.062 99.418 273.936 93.6953 284.663 82.9668 c 0
 296.106 71.5234 301.829 58.6494 301.829 43.6289 c 0
EndSplineSet
Fore
SplineSet
248 595 m 0xd4
 248 574 264 558 264 542 c 0
 264 521 246 507 223 507 c 0
 199 507 185 524 185 555 c 0xd4
 185 620 242 664 324 664 c 0
 413 664 472 612 472 535 c 0
 472 475 453 447 338 354 c 0
 267 297 237 259 223 204 c 2
 215 174 l 1
 199 176 l 1xcc
 215 275 229 297 311 393 c 0
 376 463 398 505 398 557 c 0
 398 611 369 642 318 642 c 0
 275 642 248 624 248 595 c 0xd4
185 92 m 0
 212 92 237 69 237 40 c 0xe4
 237 13 212 -12 185 -12 c 0xd4
 155 -12 132 12 132 40 c 0xe4
 132 69 155 92 185 92 c 0
EndSplineSet
EndChar

StartChar: at
Encoding: 64 64 32
Width: 919
Flags: W
HStem: -18 39<378.94 610.882> 138 33<601.422 692.555> 139 43<384.25 477.577> 636 30<377.34 588.505>
VStem: 119 82<201.947 436.914> 321 72<196.362 356.06> 766 40<268.917 464.159>
LayerCount: 2
Back
SplineSet
756.002 380.505 m 0
 756.002 321.14 740.268 268.212 708.798 222.438 c 0
 673.036 168.795 626.545 142.332 570.042 142.332 c 0
 541.433 142.332 518.545 153.06 500.664 174.518 c 0
 488.505 186.676 482.068 200.266 482.068 213.854 c 1
 461.325 193.113 l 1
 439.154 174.518 l 2
 417.696 156.637 393.379 146.624 364.769 143.762 c 1
 301.113 143.762 269.644 185.246 269.644 268.212 c 0
 269.644 291.816 273.219 315.418 280.371 339.737 c 0
 287.524 364.054 299.684 389.088 316.133 414.836 c 0
 354.757 477.062 404.107 508.531 465.617 508.531 c 1
 492.082 504.24 l 1
 508.531 496.372 523.552 479.923 536.426 455.604 c 1
 546.439 493.512 l 1
 616.531 493.512 l 1
 550.731 240.318 l 1
 549.3 215.286 l 1
 549.3 188.821 561.459 175.947 585.776 175.947 c 0
 607.234 175.947 626.545 183.1 642.281 196.688 c 0
 658.73 210.994 672.319 228.875 683.05 249.616 c 0
 694.492 271.074 703.074 293.246 708.081 316.133 c 0
 713.805 339.737 715.95 360.479 715.95 379.074 c 0
 715.95 417.696 708.081 452.743 691.632 484.93 c 0
 674.466 517.114 653.01 545.008 626.545 568.612 c 0
 599.367 591.499 568.612 610.095 534.995 623.684 c 0
 500.664 637.989 465.617 644.426 429.141 644.426 c 0
 381.22 644.426 339.737 635.129 304.69 616.531 c 0
 269.644 597.936 240.318 573.618 216.716 542.862 c 0
 193.113 512.107 175.947 476.346 164.504 434.862 c 0
 153.774 394.094 148.053 350.465 148.053 304.69 c 0
 148.053 264.637 155.921 227.444 171.657 193.113 c 0
 186.676 159.498 208.134 129.457 234.597 103.709 c 0
 261.062 78.6758 291.816 58.6494 326.863 44.3447 c 0
 361.908 30.7549 399.101 23.6025 437.724 23.6025 c 0
 500.664 23.6025 566.466 40.0527 635.844 72.9541 c 1
 647.288 42.1992 l 1
 605.803 25.0332 567.181 11.4434 532.851 2.14551 c 0
 499.233 -7.15234 467.764 -11.4434 439.154 -11.4434 c 0
 318.994 -11.4434 223.868 25.0332 152.345 99.418 c 0
 92.9805 163.073 62.9404 234.597 62.9404 313.272 c 0
 62.9404 417.696 97.9873 504.24 166.65 572.902 c 0
 236.027 640.85 324.001 675.182 429.141 675.182 c 0
 516.399 675.182 591.499 648.718 656.585 596.506 c 0
 722.387 541.433 756.002 469.909 756.002 380.505 c 0
518.545 398.386 m 0
 518.545 442.015 504.24 464.188 476.346 464.188 c 0
 436.294 464.188 402.677 440.584 376.213 394.094 c 0
 351.18 351.895 338.306 311.126 338.306 271.074 c 0
 338.306 215.286 359.048 187.392 401.247 187.392 c 0
 433.432 187.392 462.042 216.001 486.359 272.504 c 0
 496.372 293.962 503.525 315.418 508.531 336.16 c 0
 512.823 356.901 516.399 377.643 518.545 398.386 c 0
EndSplineSet
Fore
SplineSet
321 250 m 0xbe
 321 358 396 499 516 499 c 0
 551 499 565 491 587 450 c 1
 598 486 l 1
 666 486 l 1
 601 234 l 2
 599 227 598 218 598 212 c 0
 598 186 611 171 636 171 c 0
 721 171 766 293 766 368 c 0
 766 513 637 636 480 636 c 0
 318 636 201 499 201 313 c 0
 201 142 324 21 494 21 c 0
 560 21 608 34 686 67 c 1
 699 40 l 1
 603 -4 554 -18 482 -18 c 0
 278 -18 119 130 119 319 c 0
 119 513 278 666 480 666 c 0
 664 666 806 539 806 376 c 0
 806 248 721 138 623 138 c 0xde
 576 138 539 167 533 209 c 1
 497 166 453 139 410 139 c 0
 360 139 321 187 321 250 c 0xbe
570 394 m 0
 576 463 515 484 442 406 c 0
 410 368 393 318 393 265 c 0
 393 212 415 182 451 182 c 0xbe
 507 182 564 281 570 394 c 0
EndSplineSet
EndChar

StartChar: A
Encoding: 65 65 33
Width: 610
Flags: W
HStem: 0 16<79.3922 136 318 387.512 506.756 564> 226 36<174 369>
LayerCount: 2
Back
SplineSet
705.937 0 m 1
 455.604 0 l 1
 455.604 17.8809 l 1
 487.79 17.8809 l 1
 505.671 23.6025 l 2
 517.83 27.1787 524.267 37.9072 524.267 55.7881 c 1
 519.975 77.9609 l 1
 505.671 118.729 l 1
 465.617 212.426 l 1
 208.134 212.426 l 1
 162.358 96.5566 l 1
 156.637 83.6826 153.774 71.5234 153.774 60.0801 c 0
 153.774 31.4707 175.947 17.8809 221.008 17.8809 c 1
 221.008 0 l 1
 26.4639 0 l 1
 26.4639 17.8809 l 1
 53.6426 17.8809 80.1064 39.3379 105.14 82.252 c 0
 107.285 87.2588 112.292 97.2715 119.444 113.007 c 0
 126.597 128.742 135.895 150.914 148.053 180.239 c 1
 353.326 662.307 l 1
 373.353 662.307 l 1
 617.963 103.709 l 2
 632.982 70.0928 646.571 47.2051 658.73 35.0469 c 0
 670.89 23.6025 686.625 17.8809 705.937 17.8809 c 1
 705.937 0 l 1
451.312 253.193 m 1
 338.306 522.837 l 1
 223.868 253.193 l 1
 451.312 253.193 l 1
EndSplineSet
Fore
SplineSet
564 16 m 1
 564 0 l 1
 318 0 l 1
 318 16 l 1
 382 22 395 31 395 69 c 0
 395 78 395 86 394 95 c 2
 374 226 l 1
 154 226 l 1
 97 113 l 2
 81 79 78 70 78 51 c 0
 78 26 85 21 136 16 c 1
 136 0 l 1
 -51 0 l 1
 -51 16 l 1
 -12 23 -1 35 78 168 c 2
 368 668 l 1
 394 668 l 1
 488 103 l 2
 501 29 507 21 564 16 c 1
174 262 m 1
 369 262 l 1
 325 521 l 1
 174 262 l 1
EndSplineSet
EndChar

StartChar: B
Encoding: 66 66 34
Width: 610
Flags: W
HStem: 0 29<176.738 337.163> 331 32<248 322.564> 623 30<315.213 449.231> 637 16<130 202.729>
VStem: 431 108<115.423 279.173> 486 101<433.675 582.929>
LayerCount: 2
Back
SplineSet
612.241 175.947 m 0
 611.524 148.768 604.373 123.735 592.214 100.848 c 0
 580.055 78.6758 563.605 60.0801 542.862 44.3447 c 0
 521.406 29.3242 496.372 17.8809 467.049 10.0137 c 0
 437.724 2.14551 405.537 -0.714844 370.492 0 c 2
 35.0469 0 l 1
 35.0469 19.3115 l 1
 72.9541 19.3115 98.7021 24.3184 112.292 35.7617 c 0
 125.166 47.2051 131.604 71.5234 131.604 108.716 c 2
 131.604 553.592 l 2
 131.604 588.637 125.881 612.956 114.438 625.115 c 1
 109.431 627.261 104.424 629.407 99.418 632.268 c 0
 94.4111 634.412 90.1191 636.559 85.1133 638.704 c 2
 35.0469 644.426 l 1
 35.0469 662.307 l 1
 316.133 662.307 l 2
 491.365 662.307 578.625 605.803 578.625 493.512 c 0
 578.625 444.876 561.459 408.399 527.127 385.512 c 1
 515.685 374.782 488.505 362.624 445.591 348.319 c 1
 556.452 325.432 612.241 267.497 612.241 175.947 c 0
476.346 487.79 m 0
 476.346 579.34 417.696 625.115 300.398 625.115 c 2
 256.055 625.115 l 2
 241.034 625.115 233.167 615.102 233.167 594.36 c 2
 233.167 364.769 l 1
 329.724 366.2 l 2
 426.995 366.915 476.346 407.684 476.346 487.79 c 0
497.804 180.239 m 0
 497.804 253.193 459.181 298.969 382.649 316.133 c 0
 356.187 323.286 306.12 326.863 233.167 326.863 c 1
 233.167 79.3906 l 2
 233.167 58.6494 241.749 45.0596 258.915 39.3379 c 0
 263.207 38.623 268.929 37.9072 277.511 37.1924 c 0
 286.093 37.1924 296.822 36.4766 310.412 36.4766 c 0
 435.577 36.4766 497.804 84.3975 497.804 180.239 c 0
EndSplineSet
Fore
SplineSet
413 352 m 1xe4
 474 326 539 292 539 201 c 0
 539 82 431 0 274 0 c 2
 -7 0 l 1
 -7 16 l 1
 48 26 56 32 73 89 c 2
 196 532 l 2
 204 557 207 582 207 596 c 0
 207 624 192 631 130 637 c 1
 130 653 l 1xd8
 388 653 l 2
 517 653 587 601 587 505 c 0
 587 383 450 360 413 352 c 1xe4
237 331 m 1
 211 209 171 101 171 72 c 0
 171 45 193 29 234 29 c 0
 357 29 431 97 431 204 c 0
 431 258 406 302 365 319 c 0
 346 327 303 331 237 331 c 1
313 595 m 2
 248 363 l 1
 338 363 387 371 420 390 c 0
 463 415 486 458 486 516 c 0
 486 589 450 623 371 623 c 0xe4
 331 623 319 617 313 595 c 2
EndSplineSet
EndChar

StartChar: C
Encoding: 67 67 35
Width: 666
Flags: W
HStem: -18 44<264.378 440.68> 630 36<383.388 563.802>
VStem: 66 113<131.26 367.118>
LayerCount: 2
Back
SplineSet
644.426 110.146 m 1
 633.697 90.1191 611.524 69.3779 578.625 47.2051 c 0
 522.121 7.86719 454.89 -11.4434 376.213 -11.4434 c 0
 274.65 -11.4434 194.543 17.8809 135.895 77.9609 c 0
 78.6758 139.471 50.0664 221.008 50.0664 324.001 c 0
 50.0664 371.922 57.2188 416.267 72.2383 457.035 c 0
 87.9736 497.804 111.576 535.711 143.762 570.042 c 0
 210.279 639.419 290.385 670.176 384.081 663.737 c 2
 434.862 659.445 l 2
 444.161 658.016 453.458 657.3 463.472 655.155 c 0
 474.2 653.725 484.93 651.578 496.372 648.718 c 2
 557.882 631.552 l 1
 580.77 631.552 595.79 642.281 603.657 663.737 c 1
 622.254 663.737 l 1
 631.552 444.161 l 1
 610.81 444.161 l 1
 597.936 501.379 572.902 545.725 535.711 577.194 c 0
 497.804 608.664 449.883 623.684 392.663 623.684 c 0
 314.703 623.684 256.055 592.214 216.716 528.559 c 0
 181.669 474.916 163.788 405.537 163.788 321.14 c 0
 163.788 279.656 168.795 242.464 178.094 208.849 c 0
 187.392 175.232 201.695 144.478 221.008 117.299 c 0
 263.207 57.9336 324.001 27.8945 404.107 27.8945 c 0
 483.498 27.8945 557.167 60.7949 625.115 127.312 c 1
 644.426 110.146 l 1
EndSplineSet
Fore
SplineSet
472 666 m 0
 547 666 602 642 630 642 c 0
 650 642 661 647 668 664 c 1
 688 664 l 1
 652 464 l 1
 634 469 l 1
 624 576 573 630 480 630 c 0
 415 630 352 602 305 554 c 0
 226 472 179 352 179 231 c 0
 179 103 242 26 353 26 c 0
 435 26 494 57 583 145 c 1
 601 130 l 1
 510 26 431 -18 327 -18 c 0
 174 -18 66 89 66 243 c 0
 66 464 259 666 472 666 c 0
EndSplineSet
EndChar

StartChar: D
Encoding: 68 68 36
Width: 720
Flags: W
HStem: 0 29<173.672 366.338> 623 30<315.313 479.793> 637 16<130 202.197>
VStem: 589 111<272.773 496.648>
LayerCount: 2
Back
SplineSet
704.506 329.724 m 0
 704.506 245.324 678.758 173.802 627.261 114.438 c 0
 559.313 37.9072 457.035 0 318.994 0 c 2
 33.6162 0 l 1
 33.6162 19.3115 l 1
 62.2256 19.3115 86.543 25.0332 107.285 37.9072 c 1
 118.014 51.4971 123.021 75.0996 123.021 108.716 c 2
 123.021 555.021 l 2
 123.021 591.499 118.014 614.387 107.285 625.115 c 0
 100.848 631.552 91.5498 636.559 79.3906 640.135 c 1
 33.6162 644.426 l 1
 33.6162 663.737 l 1
 304.69 663.737 l 2
 424.135 663.737 517.83 637.989 587.208 587.208 c 0
 665.169 530.704 704.506 444.876 704.506 329.724 c 0
596.506 329.724 m 0
 596.506 426.995 565.75 502.094 505.671 553.592 c 0
 448.451 602.228 370.492 627.261 271.074 627.261 c 0
 251.763 627.261 238.174 623.684 231.735 616.531 c 0
 228.16 613.671 226.015 603.657 223.868 587.208 c 1
 223.868 79.3906 l 2
 223.868 61.5098 230.306 48.6357 241.749 40.7686 c 0
 249.616 37.9072 263.922 36.4766 283.948 36.4766 c 0
 492.082 36.4766 596.506 134.464 596.506 329.724 c 0
EndSplineSet
Fore
SplineSet
130 637 m 1xb0
 130 653 l 1xb0
 409 653 l 2xd0
 586 653 700 548 700 384 c 0
 700 268 643 158 546 86 c 0
 469 31 362 0 245 0 c 2
 -7 0 l 1
 -7 16 l 1
 48 26 56 32 73 89 c 2
 196 532 l 2
 204 557 207 582 207 596 c 0
 207 623 192 631 130 637 c 1xb0
313 595 m 2
 192 163 l 2
 174 103 170 81 170 67 c 0
 170 41 189 29 234 29 c 0
 338 29 420 60 479 120 c 0
 546 187 589 300 589 409 c 0
 589 486 562 549 513 586 c 0
 480 609 431 623 374 623 c 0xd0
 334 623 319 617 313 595 c 2
EndSplineSet
EndChar

StartChar: E
Encoding: 69 69 37
Width: 610
Flags: MW
HStem: 0 34<178.241 423.625> 328 32<253 287.866 287.866 293.508 293.508 371.5> 620 33<320.183 560.905> 637 16<138 209.223>
VStem: 400 20<227 259.118> 582 21<502 524.753>
LayerCount: 2
Back
SplineSet
630.122 168.795 m 1
 584.347 0 l 1
 42.1992 0 l 1
 42.1992 19.3115 l 1
 76.5303 19.3115 99.418 25.0332 111.576 37.9072 c 0
 123.021 50.7812 128.742 74.3848 128.742 108.716 c 2
 128.742 555.021 l 2
 128.742 594.36 122.305 618.678 110.146 628.69 c 1
 83.6826 638.704 l 1
 42.1992 644.426 l 1
 42.1992 663.737 l 1
 575.763 663.737 l 1
 578.625 519.975 l 1
 553.592 519.975 l 1
 547.154 567.181 531.419 597.221 507.101 610.81 c 0
 487.075 621.538 451.312 627.261 399.815 627.261 c 2
 265.352 627.261 l 2
 254.623 627.261 246.756 625.115 241.749 622.254 c 0
 236.027 616.531 233.167 606.518 233.167 591.499 c 2
 233.167 369.061 l 1
 386.941 369.061 l 2
 427.71 369.061 454.175 374.782 465.617 386.941 c 0
 478.491 398.386 488.505 424.135 496.372 464.188 c 1
 521.406 464.188 l 1
 521.406 233.167 l 1
 496.372 233.167 l 1
 490.65 274.65 480.638 300.398 467.049 308.982 c 1
 455.604 321.14 428.425 326.863 386.941 326.863 c 2
 233.167 326.863 l 1
 233.167 80.8213 l 2
 233.167 55.0732 253.193 40.0527 293.246 35.0469 c 0
 283.232 36.4766 285.378 37.1924 299.684 37.1924 c 0
 313.987 37.9072 341.167 37.9072 382.649 37.9072 c 0
 444.876 37.9072 489.936 45.7754 517.114 61.5098 c 0
 551.446 82.252 579.34 118.014 600.797 168.795 c 1
 630.122 168.795 l 1
EndSplineSet
Fore
SplineSet
256 34 m 0
 437 34 479 69 552 170 c 1
 568 163 l 1
 505 0 l 1
 -1 0 l 1
 -1 16 l 1
 56 26 63 34 81 89 c 2
 204 532 l 2
 208 549 214 584 214 596 c 0
 214 623 199 631 138 637 c 1
 138 653 l 1
 634 653 l 1
 603 499 l 1
 582 502 l 1
 583 519 584 535 584 546 c 0
 584 606 549 620 393 620 c 0
 335 620 325 617 319 595 c 2
 253 360 l 1
 289 362 319 363 333 363 c 0
 423 368 432 374 470 458 c 1
 488 454 l 1
 420 223 l 1
 400 227 l 1
 404 249 407 262 407 278 c 0
 407 296 404 305 400 311 c 1
 390 319 360 327 322 325 c 0
 311 325 278 327 245 328 c 1
 209 204 176 86 176 67 c 0
 176 42 201 34 256 34 c 0
EndSplineSet
EndChar

StartChar: F
Encoding: 70 70 38
Width: 610
Flags: MW
HStem: 0 16<7 67.9349 190.149 261> 328 32<264 299.368 299.368 384.583> 637 16<146 220.218>
VStem: 404 18<220 256.296> 592 20<502 520.944>
LayerCount: 2
Back
SplineSet
563.605 519.975 m 1
 539.287 519.975 l 1
 532.851 565.75 517.83 595.79 492.082 609.38 c 0
 472.771 620.108 437.724 625.115 386.941 625.115 c 2
 250.331 625.115 l 2
 230.306 625.115 219.576 613.671 219.576 590.068 c 2
 219.576 369.061 l 1
 363.339 369.061 l 2
 403.393 369.061 430.57 375.498 446.307 388.373 c 0
 461.325 400.532 469.909 425.564 473.485 462.757 c 1
 496.372 462.757 l 1
 496.372 231.735 l 1
 473.485 231.735 l 1
 469.909 268.212 461.325 293.962 446.307 306.836 c 0
 430.57 319.71 403.393 326.863 363.339 326.863 c 2
 219.576 329.724 l 1
 219.576 108.716 l 2
 219.576 74.3848 226.015 50.7812 238.889 37.9072 c 0
 251.763 25.0332 274.65 19.3115 308.982 19.3115 c 1
 308.982 0 l 1
 29.3242 0 l 1
 29.3242 19.3115 l 1
 66.5166 19.3115 90.1191 27.1787 100.848 42.1992 c 0
 110.861 55.0732 115.868 80.8213 115.868 120.159 c 2
 115.868 553.592 l 2
 115.868 591.499 109.431 616.531 96.5566 627.261 c 1
 70.0928 638.704 l 1
 29.3242 644.426 l 1
 29.3242 662.307 l 1
 560.743 662.307 l 1
 563.605 519.975 l 1
EndSplineSet
Fore
SplineSet
413 278 m 0
 413 327 378 325 335 325 c 0
 313 325 291 327 255 328 c 1
 193 105 l 2
 187 83 185 67 185 60 c 0
 185 29 202 19 261 16 c 1
 261 0 l 1
 7 0 l 1
 7 16 l 1
 64 23 72 29 89 89 c 2
 212 532 l 2
 220 557 224 582 224 596 c 0
 224 625 212 631 146 637 c 1
 146 653 l 1
 645 653 l 1
 612 499 l 1
 592 502 l 1
 593 514 593 516 595 521 c 1
 595 545 l 2
 595 606 560 620 391 620 c 0
 350 620 335 614 330 595 c 2
 264 360 l 1
 432 363 435 365 480 454 c 1
 498 450 l 1
 422 215 l 1
 404 220 l 1
 412 250 413 264 413 278 c 0
EndSplineSet
EndChar

StartChar: G
Encoding: 71 71 39
Width: 720
Flags: W
HStem: -18 37<260.765 452.332> 303 16<456 470.685 470.685 533.572 649.661 722> 631 35<365.871 556.864>
VStem: 53 110<141.98 366.952>
LayerCount: 2
Back
SplineSet
718.095 331.153 m 1
 690.2 328.292 673.751 324.001 668.029 317.564 c 0
 655.155 306.836 648.718 285.378 648.718 253.193 c 2
 648.718 57.2188 l 2
 648.718 49.3516 640.135 42.1992 622.254 35.0469 c 0
 605.088 28.6094 577.909 19.3115 542.147 8.58301 c 1
 509.963 2.86133 482.783 -2.14551 460.61 -5.72168 c 0
 438.438 -10.0137 421.273 -11.4434 408.399 -11.4434 c 0
 289.67 -11.4434 197.405 22.1719 131.604 90.835 c 0
 110.146 113.007 93.6953 138.04 81.5371 164.504 c 0
 69.3779 191.683 60.0801 221.008 54.3574 251.763 c 0
 52.2119 262.49 50.7812 275.365 50.7812 288.955 c 0
 50.0664 303.259 50.0664 318.994 50.0664 335.445 c 0
 50.0664 431.287 82.252 509.963 148.053 571.473 c 0
 213.14 633.697 293.246 665.169 388.373 665.169 c 0
 424.135 665.169 462.042 660.877 500.664 651.578 c 1
 563.605 631.552 l 1
 588.638 631.552 603.657 642.281 610.81 665.169 c 1
 631.552 665.169 l 1
 640.135 457.035 l 1
 617.963 457.035 l 1
 574.333 569.327 502.094 625.115 402.677 625.115 c 0
 321.14 625.115 258.2 592.929 215.286 527.127 c 1
 180.954 470.624 163.788 399.815 163.788 314.703 c 0
 163.788 273.936 168.795 236.027 178.809 201.695 c 0
 188.821 166.65 203.842 136.609 225.3 111.576 c 0
 273.219 53.6426 337.591 25.0332 417.696 25.0332 c 0
 429.855 25.0332 443.444 26.4639 457.035 28.6094 c 0
 470.624 30.7549 484.213 33.6162 496.372 36.4766 c 0
 534.995 45.0596 553.592 60.7949 553.592 82.252 c 2
 553.592 243.181 l 2
 553.592 278.941 548.585 303.976 537.857 316.133 c 1
 509.963 326.863 l 2
 500.664 329.724 487.075 331.153 468.479 331.153 c 1
 468.479 348.319 l 1
 718.095 348.319 l 1
 718.095 331.153 l 1
EndSplineSet
Fore
SplineSet
456 666 m 0
 540 666 610 631 633 631 c 0
 659 631 677 642 693 666 c 1
 707 662 l 1
 659 464 l 1
 642 469 l 1
 637 507 617 631 463 631 c 0
 397 631 335 605 290 558 c 0
 211 475 163 347 163 224 c 0
 163 92 234 19 365 19 c 0
 409 19 447 31 469 53 c 0
 480 64 483 73 505 145 c 0
 527 220 535 248 535 270 c 0
 535 287 519 297 485 300 c 0
 480 300 469 302 456 303 c 1
 456 319 l 1
 722 319 l 1
 722 303 l 1
 658 299 642 287 625 231 c 2
 576 44 l 1
 499 1 428 -18 338 -18 c 0
 252 -18 179 9 127 60 c 0
 81 108 53 179 53 246 c 0
 53 466 245 666 456 666 c 0
EndSplineSet
EndChar

StartChar: H
Encoding: 72 72 40
Width: 720
Flags: W
HStem: 0 16<172.077 237 354 424.775 553.856 628> 327 41<248 521> 637 16<130 202.197 332.317 403 520 585.648>
LayerCount: 2
Back
SplineSet
722.387 0 m 1
 444.161 0 l 1
 444.161 19.3115 l 1
 480.638 19.3115 506.386 27.1787 519.975 42.1992 c 0
 527.844 52.9277 531.419 79.3906 531.419 120.159 c 2
 531.419 314.703 l 1
 226.729 314.703 l 1
 226.729 108.716 l 2
 226.729 75.8145 232.45 52.9277 243.181 39.3379 c 0
 246.041 36.4766 255.338 31.4707 271.074 25.0332 c 1
 316.133 19.3115 l 1
 316.133 0 l 1
 36.4766 0 l 1
 36.4766 19.3115 l 1
 73.6689 19.3115 99.418 27.1787 113.007 42.1992 c 0
 121.59 54.3574 125.881 80.1064 125.881 120.159 c 2
 125.881 555.021 l 2
 125.881 591.499 120.875 614.387 110.146 625.115 c 0
 103.709 631.552 94.4111 636.559 82.252 640.135 c 1
 36.4766 645.856 l 1
 36.4766 663.737 l 1
 316.133 663.737 l 1
 316.133 645.856 l 1
 297.537 645.856 283.232 644.426 271.789 642.281 c 0
 260.345 640.135 251.763 635.129 244.61 628.69 c 0
 237.457 621.538 233.167 612.241 231.021 600.797 c 0
 228.16 588.637 226.729 573.618 226.729 555.021 c 2
 226.729 360.479 l 1
 531.419 360.479 l 1
 531.419 555.021 l 2
 531.419 605.088 517.114 632.982 487.79 640.135 c 1
 444.161 645.856 l 1
 444.161 663.737 l 1
 722.387 663.737 l 1
 722.387 645.856 l 1
 687.34 645.856 663.737 639.419 651.578 627.261 c 0
 640.135 614.387 634.412 590.068 634.412 555.021 c 2
 634.412 108.716 l 2
 634.412 74.3848 640.135 50.7812 652.293 37.9072 c 0
 664.452 25.0332 688.056 19.3115 722.387 19.3115 c 1
 722.387 0 l 1
EndSplineSet
Fore
SplineSet
768 653 m 1
 768 637 l 1
 710 627 702 621 686 562 c 2
 554 82 l 2
 551 75 549 67 549 59 c 0
 549 29 564 22 628 16 c 1
 628 0 l 1
 354 0 l 1
 354 16 l 1
 420 23 439 38 456 89 c 2
 521 327 l 1
 236 327 l 1
 170 82 l 2
 168 75 167 67 167 60 c 0
 167 31 179 23 237 16 c 1
 237 0 l 1
 -7 0 l 1
 -7 16 l 1
 48 26 56 32 73 89 c 2
 196 532 l 2
 204 557 207 580 207 595 c 0
 207 623 192 631 130 637 c 1
 130 653 l 1
 403 653 l 1
 403 637 l 1
 343 633 316 614 302 562 c 2
 248 368 l 1
 533 368 l 1
 579 532 l 2
 586 557 590 580 590 595 c 0
 590 623 579 630 520 637 c 1
 520 653 l 1
 768 653 l 1
EndSplineSet
EndChar

StartChar: I
Encoding: 73 73 41
Width: 332
Flags: MW
HStem: 0 16<171.824 236> 637 16<138 202.477>
LayerCount: 2
Back
SplineSet
332.584 0 m 1
 36.4766 0 l 1
 36.4766 19.3115 l 1
 74.3848 19.3115 100.133 24.3184 113.007 35.7617 c 0
 125.166 47.2051 131.604 71.5234 131.604 108.716 c 2
 131.604 553.592 l 2
 131.604 587.208 126.597 610.81 117.299 625.115 c 1
 101.563 637.989 74.3848 644.426 36.4766 644.426 c 1
 36.4766 662.307 l 1
 332.584 662.307 l 1
 332.584 644.426 l 1
 298.252 644.426 273.219 639.419 256.055 628.69 c 1
 242.464 615.816 236.027 590.783 236.027 553.592 c 2
 236.027 108.716 l 2
 236.027 71.5234 242.464 47.2051 255.338 35.7617 c 0
 268.929 24.3184 294.677 19.3115 332.584 19.3115 c 1
 332.584 0 l 1
EndSplineSet
Fore
SplineSet
-7 0 m 1
 -7 16 l 1
 48 26 56 32 73 89 c 2
 196 532 l 2
 204 557 207 580 207 595 c 0
 207 623 195 630 138 637 c 1
 138 653 l 1
 384 653 l 1
 384 637 l 1
 327 627 319 621 302 562 c 2
 179 120 l 2
 170 88 168 76 168 57 c 0
 168 29 179 23 236 16 c 1
 236 0 l 1
 -7 0 l 1
EndSplineSet
EndChar

StartChar: J
Encoding: 74 74 42
Width: 443
Flags: MW
HStem: -18 31<88.7141 157.766> 637 16<237 308.595>
VStem: -6 92<15.8291 90.8417 65.3846 116.062>
LayerCount: 2
Back
SplineSet
376.213 644.426 m 1
 324.717 644.426 295.392 630.122 288.239 600.797 c 0
 285.378 588.637 283.948 573.618 283.948 555.021 c 2
 283.948 183.1 l 2
 283.948 124.451 271.074 77.9609 244.61 42.1992 c 1
 214.569 6.4375 171.657 -11.4434 115.868 -11.4434 c 0
 90.1191 -11.4434 68.6621 -7.15234 50.0664 2.86133 c 0
 26.4639 16.4502 14.3047 35.0469 14.3047 58.6494 c 0
 14.3047 70.0928 19.3115 81.5371 29.3242 92.2656 c 0
 39.3379 102.994 50.0664 108.716 61.5098 108.716 c 0
 80.8213 108.716 95.126 100.848 103.709 86.543 c 1
 120.159 45.0596 l 2
 125.881 30.7549 133.033 23.6025 142.332 23.6025 c 0
 168.795 23.6025 181.669 45.7754 181.669 90.835 c 2
 181.669 555.021 l 2
 181.669 592.214 175.232 616.531 162.358 627.976 c 0
 150.199 638.704 125.166 644.426 87.9736 644.426 c 1
 87.9736 663.737 l 1
 376.213 663.737 l 1
 376.213 644.426 l 1
EndSplineSet
Fore
SplineSet
491 653 m 1
 491 637 l 1
 434 628 428 623 409 562 c 2
 306 192 l 2
 286 116 265 70 237 40 c 0
 207 1 163 -18 111 -18 c 0
 41 -18 -6 18 -6 70 c 0
 -6 103 13 125 40 125 c 0
 64 125 88 103 88 78 c 0
 88 58 86 68 86 53 c 0
 86 26 98 13 122 13 c 0
 146 13 160 28 171 67 c 2
 302 532 l 2
 311 560 313 582 313 596 c 0
 313 623 300 631 237 637 c 1
 237 653 l 1
 491 653 l 1
EndSplineSet
EndChar

StartChar: K
Encoding: 75 75 43
Width: 666
Flags: W
HStem: 0 16<187.01 255 343 357.708 357.708 415.817 545.285 618> 637 16<146 218.197 350.516 419 499 513.231 513.231 560.993>
LayerCount: 2
Back
SplineSet
742.413 0 m 1
 437.724 0 l 1
 437.724 19.3115 l 1
 482.068 19.3115 505.671 27.1787 508.531 43.6289 c 1
 508.531 69.3779 464.902 125.166 377.643 212.426 c 2
 269.644 317.564 l 1
 244.61 296.106 l 1
 244.61 108.716 l 2
 244.61 75.0996 250.331 51.4971 261.062 37.9072 c 1
 286.81 23.6025 l 1
 298.969 20.7422 314.703 19.3115 334.014 19.3115 c 1
 334.014 0 l 1
 52.9277 0 l 1
 52.9277 19.3115 l 1
 87.9736 19.3115 113.723 27.1787 130.173 43.6289 c 0
 138.04 52.9277 142.332 77.9609 142.332 120.159 c 2
 142.332 553.592 l 2
 142.332 588.637 135.895 612.956 123.735 625.115 c 0
 111.576 637.989 87.9736 644.426 52.9277 644.426 c 1
 52.9277 663.737 l 1
 336.875 663.737 l 1
 336.875 644.426 l 1
 306.836 644.426 281.803 637.989 262.49 625.115 c 1
 250.331 613.671 244.61 590.068 244.61 553.592 c 2
 244.61 349.75 l 1
 356.187 449.883 l 1
 457.035 543.578 l 2
 486.359 571.473 500.664 594.36 500.664 612.241 c 0
 500.664 633.697 477.776 644.426 432.002 644.426 c 1
 432.002 663.737 l 1
 694.492 663.737 l 1
 694.492 644.426 l 1
 678.758 644.426 665.169 642.281 653.01 638.704 c 2
 622.254 630.122 l 1
 600.797 619.394 574.333 597.936 542.147 565.75 c 2
 351.895 377.643 l 1
 635.844 74.3848 l 1
 668.029 45.0596 l 1
 690.2 27.8945 715.234 19.3115 742.413 19.3115 c 1
 742.413 0 l 1
EndSplineSet
Fore
SplineSet
722 653 m 1
 722 637 l 1
 699 633 675 623 647 601 c 2
 347 375 l 1
 521 72 l 2
 549 25 555 22 618 16 c 1
 618 0 l 1
 343 0 l 1
 343 16 l 1
 356 18 368 19 372 19 c 0
 404 22 417 29 417 45 c 0
 417 64 404 100 379 141 c 2
 259 349 l 1
 190 100 l 2
 185 79 183 70 183 60 c 0
 183 29 192 23 255 16 c 1
 255 0 l 1
 7 0 l 1
 7 16 l 1
 66 25 70 29 89 89 c 2
 212 532 l 2
 220 557 223 580 223 595 c 0
 223 623 208 631 146 637 c 1
 146 653 l 1
 419 653 l 1
 419 637 l 1
 360 633 333 612 318 562 c 2
 265 369 l 1
 417 475 l 2
 505 538 561 590 561 615 c 0
 561 625 551 631 527 634 c 0
 523 634 513 636 499 637 c 1
 499 653 l 1
 722 653 l 1
EndSplineSet
EndChar

StartChar: L
Encoding: 76 76 44
Width: 555
Flags: W
HStem: 0 37<170.353 431.058> 637 16<130 202.197 332.317 403>
LayerCount: 2
Back
SplineSet
631.552 174.518 m 1
 582.916 0 l 1
 42.1992 0 l 1
 42.1992 19.3115 l 1
 76.5303 19.3115 99.418 25.0332 111.576 37.9072 c 0
 123.021 50.7812 128.742 74.3848 128.742 108.716 c 2
 128.742 555.021 l 2
 128.742 594.36 122.305 618.678 110.146 628.69 c 1
 83.6826 638.704 l 1
 42.1992 644.426 l 1
 42.1992 663.737 l 1
 326.863 663.737 l 1
 326.863 644.426 l 1
 279.656 640.135 l 1
 253.193 628.69 l 1
 239.604 616.531 233.167 592.214 233.167 555.021 c 2
 233.167 80.8213 l 2
 233.167 63.6562 237.457 52.9277 247.471 47.2051 c 0
 252.478 42.9141 263.922 40.7686 282.518 39.3379 c 0
 285.378 38.623 291.816 37.9072 301.829 37.9072 c 2
 332.584 37.9072 l 2
 421.273 37.9072 478.491 44.3447 504.24 57.2188 c 0
 543.578 75.8145 577.909 114.438 605.088 174.518 c 1
 631.552 174.518 l 1
EndSplineSet
Fore
SplineSet
270 37 m 0
 426 37 474 52 539 185 c 1
 560 179 l 1
 501 0 l 1
 -7 0 l 1
 -7 16 l 1
 48 26 56 32 73 89 c 2
 196 532 l 2
 204 557 207 580 207 595 c 0
 207 623 192 631 130 637 c 1
 130 653 l 1
 403 653 l 1
 403 637 l 1
 343 633 316 614 302 562 c 2
 179 120 l 2
 174 101 168 78 168 70 c 0
 168 44 193 37 270 37 c 0
EndSplineSet
EndChar

StartChar: M
Encoding: 77 77 45
Width: 832
Flags: W
HStem: 0 16<-18 33.2029 115.101 180 461 531.275 661.476 734> 541 20G<677.524 685.511> 637 16<133 203.594>
LayerCount: 2
Back
SplineSet
880.453 0 m 1
 600.797 0 l 1
 600.797 19.3115 l 1
 638.704 19.3115 663.737 26.4639 676.611 40.7686 c 1
 686.625 55.7881 691.632 82.252 691.632 120.159 c 2
 691.632 568.612 l 1
 436.294 0 l 1
 421.988 0 l 1
 171.657 546.439 l 1
 170.226 146.624 l 1
 170.226 100.848 174.518 69.3779 183.1 52.9277 c 0
 195.975 30.04 223.153 19.3115 265.352 19.3115 c 1
 265.352 0 l 1
 29.3242 0 l 1
 29.3242 19.3115 l 1
 72.9541 19.3115 100.848 30.04 111.576 52.9277 c 0
 120.875 68.6621 125.881 99.418 125.881 146.624 c 2
 125.881 552.161 l 2
 125.881 590.068 119.444 614.387 105.14 625.115 c 0
 101.563 629.407 92.9805 632.982 79.3906 637.274 c 1
 32.1855 642.996 l 1
 32.1855 662.307 l 1
 228.16 662.307 l 1
 459.896 156.637 l 1
 680.903 662.307 l 1
 880.453 662.307 l 1
 880.453 642.996 l 1
 846.123 642.996 823.235 636.559 811.791 622.969 c 0
 799.632 610.095 793.91 586.493 793.91 552.161 c 2
 793.91 108.716 l 2
 793.91 60.7949 808.215 32.1855 837.539 23.6025 c 1
 880.453 19.3115 l 1
 880.453 0 l 1
EndSplineSet
Fore
SplineSet
873 653 m 1
 873 637 l 1
 814 628 809 623 791 562 c 2
 668 120 l 2
 659 89 658 76 658 59 c 0
 658 28 666 22 734 16 c 1
 734 0 l 1
 461 0 l 1
 461 16 l 1
 526 23 546 38 562 91 c 2
 691 561 l 1
 313 0 l 1
 297 0 l 1
 236 546 l 1
 119 113 l 2
 113 97 108 70 108 60 c 0
 108 32 129 21 180 16 c 1
 180 0 l 1
 -18 0 l 1
 -18 16 l 1
 34 22 48 42 81 146 c 2
 186 519 l 2
 187 521 208 589 208 601 c 0
 208 623 185 634 133 637 c 1
 133 653 l 1
 315 653 l 1
 371 160 l 1
 706 653 l 1
 873 653 l 1
EndSplineSet
EndChar

StartChar: N
Encoding: 78 78 46
Width: 666
Flags: W
HStem: 0 16<-21 31.7162 113.994 179> 637 16<116 179.711 527 591.23>
LayerCount: 2
Back
SplineSet
728.108 644.426 m 1
 688.771 644.426 662.307 632.268 647.288 607.949 c 0
 636.559 588.637 631.552 557.882 631.552 515.685 c 2
 631.552 -8.58301 l 1
 615.102 -8.58301 l 1
 173.087 539.287 l 1
 171.657 148.053 l 1
 171.657 100.848 175.947 69.3779 184.531 52.9277 c 0
 197.405 30.04 224.583 19.3115 266.782 19.3115 c 1
 266.782 0 l 1
 29.3242 0 l 1
 29.3242 19.3115 l 1
 72.2383 19.3115 100.133 30.04 113.007 52.9277 c 0
 122.305 68.6621 127.312 100.133 127.312 148.053 c 2
 127.312 590.068 l 1
 100.133 626.545 67.2324 644.426 29.3242 644.426 c 1
 29.3242 663.737 l 1
 202.412 663.737 l 1
 585.776 181.669 l 1
 588.638 515.685 l 1
 588.638 563.605 583.632 595.075 574.333 610.81 c 0
 560.743 632.982 532.851 644.426 490.65 644.426 c 1
 490.65 663.737 l 1
 728.108 663.737 l 1
 728.108 644.426 l 1
EndSplineSet
Fore
SplineSet
587 535 m 2
 589 542 598 560 598 586 c 0
 598 623 584 631 527 637 c 1
 527 653 l 1
 727 653 l 1
 727 637 l 1
 664 623 661 617 623 488 c 2
 479 -15 l 1
 461 -15 l 1
 231 535 l 1
 117 113 l 2
 111 92 108 72 108 59 c 0
 108 31 127 21 179 16 c 1
 179 0 l 1
 -21 0 l 1
 -21 16 l 1
 37 23 45 37 83 164 c 2
 202 582 l 1
 185 620 163 633 116 637 c 1
 116 653 l 1
 277 653 l 1
 485 154 l 1
 587 535 l 2
EndSplineSet
EndChar

StartChar: O
Encoding: 79 79 47
Width: 720
Flags: W
HStem: -18 33<221.738 376.934> 633 33<379.701 536.032>
VStem: 60 106<113.174 314.935> 595 104<343.965 532.771>
LayerCount: 2
Back
SplineSet
707.366 329.724 m 0
 707.366 231.021 678.043 148.768 617.963 83.6826 c 0
 558.599 20.0264 479.206 -11.4434 380.505 -11.4434 c 0
 282.518 -11.4434 203.127 20.0264 143.762 83.6826 c 0
 82.9668 148.768 52.9277 231.021 52.9277 329.724 c 0
 52.9277 428.425 82.9668 510.678 143.762 577.194 c 0
 203.127 642.281 282.518 675.182 380.505 675.182 c 0
 480.638 675.182 559.313 642.281 617.963 577.194 c 0
 678.043 513.538 707.366 431.287 707.366 329.724 c 0
592.929 331.153 m 0
 592.929 411.975 578.625 480.638 549.3 536.426 c 1
 509.246 605.803 453.458 640.135 380.505 640.135 c 0
 305.405 640.135 249.616 605.803 212.426 537.857 c 0
 182.385 484.213 166.65 414.836 166.65 331.153 c 0
 166.65 248.901 182.385 180.954 212.426 125.881 c 0
 249.616 55.7881 305.405 20.7422 380.505 20.7422 c 0
 454.89 20.7422 511.393 55.7881 549.3 125.881 c 0
 578.625 181.669 592.929 250.331 592.929 331.153 c 0
EndSplineSet
Fore
SplineSet
60 221 m 0
 60 444 277 666 475 666 c 0
 608 666 706 560 699 417 c 0
 688 192 486 -18 278 -18 c 0
 151 -18 60 81 60 221 c 0
464 633 m 0
 264 633 166 307 166 185 c 0
 166 76 211 15 294 15 c 0
 365 15 428 54 482 133 c 0
 546 227 595 374 595 480 c 0
 595 576 543 633 464 633 c 0
EndSplineSet
EndChar

StartChar: P
Encoding: 80 80 48
Width: 610
Flags: W
HStem: 0 16<0 60.5119 180.487 245> 305 36<268.847 421.286> 623 30<324.197 458.648> 637 16<146 211.671>
VStem: 502 103<419.136 581.415>
LayerCount: 2
Back
SplineSet
560.743 483.498 m 0
 560.743 414.836 530.704 364.054 469.909 329.724 c 0
 447.021 316.133 419.843 306.12 389.803 299.684 c 0
 359.048 293.246 325.432 290.385 286.81 290.385 c 2
 262.49 290.385 l 1
 219.576 293.246 l 1
 219.576 108.716 l 2
 219.576 72.9541 226.729 49.3516 241.034 37.1924 c 0
 255.338 25.0332 279.656 19.3115 314.703 19.3115 c 1
 314.703 0 l 1
 33.6162 0 l 1
 33.6162 19.3115 l 1
 68.6621 19.3115 92.9805 27.1787 105.14 42.1992 c 0
 114.438 56.5039 118.729 82.252 118.729 120.159 c 2
 118.729 555.021 l 2
 118.729 590.068 113.007 613.671 101.563 626.545 c 0
 90.835 638.704 67.9473 644.426 33.6162 644.426 c 1
 33.6162 663.737 l 1
 298.969 663.737 l 2
 334.014 663.737 366.2 660.162 394.809 653.725 c 0
 423.418 648.003 449.883 638.704 473.485 627.261 c 0
 531.419 596.506 560.743 548.585 560.743 483.498 c 0
452.743 482.068 m 0
 452.743 578.625 388.373 627.261 261.062 627.261 c 0
 243.896 627.261 233.167 625.115 227.444 620.823 c 0
 222.438 617.248 219.576 607.949 219.576 592.929 c 2
 219.576 332.584 l 1
 224.583 332.584 229.59 332.584 235.312 331.868 c 0
 250.331 329.724 l 2
 279.656 329.724 l 2
 394.809 329.724 452.743 380.505 452.743 482.068 c 0
EndSplineSet
Fore
SplineSet
605 504 m 0xe8
 605 434 562 305 334 305 c 0
 293 305 267 308 242 313 c 1
 189 120 l 2
 179 83 177 75 177 62 c 0
 177 28 182 25 245 16 c 1
 245 0 l 1
 0 0 l 1
 0 16 l 1
 57 23 64 29 82 89 c 2
 201 516 l 2
 212 560 217 582 217 595 c 0
 217 621 204 630 146 637 c 1
 146 653 l 1xd8
 394 653 l 2
 530 653 605 601 605 504 c 0xe8
303 341 m 0
 415 341 502 374 502 504 c 0
 502 551 491 582 464 599 c 0
 445 612 407 623 368 623 c 0xe8
 340 623 328 617 322 595 c 2
 250 347 l 1
 278 343 286 341 303 341 c 0
EndSplineSet
EndChar

StartChar: Q
Encoding: 81 81 49
Width: 720
Flags: MW
HStem: -183 67<367.352 527.056> -138 65<226 241.508 191.123 288.644> -12 30<236 293> 633 33<379.534 536.717>
VStem: 60 106<109.38 316.452> 595 104<337.183 537.177>
LayerCount: 2
Back
SplineSet
670.89 -159.498 m 1
 628.69 -160.928 l 2
 487.79 -165.934 384.081 -128.027 316.133 -47.2051 c 1
 282.518 0 l 1
 249.616 7.86719 217.432 22.1719 187.392 42.9141 c 0
 157.352 64.3711 131.604 90.835 111.576 123.021 c 0
 72.2383 183.814 52.9277 252.478 52.9277 329.724 c 0
 52.9277 429.855 82.252 512.107 142.332 575.763 c 0
 202.412 642.281 281.803 675.182 379.074 675.182 c 0
 479.206 675.182 557.882 642.281 616.531 575.763 c 1
 675.896 512.823 705.937 431.287 705.937 329.724 c 0
 705.937 228.875 675.896 146.624 616.531 83.6826 c 0
 592.214 57.9336 562.174 37.9072 526.412 23.6025 c 0
 490.65 8.58301 457.75 -0.714844 426.28 -4.29102 c 1
 451.312 -40.7686 l 1
 492.082 -79.3906 l 1
 542.862 -120.875 602.228 -142.332 670.89 -142.332 c 1
 670.89 -159.498 l 1
591.499 329.724 m 0
 591.499 410.544 577.194 479.206 547.869 534.995 c 0
 510.678 603.657 454.89 638.704 379.074 638.704 c 0
 303.259 638.704 246.756 603.657 210.994 534.995 c 0
 195.26 506.386 183.814 475.631 177.379 441.301 c 0
 170.226 407.684 166.65 370.492 166.65 329.724 c 0
 166.65 286.81 170.226 248.187 177.379 214.569 c 0
 183.814 180.954 195.26 150.914 210.994 124.451 c 0
 246.756 56.5039 303.259 22.1719 379.074 22.1719 c 0
 454.89 22.1719 509.963 56.5039 546.439 125.881 c 0
 576.479 183.814 591.499 251.763 591.499 329.724 c 0
EndSplineSet
Fore
SplineSet
60 221 m 0x5c
 60 448 283 666 470 666 c 0
 603 666 699 568 699 434 c 0
 699 275 598 113 450 29 c 0
 394 -1 356 -12 278 -16 c 1
 226 -73 l 1x5c
 253 -73 251 -72 256 -72 c 0
 290 -72 438 -116 483 -116 c 0
 557 -116 598 -97 653 -38 c 1
 668 -48 l 1
 642 -85 628 -100 605 -117 c 0
 554 -157 483 -183 429 -183 c 0x9c
 341 -183 234 -138 185 -138 c 0
 145 -138 107 -148 69 -168 c 1
 59 -154 l 1
 136 -100 145 -92 236 -12 c 1
 192 -1 170 7 144 29 c 0
 89 70 60 139 60 221 c 0x5c
464 633 m 0
 266 633 166 313 166 183 c 0
 166 78 212 18 293 18 c 0
 366 18 428 56 483 135 c 0
 546 227 595 374 595 480 c 0
 595 576 545 633 464 633 c 0
EndSplineSet
EndChar

StartChar: R
Encoding: 82 82 50
Width: 610
Flags: W
HStem: 0 16<166.921 231 512.014 567> 330 36<243 268.917> 623 30<309.975 443.059> 637 16<132 188.535>
VStem: 483 104<430.19 583.041>
LayerCount: 2
Back
SplineSet
680.903 0 m 1
 519.975 0 l 1
 281.088 308.982 l 1
 225.3 306.12 l 1
 225.3 108.716 l 2
 225.3 74.3848 231.735 50.7812 244.61 37.9072 c 0
 257.484 25.0332 281.088 19.3115 314.703 19.3115 c 1
 314.703 0 l 1
 37.9072 0 l 1
 37.9072 19.3115 l 1
 72.9541 19.3115 97.2715 27.1787 110.146 42.1992 c 0
 118.014 52.9277 121.59 79.3906 121.59 120.159 c 2
 121.59 555.021 l 2
 121.59 591.499 117.299 614.387 108.716 623.684 c 0
 94.4111 637.989 71.5234 644.426 37.9072 644.426 c 1
 37.9072 663.737 l 1
 313.272 663.737 l 2
 484.213 663.737 570.042 605.803 570.042 489.22 c 0
 570.042 400.532 508.531 344.027 386.941 318.994 c 1
 592.929 65.8018 l 2
 618.678 34.3311 648.003 19.3115 680.903 19.3115 c 1
 680.903 0 l 1
459.896 490.65 m 0
 459.896 581.486 402.677 627.261 286.81 627.261 c 0
 263.922 627.261 248.901 625.83 243.181 623.684 c 0
 231.735 620.108 225.3 608.664 225.3 590.068 c 2
 225.3 344.027 l 1
 257.484 344.027 286.093 346.173 310.412 349.034 c 0
 334.73 352.611 356.187 357.618 374.782 364.769 c 0
 431.287 385.512 459.896 426.995 459.896 490.65 c 0
EndSplineSet
Fore
SplineSet
587 508 m 0xe8
 587 368 430 342 391 333 c 1
 483 88 l 2
 502 37 523 19 567 16 c 1
 567 0 l 1
 419 0 l 1
 296 324 l 1
 231 330 l 1
 174 120 l 2
 166 85 163 72 163 62 c 0
 163 29 170 23 231 16 c 1
 231 0 l 1
 -13 0 l 1
 -13 16 l 1
 42 25 50 31 67 89 c 2
 190 532 l 2
 198 560 204 583 204 595 c 0
 204 606 196 618 189 623 c 0xe8
 179 630 174 631 132 637 c 1
 132 653 l 1xd8
 379 653 l 2
 514 653 587 602 587 508 c 0xe8
308 595 m 2
 243 366 l 1
 267 362 278 360 294 360 c 0
 419 360 483 412 483 511 c 0
 483 584 442 623 359 623 c 0
 327 623 313 617 308 595 c 2
EndSplineSet
EndChar

StartChar: S
Encoding: 83 83 51
Width: 499
Flags: MW
HStem: -18 36<141.583 286.926> 633 33<257.391 400.879>
VStem: 51 19<184.348 207> 130 90<462.086 582.471> 220 124<149 532> 344 87<90.6583 222.377>
LayerCount: 2
Back
SplineSet
512.823 166.65 m 0
 512.823 114.438 489.936 70.0928 445.591 33.6162 c 1
 403.393 3.57617 355.472 -11.4434 301.829 -11.4434 c 0
 280.371 -11.4434 251.763 -7.15234 216.716 2.86133 c 0
 199.55 8.58301 184.531 12.874 173.087 15.7354 c 0
 160.928 17.8809 151.63 19.3115 145.192 19.3115 c 0
 125.166 19.3115 115.868 9.29785 115.868 -10.0137 c 1
 92.2656 -10.0137 l 1
 62.9404 197.405 l 1
 85.1133 197.405 l 1
 134.464 79.3906 203.842 20.7422 291.816 20.7422 c 0
 324.001 20.7422 351.895 31.4707 375.499 52.9277 c 0
 399.815 74.3848 411.26 100.848 411.26 133.033 c 0
 411.26 171.657 393.379 207.419 356.187 241.749 c 0
 348.319 248.187 335.445 257.484 317.564 268.929 c 0
 300.398 280.371 277.511 293.246 248.901 308.982 c 0
 222.438 324.717 200.98 338.306 183.1 350.465 c 0
 165.219 363.339 151.63 374.782 140.901 385.512 c 0
 108.716 419.128 92.2656 459.181 92.2656 505.671 c 0
 92.2656 557.167 109.431 598.65 143.047 629.407 c 0
 176.662 660.162 219.576 675.182 272.504 675.182 c 0
 288.955 675.182 316.85 669.459 356.187 658.016 c 2
 413.406 641.564 l 1
 429.855 641.564 440.584 653.01 447.021 675.182 c 1
 468.479 675.182 l 1
 489.22 462.757 l 1
 465.617 462.757 l 1
 454.89 509.963 434.147 550.015 402.677 582.916 c 1
 366.915 617.248 325.432 634.412 279.656 634.412 c 0
 251.763 634.412 227.444 625.83 208.134 608.664 c 0
 188.821 591.499 178.809 568.612 178.809 540.718 c 0
 178.809 499.233 207.419 460.61 265.352 423.418 c 2
 426.28 321.14 l 2
 484.213 283.948 512.823 232.45 512.823 166.65 c 0
EndSplineSet
Fore
SplineSet
309 666 m 0
 382 666 405 642 439 642 c 0
 461 642 472 646 485 666 c 1
 508 666 l 1
 469 469 l 1
 450 472 l 1
 448 538 439 571 417 596 c 0
 397 620 366 633 330 633 c 0
 261 633 220 595 220 532 c 0
 220 482 229 469 318 376 c 0
 409 286 431 248 431 182 c 0
 431 69 344 -18 229 -18 c 0
 155 -18 110 18 73 18 c 0
 53 18 42 7 35 -15 c 1
 18 -15 l 1
 51 208 l 1
 70 207 l 1
 70 199 69 190 69 183 c 0
 69 88 132 18 215 18 c 0
 289 18 344 75 344 149 c 0
 344 193 331 220 284 268 c 2
 207 352 l 2
 146 416 130 445 130 499 c 0
 130 598 205 666 309 666 c 0
EndSplineSet
EndChar

StartChar: T
Encoding: 84 84 52
Width: 555
Flags: W
HStem: 0 16<64 139.271 268.181 334.815 334.815 354> 618 35<155.872 315 416 553.732>
LayerCount: 2
Back
SplineSet
612.241 493.512 m 1
 587.208 493.512 l 1
 578.625 545.725 562.889 579.34 540.718 596.506 c 0
 519.975 613.671 482.783 622.254 429.141 622.254 c 2
 374.782 622.254 l 1
 374.782 108.716 l 2
 374.782 72.9541 381.935 49.3516 394.809 37.1924 c 0
 407.684 25.0332 433.432 19.3115 469.909 19.3115 c 1
 469.909 0 l 1
 177.379 0 l 1
 177.379 19.3115 l 1
 218.146 19.3115 245.324 27.1787 258.915 42.1992 c 0
 268.212 52.9277 272.504 79.3906 272.504 120.159 c 2
 272.504 622.254 l 1
 218.146 622.254 l 2
 165.219 622.254 128.742 614.387 107.285 597.936 c 0
 86.543 580.77 70.0928 546.439 58.6494 493.512 c 1
 35.0469 493.512 l 1
 40.7686 663.737 l 1
 606.518 663.737 l 1
 612.241 493.512 l 1
EndSplineSet
Fore
SplineSet
633 653 m 1
 589 491 l 1
 573 492 l 1
 574 508 576 524 576 538 c 0
 576 593 543 618 472 618 c 2
 416 618 l 1
 277 120 l 2
 268 86 265 75 265 62 c 0
 265 31 277 22 316 19 c 0
 324 19 338 18 354 16 c 1
 354 0 l 1
 64 0 l 1
 64 16 l 1
 130 21 155 37 171 89 c 2
 315 618 l 1
 163 620 130 603 78 495 c 1
 59 499 l 1
 101 653 l 1
 633 653 l 1
EndSplineSet
EndChar

StartChar: U
Encoding: 85 85 53
Width: 720
Flags: W
HStem: -18 41<246.566 420.33> 637 16<127 201.218 329.375 400 565 628.966>
VStem: 103 89<75.7128 252.391>
LayerCount: 2
Back
SplineSet
735.261 644.426 m 1
 690.2 639.419 663.022 627.976 653.01 609.38 c 0
 645.142 595.79 641.564 564.32 641.564 515.685 c 2
 641.564 254.623 l 2
 641.564 182.385 630.837 128.027 609.38 90.835 c 0
 570.042 22.1719 494.227 -11.4434 380.505 -11.4434 c 0
 216.001 -11.4434 133.033 72.9541 133.033 241.749 c 2
 133.033 555.021 l 2
 133.033 590.068 126.597 613.671 114.438 626.545 c 0
 101.563 638.704 77.9609 644.426 42.1992 644.426 c 1
 42.1992 663.737 l 1
 326.863 663.737 l 1
 326.863 644.426 l 1
 289.67 644.426 264.637 638.704 252.478 627.976 c 0
 240.318 616.531 234.597 592.214 234.597 555.021 c 2
 234.597 233.167 l 2
 234.597 97.2715 293.246 29.3242 409.829 29.3242 c 0
 487.075 29.3242 542.147 55.7881 574.333 108.716 c 0
 590.068 133.033 597.936 178.094 597.936 244.61 c 2
 597.936 515.685 l 2
 597.936 561.459 592.929 592.214 582.916 607.949 c 0
 570.042 632.268 543.578 644.426 502.094 644.426 c 1
 502.094 663.737 l 1
 735.261 663.737 l 1
 735.261 644.426 l 1
EndSplineSet
Fore
SplineSet
637 590 m 0
 637 631 594 634 565 637 c 1
 565 653 l 1
 765 653 l 1
 765 637 l 1
 703 623 699 618 661 488 c 2
 579 204 l 2
 535 53 451 -18 319 -18 c 0
 193 -18 103 51 103 146 c 0
 103 187 116 250 145 359 c 2
 198 551 l 2
 202 568 205 584 205 596 c 0
 205 625 193 631 127 637 c 1
 127 653 l 1
 400 653 l 1
 400 637 l 1
 333 630 314 618 294 546 c 0
 290 532 192 200 192 141 c 0
 192 70 249 23 333 23 c 0
 504 23 541 224 549 255 c 0
 555 274 560 291 562 305 c 2
 611 473 637 576 637 590 c 0
EndSplineSet
EndChar

StartChar: V
Encoding: 86 86 54
Width: 610
Flags: W
HStem: -18 21G<236.731 271.078> 637 16<76 127.3 247.436 316 502 561.792 645.089 688>
LayerCount: 2
Back
SplineSet
697.354 645.856 m 1
 683.765 645.856 673.036 643.711 666.599 640.135 c 2
 644.426 627.261 l 1
 637.989 620.108 631.552 610.095 625.115 597.936 c 2
 603.657 552.161 l 1
 382.649 -8.58301 l 1
 367.631 -8.58301 l 1
 118.729 540.718 l 1
 100.133 583.632 83.6826 612.241 68.6621 627.261 c 1
 52.9277 637.274 l 2
 40.7686 642.996 27.8945 645.856 12.874 645.856 c 1
 12.874 663.737 l 1
 279.656 663.737 l 1
 279.656 645.856 l 1
 250.331 645.856 229.59 642.281 216.716 635.844 c 0
 208.849 633.697 205.272 624.4 205.272 607.949 c 0
 205.272 600.797 219.576 565.75 247.471 500.664 c 2
 396.955 162.358 l 1
 545.008 529.988 l 1
 555.021 550.731 560.743 573.618 563.605 599.367 c 1
 563.605 630.122 539.287 645.856 490.65 645.856 c 1
 490.65 663.737 l 1
 697.354 663.737 l 1
 697.354 645.856 l 1
EndSplineSet
Fore
SplineSet
688 653 m 1
 688 637 l 1
 665 636 649 624 631 598 c 2
 259 -18 l 1
 240 -18 l 1
 155 502 l 2
 133 627 132 630 76 637 c 1
 76 653 l 1
 316 653 l 1
 316 637 l 1
 253 630 240 620 240 586 c 0
 240 580 240 576 242 571 c 1
 308 127 l 1
 513 483 l 2
 546 541 565 584 565 603 c 0
 565 623 546 631 502 637 c 1
 502 653 l 1
 688 653 l 1
EndSplineSet
EndChar

StartChar: W
Encoding: 87 87 55
Width: 832
Flags: W
HStem: -18 21G<209.563 240.758 505.802 537.429> 637 16<70 125.409 241.758 308 368 432.586 546.314 605 721 783.898>
LayerCount: 2
Back
SplineSet
951.977 644.426 m 1
 928.374 639.419 911.925 633.697 901.194 626.545 c 0
 890.467 618.678 881.168 604.373 873.301 582.916 c 2
 764.586 290.385 l 1
 710.228 133.033 l 1
 663.737 -8.58301 l 1
 650.148 -8.58301 l 1
 636.559 32.1855 616.531 87.9736 590.068 157.352 c 0
 563.605 227.444 529.988 312.558 489.22 413.406 c 1
 334.014 -8.58301 l 1
 318.994 -8.58301 l 1
 230.306 248.901 l 1
 125.881 527.127 l 1
 111.576 570.042 100.133 596.506 92.2656 606.518 c 0
 75.8145 628.69 52.2119 641.564 22.1719 644.426 c 1
 22.1719 663.737 l 1
 268.212 663.737 l 1
 268.212 644.426 l 1
 262.49 644.426 256.77 644.426 252.478 643.711 c 0
 248.187 642.996 243.896 642.281 240.318 641.564 c 2
 213.854 632.982 l 2
 205.987 630.122 202.412 622.254 202.412 610.81 c 0
 202.412 603.657 205.987 588.637 213.854 565.75 c 1
 359.048 188.821 l 1
 465.617 473.485 l 1
 433.432 555.021 l 2
 419.843 590.068 408.399 612.956 398.386 622.254 c 0
 384.081 637.274 361.193 644.426 331.153 644.426 c 1
 331.153 663.737 l 1
 599.367 663.737 l 1
 599.367 644.426 l 1
 547.154 644.426 521.406 631.552 521.406 606.518 c 1
 527.127 582.916 l 1
 549.3 528.559 l 1
 680.903 185.961 l 1
 806.784 525.697 l 1
 817.512 557.882 823.235 582.201 823.235 599.367 c 0
 823.235 616.531 816.083 628.69 801.062 635.844 c 2
 782.467 641.564 l 1
 754.572 644.426 l 1
 754.572 663.737 l 1
 951.977 663.737 l 1
 951.977 644.426 l 1
EndSplineSet
Fore
SplineSet
907 653 m 1
 907 637 l 1
 869 625 858 617 831 565 c 2
 527 -18 l 1
 508 -18 l 1
 458 437 l 1
 453 437 l 1
 231 -18 l 1
 212 -18 l 1
 149 499 l 2
 133 630 131 630 70 637 c 1
 70 653 l 1
 308 653 l 1
 308 637 l 1
 246 630 234 621 234 582 c 2
 234 568 l 1
 278 163 l 1
 451 510 l 1
 442 579 l 2
 435 628 425 636 368 637 c 1
 368 653 l 1
 605 653 l 1
 605 637 l 1
 551 631 538 620 538 579 c 2
 538 564 l 1
 579 163 l 1
 765 530 l 2
 778 557 787 582 787 598 c 0
 787 625 775 631 721 637 c 1
 721 653 l 1
 907 653 l 1
EndSplineSet
EndChar

StartChar: X
Encoding: 88 88 56
Width: 610
Flags: W
HStem: 0 16<121.971 185 294 368.25 491.879 567> 637 16<76 144.485 275.359 340 447 505.5>
LayerCount: 2
Back
SplineSet
725.247 0 m 1
 426.28 0 l 1
 426.28 19.3115 l 1
 484.93 26.4639 l 1
 496.372 30.04 502.811 39.3379 504.24 52.9277 c 0
 504.24 67.2324 487.075 99.418 452.743 149.484 c 2
 357.618 290.385 l 1
 237.457 140.901 l 2
 203.127 97.9873 185.961 69.3779 185.961 55.7881 c 0
 185.961 31.4707 211.709 19.3115 262.49 19.3115 c 1
 262.49 0 l 1
 27.8945 0 l 1
 27.8945 19.3115 l 1
 56.5039 22.1719 77.9609 29.3242 92.2656 40.7686 c 1
 130.173 82.252 l 1
 173.087 133.033 l 1
 331.153 326.863 l 1
 221.008 487.79 l 2
 171.657 560.743 135.895 605.803 114.438 620.823 c 0
 106.57 627.976 95.8418 632.982 83.6826 636.559 c 0
 70.8086 640.135 56.5039 642.281 39.3379 644.426 c 1
 39.3379 663.737 l 1
 344.027 663.737 l 1
 344.027 644.426 l 1
 313.987 644.426 297.537 643.711 296.106 642.996 c 0
 278.226 639.419 268.929 629.407 268.212 613.671 c 0
 268.212 592.214 296.106 542.147 353.326 464.188 c 2
 394.094 405.537 l 1
 508.531 543.578 l 1
 537.857 582.916 l 2
 543.578 591.499 547.154 601.513 549.3 612.241 c 0
 549.3 633.697 525.697 644.426 479.206 644.426 c 1
 479.206 663.737 l 1
 715.95 663.737 l 1
 715.95 644.426 l 1
 682.333 644.426 653.01 635.844 630.122 617.963 c 0
 615.102 605.803 594.36 582.916 567.181 550.731 c 1
 421.988 369.061 l 1
 613.671 93.6953 l 2
 645.142 48.6357 682.333 23.6025 725.247 19.3115 c 1
 725.247 0 l 1
EndSplineSet
Fore
SplineSet
655 653 m 1
 655 637 l 1
 612 623 582 601 530 542 c 2
 360 349 l 1
 463 89 l 2
 488 29 497 23 567 16 c 1
 567 0 l 1
 294 0 l 1
 294 16 l 1
 360 21 371 26 371 56 c 0
 371 70 366 86 359 104 c 2
 291 270 l 1
 141 97 l 2
 127 82 120 64 120 50 c 0
 120 25 138 16 185 16 c 1
 185 0 l 1
 -29 0 l 1
 -29 16 l 1
 23 26 53 53 190 215 c 2
 274 313 l 1
 168 576 l 2
 149 623 133 631 76 637 c 1
 76 653 l 1
 340 653 l 1
 340 637 l 1
 286 630 270 621 270 596 c 0
 270 583 272 565 284 541 c 2
 343 393 l 1
 488 560 l 2
 502 576 508 587 508 601 c 0
 508 624 497 631 447 637 c 1
 447 653 l 1
 655 653 l 1
EndSplineSet
EndChar

StartChar: Y
Encoding: 89 89 57
Width: 555
Flags: W
HStem: 0 16<78 151.781 281.85 368> 637 16<260.441 330 444 511.279>
LayerCount: 2
Back
SplineSet
708.798 645.856 m 1
 686.625 642.996 667.313 636.559 651.578 627.261 c 0
 630.122 612.241 602.942 580.055 570.042 529.988 c 2
 421.988 304.69 l 1
 421.988 108.716 l 2
 421.988 74.3848 427.71 50.0664 439.154 36.4766 c 1
 456.319 25.0332 484.93 19.3115 525.697 19.3115 c 1
 525.697 0 l 1
 218.146 0 l 1
 218.146 19.3115 l 1
 261.062 19.3115 290.385 26.4639 306.12 40.7686 c 1
 314.703 52.9277 318.994 79.3906 318.994 120.159 c 2
 318.994 296.106 l 1
 188.821 487.79 l 1
 140.901 556.453 106.57 600.797 85.1133 620.823 c 0
 65.0859 637.989 45.0596 645.856 25.0332 645.856 c 1
 25.0332 663.737 l 1
 306.12 663.737 l 1
 306.12 645.856 l 1
 258.915 645.856 236.027 635.129 236.027 613.671 c 0
 236.027 602.228 241.749 587.922 253.193 571.473 c 2
 399.815 348.319 l 1
 543.578 575.763 l 1
 552.876 586.493 557.882 598.65 557.882 612.241 c 0
 560.028 634.412 537.141 645.856 489.22 645.856 c 1
 489.22 663.737 l 1
 708.798 663.737 l 1
 708.798 645.856 l 1
EndSplineSet
Fore
SplineSet
278 56 m 0
 278 15 316 23 368 16 c 1
 368 0 l 1
 78 0 l 1
 78 16 l 1
 144 21 166 37 183 89 c 2
 245 302 l 1
 167 571 l 2
 149 625 146 628 91 637 c 1
 91 653 l 1
 330 653 l 1
 330 637 l 1
 270 631 258 625 258 601 c 0
 258 578 283 501 325 347 c 1
 340 365 346 374 363 393 c 0
 467 514 513 579 513 606 c 0
 513 631 483 634 444 637 c 1
 444 653 l 1
 633 653 l 1
 633 637 l 1
 603 623 595 617 562 576 c 2
 344 306 l 1
 315 205 l 1
 315 205 278 90 278 56 c 0
EndSplineSet
EndChar

StartChar: Z
Encoding: 90 90 58
Width: 555
Flags: W
HStem: 0 37<123 438.002> 617 36<171.219 473>
LayerCount: 2
Back
SplineSet
616.531 175.947 m 1
 591.499 0 l 1
 26.4639 0 l 1
 26.4639 14.3047 l 1
 464.188 627.261 l 1
 243.181 627.261 l 2
 179.524 627.261 135.18 612.956 110.146 584.347 c 0
 102.278 576.479 95.126 565.035 90.1191 550.015 c 0
 84.3975 534.995 79.3906 516.399 74.3848 493.512 c 1
 48.6357 493.512 l 1
 68.6621 663.737 l 1
 596.506 663.737 l 1
 596.506 648.718 l 1
 162.358 37.9072 l 1
 420.558 37.9072 l 2
 479.923 37.9072 522.121 52.2119 547.869 80.8213 c 0
 563.605 97.9873 578.625 130.173 592.929 175.947 c 1
 616.531 175.947 l 1
EndSplineSet
Fore
SplineSet
284 37 m 2
 451 37 481 67 535 171 c 1
 554 168 l 1
 499 0 l 1
 -6 0 l 1
 -6 15 l 1
 473 617 l 1
 302 617 l 2
 227 617 174 603 145 580 c 0
 126 562 114 546 92 502 c 1
 75 507 l 1
 120 653 l 1
 606 653 l 1
 606 639 l 1
 123 37 l 1
 284 37 l 2
EndSplineSet
EndChar

StartChar: bracketleft
Encoding: 91 91 59
Width: 388
Flags: MW
HStem: -152 26<111.752 209> 636 28<279.491 384>
LayerCount: 2
Back
SplineSet
338.306 -127.312 m 1
 123.021 -127.312 l 1
 123.021 707.366 l 1
 338.306 707.366 l 1
 338.306 682.333 l 1
 246.041 682.333 l 2
 216.001 682.333 200.98 667.313 200.98 637.274 c 2
 200.98 -48.6357 l 2
 200.98 -84.3975 217.432 -102.278 250.331 -102.278 c 2
 338.306 -102.278 l 1
 338.306 -127.312 l 1
EndSplineSet
Fore
SplineSet
384 636 m 1
 322 636 l 2
 293 636 281 627 275 601 c 2
 116 -78 l 2
 111 -92 111 -92 111 -98 c 0
 111 -117 127 -126 160 -126 c 2
 215 -126 l 1
 209 -152 l 1
 21 -152 l 1
 218 664 l 1
 391 664 l 1
 384 636 l 1
EndSplineSet
EndChar

StartChar: backslash
Encoding: 92 92 60
Width: 276
Flags: MW
HStem: -18 21G<239.55 319> 646 20G<-41 39.4211>
LayerCount: 2
Back
SplineSet
370.492 -177.379 m 1
 314.703 -177.379 l 1
 26.4639 693.062 l 1
 80.8213 693.062 l 1
 370.492 -177.379 l 1
EndSplineSet
Fore
SplineSet
-41 666 m 1
 31 666 l 1
 319 -18 l 1
 248 -18 l 1
 -41 666 l 1
EndSplineSet
EndChar

StartChar: bracketright
Encoding: 93 93 61
Width: 388
Flags: MW
HStem: -152 26<19 122.328> 636 28<193 290.426>
LayerCount: 2
Back
SplineSet
282.518 -127.312 m 1
 67.2324 -127.312 l 1
 67.2324 -102.278 l 1
 159.498 -102.278 l 2
 190.253 -102.278 205.272 -87.2588 205.272 -57.2188 c 2
 205.272 628.69 l 2
 205.272 664.452 188.821 682.333 155.206 682.333 c 2
 67.2324 682.333 l 1
 67.2324 707.366 l 1
 282.518 707.366 l 1
 282.518 -127.312 l 1
EndSplineSet
Fore
SplineSet
19 -126 m 1
 81 -126 l 2
 111 -126 120 -119 127 -89 c 2
 289 587 l 2
 291 603 291 605 291 609 c 0
 291 627 275 636 243 636 c 2
 186 636 l 1
 193 664 l 1
 382 664 l 1
 185 -152 l 1
 12 -152 l 1
 19 -126 l 1
EndSplineSet
EndChar

StartChar: asciicircum
Encoding: 94 94 62
Width: 421
Flags: MW
VStem: 0 422<300 300 300 300>
LayerCount: 2
Back
SplineSet
489.22 304.69 m 1
 430.57 304.69 l 1
 272.504 623.684 l 1
 262.49 600.797 l 1
 115.868 304.69 l 1
 57.2188 304.69 l 1
 241.749 678.043 l 1
 303.259 678.043 l 1
 489.22 304.69 l 1
EndSplineSet
Fore
SplineSet
67 300 m 1
 0 300 l 1
 182 666 l 1
 242 666 l 1
 422 300 l 1
 354 300 l 1
 211 590 l 1
 67 300 l 1
EndSplineSet
EndChar

StartChar: underscore
Encoding: 95 95 63
Width: 499
Flags: MW
HStem: -125 50<0 499>
LayerCount: 2
Back
SplineSet
545.008 -124.451 m 1
 32.1855 -124.451 l 1
 32.1855 -72.9541 l 1
 545.008 -72.9541 l 1
 545.008 -124.451 l 1
EndSplineSet
Fore
SplineSet
499 -125 m 1
 0 -125 l 1
 0 -75 l 1
 499 -75 l 1
 499 -125 l 1
EndSplineSet
EndChar

StartChar: quotesglleft
Encoding: 96 -1 64
Width: 219
Flags: MW
LayerCount: 2
Back
SplineSet
213.854 363.339 m 1
 185.961 363.339 l 1
 74.3848 433.432 l 2
 62.9404 440.584 56.5039 450.598 54.3574 464.188 c 0
 54.3574 479.206 62.2256 486.359 77.9609 486.359 c 0
 87.2588 486.359 97.9873 480.638 108.716 469.909 c 2
 213.854 363.339 l 1
EndSplineSet
Fore
SplineSet
312 453 m 1
 290 442 l 1
 267 485 212 579 205 603 c 0
 198 625 217 650 237 661 c 0
 256 669 284 669 290 646 c 0
 297 621 308 505 312 453 c 1
EndSplineSet
EndChar

StartChar: a
Encoding: 97 97 65
Width: 499
Flags: W
HStem: -10 48<116.24 197.805 340.002 393.49> 419 22<245.299 352.113>
VStem: 18 83<52.565 206.857> 297 74<18.6439 112.637>
LayerCount: 2
Back
SplineSet
483.498 45.0596 m 1
 454.175 10.0137 421.988 -7.15234 386.941 -7.15234 c 0
 339.737 -7.15234 316.133 18.5957 316.133 70.0928 c 1
 254.623 18.5957 200.98 -7.15234 155.206 -7.15234 c 0
 120.875 -7.15234 92.9805 2.86133 70.8086 22.8877 c 0
 49.3516 42.9141 37.9072 70.0928 37.9072 103.709 c 0
 37.9072 155.921 62.2256 197.405 110.146 230.306 c 0
 121.59 237.457 144.478 249.616 178.094 265.352 c 0
 211.709 281.088 257.484 300.398 314.703 324.001 c 1
 314.703 391.233 l 2
 314.703 451.312 286.81 482.068 230.306 482.068 c 0
 180.954 482.068 154.491 464.188 149.484 427.71 c 1
 149.484 424.85 l 2
 149.484 419.128 150.914 411.26 153.06 402.677 c 0
 155.206 394.094 156.637 388.373 156.637 385.512 c 0
 156.637 374.782 152.345 363.339 143.762 351.895 c 1
 130.173 341.882 117.299 336.875 105.14 336.875 c 0
 91.5498 336.875 80.8213 341.167 71.5234 349.034 c 0
 62.9404 357.618 58.6494 369.775 58.6494 385.512 c 0
 58.6494 423.418 79.3906 454.89 121.59 479.206 c 0
 154.491 498.519 193.828 508.531 238.889 508.531 c 0
 300.398 508.531 343.312 494.227 367.631 465.617 c 0
 391.948 437.724 404.107 392.663 404.107 331.153 c 2
 404.107 115.868 l 2
 404.107 75.8145 414.836 55.0732 436.294 54.3574 c 0
 453.458 54.3574 468.479 60.7949 483.498 74.3848 c 1
 483.498 45.0596 l 1
314.703 135.895 m 1
 314.703 297.537 l 1
 194.543 258.2 134.464 206.702 134.464 143.762 c 0
 134.464 120.159 142.332 98.7021 156.637 79.3906 c 0
 167.365 63.6562 185.246 55.7881 209.563 55.7881 c 0
 250.331 55.7881 282.518 69.3779 306.12 96.5566 c 0
 308.266 100.848 309.697 105.854 310.412 113.007 c 0
 311.843 119.444 313.272 127.312 314.703 135.895 c 1
EndSplineSet
Fore
SplineSet
384 41 m 0
 395 41 419 62 464 110 c 1
 476 100 l 1
 401 9 376 -10 337 -10 c 0
 309 -10 297 1 297 31 c 0
 297 56 300 67 319 146 c 1
 231 22 189 -12 119 -12 c 0
 56 -12 18 29 18 100 c 0
 18 258 171 441 303 441 c 0
 346 441 375 420 382 382 c 1
 394 431 l 1
 397 434 l 1
 458 441 l 1
 464 438 l 1
 464 438 371 92 371 54 c 0
 371 47 376 41 384 41 c 0
304 419 m 0
 193 419 101 197 101 113 c 0
 101 67 125 38 160 38 c 0
 187 38 223 56 246 82 c 0
 315 157 365 274 365 357 c 0
 365 394 341 419 304 419 c 0
EndSplineSet
EndChar

StartChar: b
Encoding: 98 98 66
Width: 499
Flags: W
HStem: -12 24<110.891 229.446> 393 48<281.293 366.282> 643 18<110 172.11> 663 20G<238 268>
VStem: 23 85<18.0132 88.8744> 388 85<218.109 372.059>
LayerCount: 2
Back
SplineSet
534.995 263.922 m 0
 534.995 200.98 514.968 143.047 474.916 89.4043 c 0
 426.995 25.0332 357.618 -7.15234 266.782 -7.15234 c 0
 231.735 -7.15234 195.975 -1.43066 160.928 10.0137 c 0
 115.868 25.0332 93.6953 42.1992 93.6953 61.5098 c 2
 93.6953 634.412 l 2
 93.6953 658.73 92.2656 673.036 89.4043 676.611 c 0
 82.252 686.625 70.0928 691.632 51.4971 691.632 c 2
 45.0596 691.632 l 1
 20.7422 690.2 l 1
 20.7422 707.366 l 1
 37.9072 712.373 60.0801 718.811 87.2588 726.679 c 0
 113.723 734.546 145.908 743.843 183.1 756.002 c 1
 187.392 754.572 l 1
 187.392 419.128 l 1
 190.253 432.717 197.405 444.876 208.134 455.604 c 0
 218.861 466.332 231.021 475.631 245.324 483.498 c 0
 259.63 491.365 274.65 497.087 291.1 501.379 c 0
 306.836 506.386 322.571 508.531 336.875 508.531 c 0
 401.247 508.531 451.312 482.068 487.79 430.57 c 0
 519.26 382.649 534.995 326.863 534.995 263.922 c 0
434.862 223.868 m 0
 434.862 252.478 433.432 278.226 429.141 301.829 c 0
 425.563 325.432 418.413 346.888 408.399 366.2 c 0
 382.649 416.267 344.743 440.584 296.106 440.584 c 0
 269.644 440.584 246.041 433.432 225.3 419.128 c 0
 200.266 401.247 187.392 379.789 187.392 354.757 c 2
 187.392 79.3906 l 2
 187.392 70.0928 190.968 62.2256 198.835 55.7881 c 0
 205.987 48.6357 214.569 42.9141 225.3 38.623 c 0
 236.027 34.3311 247.471 30.7549 260.345 28.6094 c 0
 272.504 26.4639 282.518 25.0332 291.816 25.0332 c 0
 386.941 25.0332 434.862 91.5498 434.862 223.868 c 0
EndSplineSet
Fore
SplineSet
110 643 m 1
 110 661 l 1
 177 668 212 674 264 683 c 1
 268 678 l 1
 164 290 l 1
 234 400 287 441 357 441 c 0
 423 441 473 391 473 321 c 0
 473 164 308 -12 157 -12 c 0
 100 -12 23 19 23 42 c 1
 160 546 l 2
 163 568 174 596 174 617 c 0
 174 639 168 642 110 643 c 1
318 393 m 0
 206 393 108 150 108 45 c 0
 108 23 125 12 155 12 c 0
 198 12 242 34 278 70 c 0
 337 133 388 240 388 306 c 0
 388 359 360 393 318 393 c 0
EndSplineSet
EndChar

StartChar: c
Encoding: 99 99 67
Width: 443
Flags: W
HStem: -12 37<147.576 267.571> 420 21<243.245 352.026>
VStem: 29 87<58.7216 243.057> 353 72<336.952 409.693>
LayerCount: 2
Back
SplineSet
467.049 163.788 m 1
 413.406 50.0664 340.452 -7.15234 247.471 -7.15234 c 0
 183.1 -7.15234 131.604 17.8809 93.6953 67.2324 c 0
 58.6494 113.007 40.7686 170.226 40.7686 237.457 c 0
 40.7686 312.558 63.6562 376.213 108.716 427.71 c 0
 154.491 481.353 214.569 508.531 288.239 508.531 c 0
 329.724 508.531 365.485 499.233 395.525 482.068 c 0
 433.432 461.325 452.743 432.717 452.743 395.525 c 0
 452.743 364.054 435.577 348.319 401.247 348.319 c 0
 374.782 348.319 356.901 365.485 346.888 399.815 c 1
 341.167 423.418 l 1
 333.299 445.591 325.432 460.61 316.133 467.049 c 0
 307.551 474.199 291.816 477.776 269.644 477.776 c 0
 222.438 477.776 185.961 455.604 159.498 411.26 c 0
 137.325 371.922 125.881 328.292 125.881 281.088 c 0
 125.881 222.438 140.186 174.518 168.795 135.895 c 0
 200.98 91.5498 242.464 68.6621 294.677 68.6621 c 0
 313.987 68.6621 331.153 71.5234 346.173 77.2451 c 0
 361.908 82.252 376.213 90.1191 389.803 100.848 c 0
 399.101 108.716 409.829 118.729 420.558 129.457 c 0
 431.287 140.901 442.015 155.206 452.743 173.087 c 1
 467.049 163.788 l 1
EndSplineSet
Fore
SplineSet
315 420 m 0
 196 420 116 263 116 139 c 0
 116 67 149 25 207 25 c 0
 256 25 294 47 350 105 c 1
 366 97 l 1
 306 21 250 -12 177 -12 c 0
 83 -12 29 44 29 139 c 0
 29 294 170 441 319 441 c 0
 379 441 425 406 425 360 c 0
 425 334 404 313 376 313 c 0
 353 313 338 328 338 352 c 0
 338 371 353 386 353 400 c 0
 353 412 338 420 315 420 c 0
EndSplineSet
EndChar

StartChar: d
Encoding: 100 100 68
Width: 499
Flags: W
HStem: -13 50<116.534 195.478 334.012 379.476> 417 24<248.64 348.94> 643 18<369 429.636> 663 20G<495 527>
VStem: 15 88<49.6208 203.396> 287 76<15.9016 75.8595>
LayerCount: 2
Back
SplineSet
556.452 47.2051 m 1
 395.525 -7.15234 l 1
 389.803 -4.29102 l 1
 389.803 60.0801 l 1
 356.187 15.0195 308.266 -7.15234 244.61 -7.15234 c 0
 199.55 -7.15234 160.213 5.00684 125.881 29.3242 c 0
 71.5234 69.3779 43.6289 138.756 43.6289 237.457 c 0
 43.6289 274.65 49.3516 308.266 59.3643 338.306 c 0
 69.3779 368.346 84.3975 396.955 103.709 423.418 c 0
 148.053 479.923 203.842 508.531 272.504 508.531 c 0
 314.703 508.531 353.326 492.797 389.803 462.757 c 1
 389.803 634.412 l 2
 389.803 645.142 389.088 653.725 389.088 660.162 c 0
 388.373 665.884 386.941 671.604 385.512 675.182 c 0
 382.649 680.188 377.643 683.765 370.492 685.91 c 0
 364.054 688.771 356.187 690.2 348.319 690.2 c 2
 342.598 690.2 l 1
 316.133 688.771 l 1
 316.133 707.366 l 1
 382.649 723.817 l 1
 476.346 756.002 l 1
 483.498 754.572 l 1
 483.498 125.881 l 2
 483.498 100.848 486.359 83.6826 492.797 75.0996 c 0
 499.233 67.2324 514.253 62.9404 537.857 62.9404 c 2
 556.452 64.3711 l 1
 556.452 47.2051 l 1
389.803 113.007 m 1
 389.803 369.061 l 1
 386.941 404.107 374.067 432.002 351.895 452.743 c 0
 341.167 462.042 329.007 469.193 315.418 473.485 c 0
 302.544 477.062 288.239 479.206 273.936 479.206 c 0
 225.3 479.206 188.821 456.319 165.219 409.829 c 0
 145.908 373.353 135.895 328.292 135.895 276.796 c 0
 135.895 245.324 138.756 217.432 144.478 191.683 c 0
 149.484 166.65 158.066 143.762 168.795 124.451 c 0
 196.688 72.9541 237.457 47.2051 291.816 47.2051 c 0
 345.458 47.2051 377.643 68.6621 389.803 113.007 c 1
EndSplineSet
Fore
SplineSet
463 111 m 1
 475 101 l 1
 423 28 371 -13 330 -13 c 0
 305 -13 287 4 287 32 c 0
 287 56 289 70 300 122 c 1
 231 21 187 -12 120 -12 c 0
 56 -12 15 32 15 103 c 0
 15 253 177 441 308 441 c 0
 346 441 365 425 372 382 c 1
 416 546 l 2
 431 598 431 603 431 617 c 0
 431 639 423 642 369 643 c 1
 369 661 l 1
 434 666 469 672 521 683 c 1
 527 678 l 1
 476 478 456 398 428 306 c 0
 395 196 363 75 363 60 c 0
 363 48 371 40 381 40 c 0
 398 40 409 48 463 111 c 1
356 360 m 0
 356 404 336 417 305 417 c 0
 208 417 103 222 103 103 c 0
 103 64 126 37 160 37 c 0
 252 37 356 209 356 360 c 0
EndSplineSet
EndChar

StartChar: e
Encoding: 101 101 69
Width: 443
Flags: MW
HStem: -12 46<147.948 255.23> 186 22<127 135> 417 24<258.245 342.643>
VStem: 31 88<63.8025 190.023> 346 66<317.807 414.666>
LayerCount: 2
Back
SplineSet
482.068 174.518 m 1
 477.062 156.637 469.909 138.756 459.896 120.875 c 0
 449.883 102.994 437.724 85.1133 421.988 68.6621 c 0
 371.922 17.8809 313.987 -7.15234 247.471 -7.15234 c 0
 190.253 -7.15234 143.762 9.29785 108.716 42.9141 c 0
 72.9541 77.2451 51.4971 123.021 43.6289 181.669 c 0
 42.9141 189.538 42.1992 198.12 41.4834 207.419 c 0
 41.4834 216.716 40.7686 226.729 40.7686 237.457 c 0
 40.7686 312.558 59.3643 374.782 96.5566 423.418 c 0
 138.756 479.923 195.26 508.531 266.782 508.531 c 0
 328.292 508.531 375.498 489.936 409.114 454.175 c 0
 443.444 417.696 459.896 368.346 459.896 306.12 c 1
 117.299 306.12 l 1
 117.299 145.908 175.947 65.8018 294.677 65.8018 c 0
 356.901 65.8018 414.121 105.14 465.617 183.1 c 1
 482.068 174.518 l 1
348.319 342.598 m 1
 339.737 427.71 304.69 469.909 243.181 469.909 c 0
 178.809 469.909 138.04 427.71 120.159 342.598 c 1
 348.319 342.598 l 1
EndSplineSet
Fore
SplineSet
357 108 m 1
 371 97 l 1
 311 29 234 -12 163 -12 c 0
 85 -12 31 45 31 126 c 0
 31 275 187 441 333 441 c 0
 382 441 412 415 412 374 c 0
 412 287 306 211 157 190 c 2
 127 186 l 1
 120 154 119 139 119 125 c 0
 119 70 155 34 212 34 c 0
 255 34 286 50 357 108 c 1
152 252 m 2
 135 208 l 1
 221 229 259 248 296 283 c 0
 327 312 346 349 346 379 c 0
 346 401 333 417 311 417 c 0
 261 417 186 341 152 252 c 2
EndSplineSet
EndChar

StartChar: f
Encoding: 102 102 70
Width: 276
Flags: W
HStem: -207 21<-76.1257 -18.8848> 395 33<42 125 211 313> 656 22<285.637 350.806>
VStem: -146 65<-185.463 -135.192> 354 69<595.267 655.909>
LayerCount: 2
Back
SplineSet
439.154 688.771 m 0
 439.154 658.016 422.703 642.996 389.803 642.996 c 0
 377.643 642.996 360.479 656.585 338.306 683.765 c 1
 319.71 711.658 302.544 725.247 286.81 725.247 c 0
 242.464 725.247 219.576 691.632 219.576 625.115 c 2
 219.576 497.804 l 1
 356.187 497.804 l 1
 356.187 464.188 l 1
 221.008 464.188 l 1
 221.008 114.438 l 2
 221.008 77.9609 225.3 53.6426 234.597 40.7686 c 0
 246.041 24.3184 276.081 16.4502 324.001 16.4502 c 1
 324.001 0 l 1
 36.4766 0 l 1
 36.4766 16.4502 l 1
 44.3447 17.166 52.9277 17.8809 61.5098 17.8809 c 0
 71.5234 17.8809 78.6758 18.5957 83.6826 20.7422 c 0
 88.6895 22.1719 93.6953 24.3184 100.133 27.1787 c 0
 106.57 29.3242 110.861 31.4707 113.007 33.6162 c 0
 123.735 47.2051 128.742 74.3848 128.742 114.438 c 2
 128.742 464.188 l 1
 37.9072 464.188 l 1
 37.9072 497.804 l 1
 128.742 497.804 l 1
 128.742 670.891 194.543 757.434 326.863 757.434 c 0
 353.326 757.434 376.213 752.427 396.955 742.413 c 0
 425.563 728.824 439.154 710.943 439.154 688.771 c 0
EndSplineSet
Fore
SplineSet
-70 -144 m 0
 -70 -154 -81 -165 -81 -170 c 0
 -81 -179 -72 -186 -60 -186 c 0
 -18 -186 15 -130 37 -23 c 2
 125 395 l 1
 35 395 l 1
 42 428 l 1
 133 428 l 1
 166 530 215 678 338 678 c 0
 387 678 423 650 423 612 c 0
 423 590 404 573 382 573 c 0
 360 573 346 589 346 612 c 0
 346 632 354 628 354 645 c 0
 354 650 346 656 333 656 c 0
 277 656 240 584 211 428 c 1
 319 428 l 1
 313 395 l 1
 204 395 l 1
 132 76 l 2
 91 -108 21 -207 -67 -207 c 0
 -111 -207 -146 -180 -146 -146 c 0
 -146 -123 -130 -105 -110 -105 c 0
 -89 -105 -70 -122 -70 -144 c 0
EndSplineSet
EndChar

StartChar: g
Encoding: 103 103 71
Width: 499
Flags: MW
HStem: -207 22<105.631 275.557> 155 16<189.75 221.886 205.818 287.769> 366 38<422 472> 419 22<240.479 340.149>
VStem: 7 56<-144.485 -33.7812> 98 73<77.2484 119.772 200.623 333.815> 325 60<-129.2 -41.0368> 352 79<254.77 354.177>
LayerCount: 2
Back
SplineSet
496.372 433.432 m 1
 408.399 433.432 l 1
 422.703 400.532 429.141 367.631 429.141 335.445 c 0
 429.141 288.239 413.406 251.048 382.649 222.438 c 0
 351.18 194.543 311.126 180.239 262.49 180.239 c 0
 252.478 180.239 243.181 180.239 233.882 180.954 c 0
 224.583 181.669 214.569 182.385 205.272 184.531 c 2
 200.98 184.531 l 2
 191.683 184.531 179.524 176.662 163.788 160.928 c 0
 147.338 141.616 139.471 128.027 139.471 120.159 c 0
 139.471 103.709 167.365 93.6953 223.868 90.835 c 2
 359.048 83.6826 l 2
 396.24 81.5371 426.995 70.8086 451.312 51.4971 c 0
 475.631 31.4707 487.79 5.72168 487.79 -26.4639 c 0
 487.79 -55.7881 478.491 -81.5371 459.181 -102.994 c 0
 439.869 -125.166 416.981 -143.762 389.088 -158.781 c 0
 361.193 -173.802 331.868 -185.246 300.398 -193.113 c 0
 268.929 -200.98 241.034 -205.272 215.286 -205.272 c 0
 197.405 -205.272 178.809 -203.127 157.352 -200.266 c 0
 136.609 -196.688 116.583 -190.968 97.2715 -183.1 c 0
 78.6758 -175.232 62.2256 -164.504 50.0664 -151.63 c 0
 37.1924 -138.756 30.7549 -122.305 30.7549 -102.278 c 0
 30.7549 -68.6621 65.0859 -26.4639 133.033 23.6025 c 1
 95.126 43.6289 75.8145 62.2256 75.8145 79.3906 c 0
 75.8145 102.278 107.285 140.901 170.226 194.543 c 1
 105.14 223.868 72.9541 270.358 72.9541 332.584 c 0
 72.9541 385.512 90.1191 427.71 124.451 459.896 c 0
 158.781 492.082 202.412 508.531 254.623 508.531 c 0
 268.212 508.531 283.948 506.386 301.113 502.094 c 0
 318.279 498.519 336.875 492.797 357.618 484.93 c 0
 366.915 480.638 377.643 478.491 388.373 477.062 c 0
 399.101 475.631 408.399 474.916 416.267 474.916 c 2
 496.372 474.916 l 1
 496.372 433.432 l 1
346.888 308.982 m 0
 346.888 340.452 341.167 371.922 328.292 404.107 c 0
 309.697 454.175 280.371 479.206 240.318 479.206 c 0
 187.392 479.206 160.928 447.021 160.928 384.081 c 0
 160.928 265.352 197.405 206.702 269.644 206.702 c 0
 321.14 206.702 346.888 241.034 346.888 308.982 c 0
458.465 -42.1992 m 0
 458.465 -30.04 454.175 -19.3115 444.876 -10.7285 c 0
 435.577 -2.86133 422.703 2.86133 406.969 5.72168 c 0
 403.393 7.15234 394.809 7.86719 381.935 7.86719 c 0
 368.346 8.58301 350.465 10.0137 328.292 11.4434 c 0
 296.106 13.5898 269.644 15.0195 249.616 16.4502 c 0
 229.59 17.166 213.854 17.8809 201.695 18.5957 c 0
 189.538 18.5957 180.239 19.3115 173.802 20.0264 c 0
 167.365 20.0264 160.928 20.7422 155.206 22.1719 c 1
 120.875 -17.8809 103.709 -48.6357 103.709 -70.0928 c 0
 103.709 -120.159 157.352 -145.192 263.922 -145.192 c 0
 283.232 -145.192 302.544 -143.047 322.571 -139.471 c 0
 341.882 -135.18 361.908 -129.457 382.649 -121.59 c 0
 433.432 -102.278 458.465 -75.8145 458.465 -42.1992 c 0
EndSplineSet
Fore
SplineSet
297 441 m 0
 372 441 401 404 412 404 c 2
 472 404 l 1
 472 366 l 1
 422 366 l 1
 428 346 431 327 431 311 c 0
 431 231 337 151 246 151 c 0
 219 151 216 155 208 155 c 0
 195 155 171 129 171 114 c 0
 171 100 198 83 242 72 c 0
 337 47 385 3 385 -60 c 0
 385 -146 300 -207 174 -207 c 0
 75 -207 7 -161 7 -92 c 0
 7 -45 26 -26 125 40 c 1
 105 53 98 64 98 78 c 0
 98 103 116 122 174 163 c 1
 119 187 97 218 97 270 c 0
 97 365 186 441 297 441 c 0
148 28 m 1
 148 28 63 -10 63 -82 c 0
 63 -146 110 -185 190 -185 c 0
 267 -185 325 -144 325 -89 c 0
 325 -10 185 13 148 28 c 1
234 171 m 0
 316 171 352 294 352 349 c 0
 352 395 333 419 296 419 c 0
 231 419 174 338 174 248 c 0
 174 201 196 171 234 171 c 0
EndSplineSet
EndChar

StartChar: h
Encoding: 104 104 72
Width: 499
Flags: W
HStem: -9 47<336.502 389.817> 390 51<314.882 395.375> 642 14<111 141> 663 20G<238.5 272>
VStem: 289 79<20.0689 96.1182> 371 77<315.635 388.821>
LayerCount: 2
Back
SplineSet
553.592 0 m 1
 321.14 0 l 1
 321.14 14.3047 l 1
 346.888 17.8809 366.2 23.6025 377.643 33.6162 c 0
 385.512 39.3379 390.519 49.3516 392.663 62.9404 c 0
 394.809 76.5303 395.525 92.9805 395.525 113.007 c 2
 395.525 332.584 l 2
 395.525 410.544 366.915 449.883 310.412 449.883 c 0
 273.219 449.883 233.167 426.28 188.821 379.074 c 1
 188.821 113.007 l 2
 188.821 92.9805 190.253 77.2451 192.398 63.6562 c 0
 195.26 50.7812 199.55 40.7686 206.702 33.6162 c 0
 212.426 27.8945 231.735 21.457 263.922 14.3047 c 1
 263.922 0 l 1
 26.4639 0 l 1
 26.4639 14.3047 l 1
 42.9141 16.4502 56.5039 20.0264 65.8018 25.748 c 0
 75.8145 30.7549 82.252 37.1924 86.543 43.6289 c 0
 92.9805 54.3574 96.5566 77.9609 96.5566 113.007 c 2
 96.5566 673.751 l 1
 91.5498 678.758 85.8281 682.333 78.6758 684.479 c 0
 70.8086 687.34 63.6562 688.771 55.7881 688.771 c 2
 27.8945 687.34 l 1
 27.8945 705.937 l 1
 184.531 756.002 l 1
 188.821 753.142 l 1
 188.821 419.128 l 1
 231.735 478.491 286.093 508.531 351.895 508.531 c 0
 443.444 508.531 489.22 449.883 489.22 334.014 c 2
 489.22 113.007 l 2
 489.22 77.9609 491.365 55.0732 496.372 45.0596 c 0
 501.379 39.3379 508.531 34.3311 518.545 29.3242 c 0
 528.559 24.3184 540.002 19.3115 553.592 14.3047 c 1
 553.592 0 l 1
EndSplineSet
Fore
SplineSet
448 374 m 0
 448 316 368 98 368 56 c 0
 368 47 374 38 382 38 c 0
 398 38 412 48 464 117 c 1
 478 105 l 1
 417 18 382 -9 333 -9 c 0
 305 -9 289 7 289 34 c 0
 289 45 294 76 308 125 c 2
 363 333 l 2
 368 349 371 360 371 365 c 0
 371 378 357 390 341 390 c 0
 308 390 239 328 187 249 c 0
 146 187 133 154 94 0 c 1
 19 0 l 1
 154 513 l 2
 168 565 179 596 179 617 c 0
 179 631 154 647 141 642 c 1
 111 642 l 1
 111 656 l 1
 171 664 209 669 268 683 c 1
 272 678 l 1
 152 230 l 1
 246 375 316 441 382 441 c 0
 420 441 448 415 448 374 c 0
EndSplineSet
EndChar

StartChar: i
Encoding: 105 105 73
Width: 276
Flags: W
HStem: -12 49<94.5026 155.449> 400 16<64 126.506> 421 20G<175.5 229> 548 105<175.38 253.455>
VStem: 48 77<18.6186 75.0501> 167 97<556.754 643.046>
LayerCount: 2
Back
SplineSet
286.81 0 m 1
 286.81 14.3047 l 1
 246.756 20.7422 223.868 27.8945 218.146 36.4766 c 0
 208.134 52.9277 203.842 77.9609 203.842 111.576 c 2
 203.842 508.531 l 1
 199.55 509.963 l 1
 27.8945 448.451 l 1
 27.8945 432.002 l 1
 71.5234 437.724 l 1
 97.2715 437.724 110.146 415.551 110.146 370.492 c 2
 110.146 111.576 l 2
 110.146 92.9805 108.716 77.2451 107.285 64.3711 c 0
 105.14 51.4971 100.848 41.4834 94.4111 34.3311 c 0
 87.9736 27.1787 79.3906 22.1719 67.9473 19.3115 c 0
 57.2188 16.4502 42.1992 14.3047 23.6025 14.3047 c 1
 23.6025 0 l 1
 286.81 0 l 1
93.6953 701.646 m 0
 93.6953 685.194 99.418 671.604 110.146 660.877 c 0
 120.875 650.148 134.464 644.426 150.914 644.426 c 0
 167.365 644.426 180.954 650.148 191.683 660.877 c 0
 202.412 671.604 208.134 685.194 208.134 701.646 c 0
 208.134 718.095 202.412 731.686 191.683 742.413 c 0
 180.954 753.142 167.365 758.863 150.914 758.863 c 0
 134.464 758.863 120.875 753.142 110.146 742.413 c 0
 99.418 731.686 93.6953 718.095 93.6953 701.646 c 0
EndSplineSet
Fore
SplineSet
141 37 m 0
 167 37 214 102 223 114 c 1
 234 103 l 1
 179 19 141 -12 95 -12 c 0
 64 -12 48 9 48 45 c 0
 48 66 56 97 70 155 c 2
 119 333 l 2
 125 352 127 368 127 376 c 0
 127 395 119 398 64 400 c 1
 64 416 l 1
 104 419 125 422 226 441 c 1
 229 439 l 1
 135 95 133 95 133 95 c 2
 128 76 125 62 125 51 c 0
 125 44 132 37 141 37 c 0
214 653 m 0
 242 653 264 628 264 599 c 0
 264 571 242 548 215 548 c 0
 186 548 167 568 167 601 c 0
 167 631 187 653 214 653 c 0
EndSplineSet
EndChar

StartChar: j
Encoding: 106 106 74
Width: 276
Flags: W
HStem: -207 22<-53.5255 1.04346> 400 16<73 110.359> 421 20G<198.5 246> 548 105<187.38 264.53>
VStem: -125 69<-184.817 -125.37> 179 96<556.754 643.561>
LayerCount: 2
Back
SplineSet
215.286 508.531 m 1
 210.994 509.963 l 1
 39.3379 448.451 l 1
 39.3379 432.002 l 1
 83.6826 437.724 l 1
 108.716 437.724 121.59 415.551 121.59 370.492 c 2
 121.59 0 l 1
 120.159 0 l 1
 120.159 -47.2051 l 2
 120.159 -109.431 118.014 -146.624 114.438 -158.066 c 0
 103.709 -187.392 87.2588 -202.412 64.3711 -202.412 c 0
 56.5039 -200.98 40.7686 -189.538 17.8809 -166.65 c 0
 -2.86133 -145.192 -20.7422 -134.464 -35.0469 -134.464 c 0
 -39.3379 -134.464 -48.6357 -138.04 -62.9404 -145.192 c 1
 -71.5234 -153.774 -75.8145 -163.788 -75.8145 -175.947 c 0
 -75.8145 -217.432 -42.9141 -238.889 23.6025 -238.889 c 0
 85.8281 -238.889 133.749 -219.576 165.934 -181.669 c 0
 198.835 -143.762 215.286 -86.543 215.286 -10.0137 c 2
 215.286 508.531 l 1
105.14 701.646 m 0
 105.14 685.194 110.861 671.604 121.59 660.877 c 0
 132.318 650.148 145.908 644.426 162.358 644.426 c 0
 179.524 644.426 193.113 650.148 203.842 660.877 c 0
 214.569 671.604 219.576 685.194 219.576 701.646 c 0
 219.576 718.095 214.569 731.686 203.842 742.413 c 0
 193.113 753.142 179.524 758.863 162.358 758.863 c 0
 145.908 758.863 132.318 753.142 121.59 742.413 c 0
 110.861 731.686 105.14 718.095 105.14 701.646 c 0
EndSplineSet
Fore
SplineSet
-42 -141 m 0
 -42 -159 -56 -162 -56 -173 c 0
 -56 -180 -50 -185 -38 -185 c 0
 1 -185 25 -141 59 -3 c 2
 130 289 l 2
 142 333 146 359 146 369 c 0
 146 394 136 398 73 400 c 1
 73 416 l 1
 104 417 154 425 243 441 c 1
 246 439 l 1
 142 28 l 2
 103 -130 42 -207 -45 -207 c 0
 -91 -207 -125 -182 -125 -146 c 0
 -125 -122 -107 -104 -83 -104 c 0
 -62 -104 -42 -120 -42 -141 c 0
226 653 m 0
 253 653 275 628 275 599 c 0
 275 571 253 548 227 548 c 0
 198 548 179 568 179 601 c 0
 179 631 199 653 226 653 c 0
EndSplineSet
EndChar

StartChar: k
Encoding: 107 107 75
Width: 443
Flags: MW
HStem: -12 53<307.008 368.377> 412 16<278 332.99 397.539 461> 640 16<105 173.151> 663 20G<233 267>
LayerCount: 2
Back
SplineSet
574.333 0 m 1
 335.445 0 l 1
 335.445 17.8809 l 1
 353.326 17.8809 l 2
 360.479 17.8809 366.915 18.5957 371.922 21.457 c 0
 376.928 23.6025 379.789 27.8945 380.505 33.6162 c 1
 200.98 273.936 l 1
 200.98 72.9541 l 2
 200.98 37.1924 221.008 19.3115 261.062 19.3115 c 2
 282.518 17.8809 l 1
 282.518 0 l 1
 25.0332 0 l 1
 25.0332 17.8809 l 1
 60.7949 22.1719 80.8213 27.1787 85.1133 30.7549 c 0
 90.835 37.9072 95.8418 45.0596 99.418 54.3574 c 0
 103.709 62.9404 105.14 75.0996 105.14 90.835 c 2
 105.14 623.684 l 2
 105.14 648.718 103.709 664.452 99.418 672.319 c 0
 96.5566 677.326 92.2656 681.618 86.543 684.479 c 0
 80.8213 688.056 72.2383 690.2 61.5098 690.2 c 2
 55.7881 690.2 l 1
 25.0332 687.34 l 1
 25.0332 703.074 l 1
 194.543 753.142 l 1
 200.98 751.712 l 1
 200.98 290.385 l 1
 349.75 423.418 l 2
 368.346 439.154 377.643 451.312 377.643 461.325 c 0
 377.643 474.199 359.048 480.638 321.14 480.638 c 1
 321.14 497.804 l 1
 545.008 497.804 l 1
 545.008 479.206 l 1
 527.127 479.206 512.107 477.062 498.519 474.199 c 0
 485.645 470.624 473.485 466.332 462.757 461.325 c 0
 454.89 456.319 443.444 449.168 427.71 438.438 c 0
 411.975 428.425 394.809 415.551 376.213 399.815 c 2
 273.936 310.412 l 1
 445.591 96.5566 l 2
 464.902 72.2383 485.645 52.9277 507.101 39.3379 c 0
 528.559 25.748 550.731 18.5957 574.333 17.8809 c 1
 574.333 0 l 1
EndSplineSet
Fore
SplineSet
236 258 m 1
 275 171 316 41 354 41 c 0
 369 41 381 53 398 83 c 2
 415 108 l 1
 429 98 l 1
 384 15 357 -12 318 -12 c 0
 289 -12 271 7 239 70 c 0
 221 107 195 168 179 212 c 1
 138 180 l 1
 89 0 l 1
 15 0 l 1
 148 513 l 2
 161 564 174 595 174 615 c 0
 174 634 154 642 105 640 c 1
 105 656 l 1
 166 664 204 669 262 683 c 1
 267 678 l 1
 146 221 l 1
 179 243 333 359 333 394 c 0
 333 404 319 412 294 412 c 2
 278 412 l 1
 278 428 l 1
 461 428 l 1
 461 412 l 1
 415 409 382 390 236 258 c 1
EndSplineSet
EndChar

StartChar: l
Encoding: 108 108 76
Width: 276
Flags: MW
HStem: -12 44<87.0018 153.617> 640 16<119 184.806> 663 20G<244.5 278>
LayerCount: 2
Back
SplineSet
283.948 0 m 1
 23.6025 0 l 1
 23.6025 14.3047 l 1
 54.3574 18.5957 76.5303 25.748 89.4043 36.4766 c 0
 102.278 47.2051 108.716 67.2324 108.716 96.5566 c 2
 108.716 623.684 l 2
 108.716 649.433 106.57 665.884 102.278 673.751 c 0
 93.6953 685.194 80.8213 691.632 64.3711 691.632 c 2
 20.7422 688.771 l 1
 20.7422 707.366 l 1
 32.9004 710.228 47.9209 713.805 63.6562 718.095 c 0
 80.1064 721.672 90.835 724.532 96.5566 726.679 c 2
 200.98 757.434 l 1
 200.98 93.6953 l 2
 200.98 40.7686 228.16 14.3047 283.948 14.3047 c 1
 283.948 0 l 1
EndSplineSet
Fore
SplineSet
127 100 m 2
 123 85 117 61 117 50 c 0
 117 40 122 32 132 32 c 0
 149 32 168 47 201 89 c 0
 209 101 220 111 229 123 c 1
 242 114 l 1
 176 18 141 -12 89 -12 c 0
 57 -12 40 9 40 45 c 0
 40 50 42 60 45 70 c 2
 182 599 l 2
 185 608 186 614 186 617 c 0
 186 633 166 640 119 640 c 1
 119 656 l 1
 177 664 215 669 274 683 c 1
 278 678 l 1
 127 100 l 2
EndSplineSet
EndChar

StartChar: m
Encoding: 109 109 77
Width: 720
Flags: W
HStem: -9 47<559.502 619.436> 390 51<310.455 381.436 549.66 619.997>
VStem: 516 74<18.3745 67.6704>
LayerCount: 2
Back
SplineSet
871.871 0 m 1
 630.122 0 l 1
 630.122 14.3047 l 1
 640.85 16.4502 649.433 18.5957 657.3 20.0264 c 0
 664.452 21.457 670.176 22.1719 675.182 23.6025 c 0
 688.771 28.6094 697.354 39.3379 700.214 57.2188 c 1
 703.075 96.5566 l 1
 703.075 329.724 l 2
 703.075 370.492 699.499 398.386 691.632 413.406 c 0
 679.473 439.154 656.585 452.743 622.254 452.743 c 0
 570.042 452.743 529.273 429.855 500.664 384.081 c 1
 500.664 102.278 l 2
 500.664 43.6289 527.127 14.3047 578.625 14.3047 c 1
 578.625 0 l 1
 331.153 0 l 1
 331.153 14.3047 l 1
 346.888 16.4502 359.048 19.3115 369.061 22.1719 c 0
 379.074 25.0332 386.941 29.3242 392.663 35.0469 c 0
 398.386 40.7686 402.677 48.6357 404.107 57.9336 c 0
 406.254 67.2324 406.969 79.3906 406.969 95.126 c 2
 406.969 335.445 l 2
 406.969 413.406 381.22 452.743 329.724 452.743 c 0
 296.106 452.743 266.067 442.015 238.889 420.558 c 0
 228.16 412.689 219.576 406.254 213.854 400.532 c 0
 208.134 395.525 204.557 389.803 203.842 385.512 c 1
 203.842 74.3848 l 2
 203.842 34.3311 228.16 14.3047 278.226 14.3047 c 1
 278.226 0 l 1
 32.1855 0 l 1
 32.1855 14.3047 l 1
 83.6826 14.3047 110.146 40.7686 110.146 93.6953 c 2
 110.146 392.663 l 2
 110.146 409.829 105.14 424.85 96.5566 436.294 c 0
 93.6953 441.301 85.1133 444.161 71.5234 444.161 c 0
 63.6562 444.161 57.2188 443.444 51.4971 443.444 c 0
 45.0596 442.729 40.0527 442.015 35.0469 440.584 c 1
 35.0469 458.465 l 1
 45.0596 460.61 55.0732 463.472 66.5166 467.049 c 0
 77.9609 471.339 87.2588 474.199 95.126 476.346 c 2
 190.253 508.531 l 1
 197.405 508.531 l 1
 197.405 423.418 l 1
 237.457 450.598 266.782 469.193 285.378 479.923 c 0
 303.976 489.936 316.133 496.372 321.14 497.804 c 0
 338.306 504.956 354.757 508.531 369.061 508.531 c 0
 428.425 508.531 468.479 477.776 487.79 417.696 c 1
 542.147 477.776 602.228 508.531 666.599 508.531 c 0
 752.427 508.531 795.341 442.015 795.341 310.412 c 2
 795.341 83.6826 l 2
 795.341 43.6289 811.791 22.1719 843.977 19.3115 c 2
 871.871 14.3047 l 1
 871.871 0 l 1
EndSplineSet
Fore
SplineSet
603 38 m 0
 625 38 663 79 688 117 c 1
 705 105 l 1
 676 71 629 -9 555 -9 c 0
 529 -9 516 7 516 37 c 0
 516 47 519 66 527 103 c 2
 586 333 l 2
 590 352 593 363 593 368 c 0
 593 379 584 390 573 390 c 0
 543 390 494 346 445 277 c 0
 394 207 374 157 334 0 c 1
 259 0 l 1
 322 234 354 354 354 365 c 0
 354 379 347 390 334 390 c 0
 300 390 240 333 185 248 c 0
 149 196 135 160 86 0 c 1
 12 0 l 1
 46 131 110 350 110 372 c 0
 110 387 97 394 70 394 c 2
 45 394 l 1
 45 410 l 1
 129 425 149 429 207 441 c 1
 209 439 l 1
 151 230 l 1
 243 375 313 441 374 441 c 0
 409 441 431 416 431 381 c 0
 431 362 416 305 391 229 c 1
 433 295 524 441 612 441 c 0
 647 441 672 415 672 378 c 0
 672 372 670 354 669 350 c 2
 601 100 l 2
 595 75 590 59 590 54 c 0
 590 44 596 38 603 38 c 0
EndSplineSet
EndChar

StartChar: n
Encoding: 110 110 78
Width: 499
Flags: W
HStem: -9 47<334.449 394.667> 390 51<311.318 387.209>
VStem: 287 75<20.2686 71.7759> 360 82<340.616 389.523>
LayerCount: 2
Back
SplineSet
547.869 0 m 1
 321.14 0 l 1
 321.14 14.3047 l 1
 348.319 17.8809 364.054 23.6025 369.061 33.6162 c 1
 382.649 44.3447 389.803 69.3779 389.803 108.716 c 2
 389.803 339.737 l 2
 389.803 409.829 361.908 445.591 306.12 445.591 c 0
 277.511 445.591 241.034 425.564 195.975 385.512 c 1
 195.975 74.3848 l 2
 195.975 41.4834 220.293 21.457 268.212 14.3047 c 1
 268.212 0 l 1
 35.0469 0 l 1
 35.0469 14.3047 l 1
 67.2324 20.7422 l 1
 80.1064 25.0332 89.4043 34.3311 95.126 48.6357 c 0
 100.848 62.2256 103.709 79.3906 103.709 99.418 c 2
 103.709 373.353 l 2
 103.709 404.107 100.133 424.135 92.2656 434.862 c 0
 90.1191 437.009 86.543 438.438 80.8213 439.154 c 0
 74.3848 440.584 69.3779 440.584 64.3711 440.584 c 0
 48.6357 440.584 37.9072 439.869 32.1855 437.724 c 1
 32.1855 457.035 l 1
 43.6289 459.181 55.7881 462.042 67.2324 465.617 c 0
 79.3906 469.909 87.2588 472.771 92.2656 474.916 c 0
 105.854 479.206 120.875 484.93 135.895 489.936 c 0
 151.63 495.657 167.365 500.664 183.1 507.101 c 1
 193.113 507.101 l 1
 193.113 416.267 l 1
 208.849 432.717 223.153 446.307 235.312 457.75 c 0
 247.471 469.193 258.2 477.776 268.212 483.498 c 0
 297.537 499.233 326.146 507.101 354.757 507.101 c 0
 439.154 507.101 482.068 451.312 482.068 341.167 c 2
 482.068 89.4043 l 2
 482.068 63.6562 486.359 45.0596 494.942 33.6162 c 0
 499.949 28.6094 506.386 25.0332 514.968 22.8877 c 0
 522.837 20.0264 534.28 17.8809 547.869 14.3047 c 1
 547.869 0 l 1
EndSplineSet
Fore
SplineSet
460 117 m 1xe0
 475 104 l 1
 404 12 379 -9 334 -9 c 0
 300 -9 287 7 287 45 c 0xe0
 287 56 290 69 303 120 c 2
 347 286 l 2
 354 316 360 349 360 360 c 0
 360 379 352 390 337 390 c 0
 300 390 249 340 189 248 c 0
 145 180 136 158 89 0 c 1
 15 0 l 1
 110 350 l 2
 111 354 111 360 111 368 c 0
 111 387 100 393 48 394 c 1
 48 410 l 1
 209 441 l 1
 212 439 l 1
 146 221 l 1
 249 381 312 441 376 441 c 0
 415 441 442 416 442 379 c 0xd0
 442 366 438 344 434 324 c 2
 376 117 l 2
 362 62 362 62 362 54 c 0
 362 45 371 38 378 38 c 0
 393 38 410 54 439 91 c 2
 460 117 l 1xe0
EndSplineSet
EndChar

StartChar: o
Encoding: 111 111 79
Width: 499
Flags: W
HStem: -12 22<136.344 251.023> 420 21<252.872 360.115>
VStem: 26 85<48.2807 217.196> 384 85<205.094 378.722>
LayerCount: 2
Back
SplineSet
45.0596 250.331 m 0
 45.0596 215.286 51.4971 182.385 62.9404 150.914 c 0
 74.3848 119.444 91.5498 92.2656 113.007 68.6621 c 0
 134.464 45.0596 159.498 27.1787 188.821 12.874 c 0
 218.146 -0.714844 251.048 -7.15234 286.81 -7.15234 c 0
 323.286 -7.15234 356.187 -0.714844 386.227 12.874 c 0
 415.551 27.1787 441.301 45.0596 462.757 68.6621 c 0
 484.213 92.2656 501.379 119.444 513.538 150.914 c 0
 525.697 182.385 531.419 215.286 531.419 250.331 c 0
 531.419 285.378 525.697 318.994 513.538 349.75 c 0
 501.379 381.22 484.213 408.399 462.757 432.002 c 0
 441.3 455.604 415.551 474.199 386.227 487.79 c 0
 356.187 501.379 323.286 508.531 286.81 508.531 c 0
 251.048 508.531 218.146 501.379 188.821 487.79 c 0
 159.498 474.199 134.464 455.604 113.007 432.002 c 0
 91.5498 408.399 74.3848 381.22 62.9404 349.75 c 0
 51.4971 318.994 45.0596 285.378 45.0596 250.331 c 0
143.762 248.901 m 0
 143.762 280.371 146.624 309.697 152.345 337.591 c 0
 158.066 365.485 166.65 389.803 178.809 409.829 c 0
 190.253 430.57 205.272 447.021 223.153 459.181 c 0
 241.749 471.339 262.49 477.776 286.81 477.776 c 0
 312.558 477.776 334.014 471.339 352.611 459.181 c 0
 370.492 447.021 385.512 430.57 396.955 409.829 c 0
 408.399 389.803 416.981 365.485 422.703 337.591 c 0
 427.71 309.697 430.57 280.371 430.57 248.901 c 0
 430.57 217.432 427.71 188.106 422.703 160.213 c 0
 416.981 132.318 408.399 108 396.955 87.2588 c 0
 385.512 66.5166 370.492 49.3516 352.611 37.1924 c 0
 334.014 25.0332 312.558 19.3115 286.81 19.3115 c 0
 262.49 19.3115 241.749 25.0332 223.153 37.1924 c 0
 205.272 49.3516 190.253 66.5166 178.809 87.2588 c 0
 166.65 108 158.066 132.318 152.345 160.213 c 0
 146.624 188.106 143.762 217.432 143.762 248.901 c 0
EndSplineSet
Fore
SplineSet
469 300 m 0
 469 165 328 -12 174 -12 c 0
 83 -12 26 42 26 129 c 0
 26 286 174 441 325 441 c 0
 410 441 469 384 469 300 c 0
189 10 m 0
 306 10 384 212 384 327 c 0
 384 382 356 420 313 420 c 0
 208 420 111 229 111 101 c 0
 111 45 142 10 189 10 c 0
EndSplineSet
EndChar

StartChar: p
Encoding: 112 112 80
Width: 499
Flags: MW
HStem: -205 16<-75 -22.4512 67.0447 130> -12 19<130.19 237.372> 398 43<316 354> 404 15<56 78.5> 421 20G<208 211 321.5 389.5>
VStem: 379 90<211.847 382.605>
LayerCount: 2
Back
SplineSet
190.253 -125.881 m 2
 190.253 37.9072 l 1
 224.583 7.86719 262.49 -7.15234 303.259 -7.15234 c 0
 340.452 -7.15234 373.353 0.714844 401.962 16.4502 c 0
 430.57 31.4707 454.89 52.2119 474.916 78.6758 c 0
 494.227 104.424 509.246 133.749 519.26 167.365 c 0
 529.273 201.695 534.995 236.027 534.995 271.074 c 0
 534.995 298.969 530.704 327.577 523.552 356.187 c 0
 516.399 384.081 504.956 409.829 489.937 432.002 c 0
 474.916 454.89 456.319 472.771 433.432 487.075 c 0
 411.26 501.379 384.081 508.531 353.326 508.531 c 0
 288.239 508.531 234.597 480.638 190.253 424.85 c 1
 185.961 508.531 l 1
 26.4639 452.743 l 1
 26.4639 434.862 l 1
 61.5098 436.294 l 2
 79.3906 436.294 90.1191 430.57 93.6953 419.128 c 0
 96.5566 411.975 97.9873 396.24 97.9873 371.922 c 2
 97.9873 -134.464 l 2
 97.9873 -160.213 92.9805 -178.094 82.9668 -188.106 c 0
 72.2383 -198.835 52.9277 -203.842 23.6025 -203.842 c 1
 23.6025 -221.008 l 1
 285.378 -221.008 l 1
 285.378 -200.98 l 1
 247.471 -200.98 222.438 -195.975 210.994 -187.392 c 0
 197.405 -177.379 190.253 -157.352 190.253 -125.881 c 2
440.584 236.027 m 0
 440.584 179.524 431.287 133.033 413.406 96.5566 c 0
 389.803 48.6357 353.326 25.0332 304.69 25.0332 c 0
 282.518 25.0332 258.915 31.4707 234.597 45.0596 c 0
 205.272 60.0801 190.253 77.9609 190.253 97.9873 c 2
 190.253 370.492 l 1
 192.398 380.505 197.405 389.803 205.272 398.386 c 0
 213.14 406.969 221.723 414.836 232.45 421.273 c 0
 242.464 427.71 253.193 432.717 265.352 436.294 c 0
 276.796 440.584 288.239 442.015 300.398 442.015 c 0
 325.432 442.015 347.604 436.294 365.485 423.418 c 0
 383.366 410.544 398.386 394.094 409.114 374.067 c 0
 420.558 354.041 428.425 331.868 433.432 307.551 c 0
 438.438 283.232 440.584 258.915 440.584 236.027 c 0
EndSplineSet
Fore
SplineSet
211 441 m 0
 211 439 215 437 215 437 c 1
 183 328 l 1
 242 409 289 441 354 441 c 0
 425 441 469 394 469 316 c 0
 469 157 315 -12 168 -12 c 0
 146 -12 127 -7 103 6 c 1
 83 -67 66 -146 66 -160 c 0
 66 -182 83 -190 130 -190 c 1
 130 -205 l 1
 -75 -205 l 1
 -75 -189 l 1
 -32 -187 -19 -176 -7 -130 c 0
 13 -34 122 356 122 376 c 0
 122 393 95 412 82 404 c 1
 56 404 l 1
 54 419 l 1
 208 441 l 1
 209 442 l 1
 209 442 211 442 211 441 c 0
166 7 m 0
 293 7 379 202 379 312 c 0
 379 371 360 395 316 398 c 0
 267 401 209 352 182 284 c 0
 152 209 117 79 117 45 c 0
 117 23 138 7 166 7 c 0
EndSplineSet
EndChar

StartChar: q
Encoding: 113 113 81
Width: 499
Flags: MW
HStem: -209 19<149 227.904 316.55 391> -12 54<95.125 202.627> 419 22<260.669 365.972>
VStem: 25 86<56.3738 205.336>
LayerCount: 2
Back
SplineSet
552.161 -234.597 m 1
 552.161 -216.716 l 1
 505.671 -208.134 482.068 -186.676 482.068 -153.774 c 2
 482.068 505.671 l 1
 479.206 508.531 l 1
 473.485 507.101 l 1
 411.26 468.479 l 1
 364.769 494.942 323.286 508.531 286.81 508.531 c 0
 248.901 508.531 214.569 500.664 184.531 486.359 c 0
 154.491 471.339 128.742 451.312 108 426.28 c 0
 86.543 400.532 70.0928 371.922 58.6494 339.021 c 0
 47.2051 306.12 40.7686 271.789 40.7686 234.597 c 0
 40.7686 203.842 44.3447 174.518 50.7812 145.192 c 0
 57.2188 115.868 67.2324 90.1191 82.252 67.2324 c 0
 96.5566 45.0596 115.152 27.1787 138.756 12.874 c 0
 161.644 -0.714844 189.538 -7.15234 222.438 -7.15234 c 0
 236.027 -7.15234 252.478 -5.72168 271.074 -1.43066 c 0
 289.67 2.14551 306.12 8.58301 321.14 16.4502 c 2
 361.908 42.1992 l 1
 391.233 68.6621 l 1
 391.233 -130.173 l 2
 391.233 -159.498 382.649 -180.954 366.2 -193.828 c 0
 349.75 -207.419 324.001 -213.854 290.385 -213.854 c 1
 290.385 -234.597 l 1
 552.161 -234.597 l 1
391.233 142.332 m 1
 384.081 99.418 l 1
 364.054 71.5234 328.292 57.2188 276.796 57.2188 c 0
 251.763 57.2188 229.59 63.6562 211.709 75.8145 c 0
 193.828 88.6895 178.809 105.14 167.365 125.881 c 0
 156.637 146.624 148.768 168.795 143.762 193.113 c 0
 138.756 217.432 135.895 241.749 135.895 265.352 c 0
 135.895 290.385 138.756 315.418 143.762 340.452 c 0
 148.768 365.485 156.637 388.373 167.365 408.399 c 0
 178.809 429.141 193.828 445.591 213.14 458.465 c 0
 232.45 471.339 255.338 477.776 282.518 477.776 c 0
 354.757 477.776 391.233 441.301 391.233 369.061 c 2
 391.233 142.332 l 1
EndSplineSet
Fore
SplineSet
391 -190 m 1
 391 -209 l 1
 149 -209 l 1
 149 -193 l 1
 215 -187 231 -180 245 -141 c 2
 333 152 l 1
 245 26 198 -12 127 -12 c 0
 64 -12 25 34 25 105 c 0
 25 256 186 441 318 441 c 0
 359 441 379 425 395 379 c 1
 410 426 l 1
 483 426 l 1
 319 -151 l 2
 318 -155 316 -160 316 -163 c 0
 316 -182 337 -190 374 -190 c 2
 391 -190 l 1
167 42 m 0
 275 42 379 257 379 357 c 0
 379 393 354 419 321 419 c 0
 222 419 111 224 111 119 c 0
 111 72 133 42 167 42 c 0
EndSplineSet
EndChar

StartChar: r
Encoding: 114 114 82
Width: 388
Flags: MW
HStem: 0 21G<45 147.5> 376 65<296.5 363.507> 397 18<73 104.213>
LayerCount: 2
Back
SplineSet
388.373 449.883 m 0
 388.373 433.432 384.081 420.558 375.499 412.689 c 0
 367.631 404.107 357.618 399.815 345.458 399.815 c 0
 337.591 399.815 330.438 401.962 324.001 406.254 c 0
 316.85 410.544 310.412 415.551 304.69 420.558 c 0
 298.969 425.564 293.246 429.855 287.524 434.147 c 0
 282.518 438.438 276.796 440.584 271.074 440.584 c 0
 254.623 440.584 237.457 429.855 219.576 406.969 c 0
 202.412 384.081 193.113 364.054 193.113 348.319 c 2
 193.113 100.848 l 2
 193.113 43.6289 224.583 14.3047 286.81 14.3047 c 1
 286.81 0 l 1
 22.1719 0 l 1
 22.1719 14.3047 l 1
 38.623 18.5957 52.2119 22.1719 62.2256 25.0332 c 0
 72.2383 27.8945 80.1064 30.7549 85.1133 33.6162 c 0
 90.1191 36.4766 93.6953 43.6289 95.8418 55.7881 c 0
 98.7021 67.2324 99.418 80.1064 99.418 93.6953 c 2
 99.418 370.492 l 2
 99.418 393.379 96.5566 409.829 90.1191 421.988 c 0
 83.6826 433.432 74.3848 438.438 62.9404 436.294 c 2
 25.0332 432.002 l 1
 25.0332 449.883 l 1
 60.0801 462.042 90.835 473.485 118.014 482.783 c 0
 144.478 492.082 168.08 500.664 187.392 508.531 c 1
 193.113 508.531 l 1
 193.113 408.399 l 1
 237.457 474.916 282.518 508.531 328.292 508.531 c 0
 368.346 508.531 388.373 488.505 388.373 449.883 c 0
EndSplineSet
Fore
SplineSet
366 340 m 0
 323 340 336 376 313 376 c 0
 297 376 270 346 236 289 c 0
 190 212 173 170 122 0 c 1
 45 0 l 1
 126 291 l 2
 142 360 142 360 142 374 c 0
 142 393 129 401 107 401 c 0
 100 401 97 401 73 397 c 1
 73 415 l 1
 146 426 155 428 229 441 c 1
 231 439 l 1
 179 223 l 1
 192 258 l 2
 209 299 296 441 365 441 c 0
 393 441 412 420 412 390 c 0
 412 357 395 340 366 340 c 0
EndSplineSet
EndChar

StartChar: s
Encoding: 115 115 83
Width: 388
Flags: MW
HStem: -12 22<98.3394 208.205> 417 24<191.167 293.452>
VStem: 108 74<303.904 397.944> 229 76<46.8023 149.043>
LayerCount: 2
Back
SplineSet
380.505 131.604 m 0
 380.505 87.9736 365.485 53.6426 334.014 29.3242 c 0
 302.544 5.00684 264.637 -7.15234 219.576 -7.15234 c 0
 205.272 -7.15234 181.669 -4.29102 149.484 1.43066 c 2
 92.2656 11.4434 l 2
 83.6826 11.4434 75.0996 7.86719 67.2324 0 c 1
 52.9277 0 l 1
 52.9277 170.226 l 1
 72.9541 170.226 l 1
 75.8145 145.192 80.8213 126.597 87.9736 113.007 c 1
 107.285 67.2324 l 1
 128.742 31.4707 163.788 12.874 212.426 12.874 c 0
 273.219 12.874 303.259 40.0527 303.259 93.6953 c 0
 303.259 125.166 283.948 152.345 246.041 175.947 c 2
 125.881 247.471 l 1
 90.835 278.226 l 2
 65.0859 298.969 52.9277 330.438 52.9277 373.353 c 0
 52.9277 394.094 57.2188 412.689 65.8018 429.141 c 0
 74.3848 445.591 85.8281 459.896 100.133 471.339 c 0
 114.438 483.498 130.888 492.082 149.484 498.519 c 0
 168.08 504.956 187.392 508.531 208.134 508.531 c 0
 227.444 508.531 241.034 507.101 248.901 504.956 c 0
 256.77 502.094 263.922 499.949 269.644 497.804 c 2
 308.982 484.93 l 1
 316.133 484.93 322.571 489.936 328.292 499.233 c 1
 341.167 499.233 l 1
 346.888 348.319 l 1
 328.292 348.319 l 1
 307.551 438.438 266.782 483.498 205.272 483.498 c 0
 154.491 483.498 125.881 459.181 120.159 409.829 c 1
 120.159 376.928 135.895 351.18 168.795 332.584 c 2
 288.239 262.49 l 2
 319.71 243.896 341.882 226.729 354.757 210.994 c 0
 371.922 190.253 380.505 163.788 380.505 131.604 c 0
EndSplineSet
Fore
SplineSet
160 -12 m 0
 129 -12 92 7 56 7 c 0
 45 7 40 3 32 -13 c 1
 16 -13 l 1
 37 146 l 1
 53 146 l 1
 67 51 100 10 154 10 c 0
 198 10 229 42 229 86 c 0
 229 163 108 248 108 331 c 0
 108 398 157 441 230 441 c 0
 268 441 304 423 322 423 c 0
 335 423 344 428 352 442 c 1
 366 442 l 1
 346 303 l 1
 330 303 l 1
 319 381 290 417 237 417 c 0
 204 417 182 397 182 365 c 0
 182 289 305 213 305 119 c 0
 305 42 245 -12 160 -12 c 0
EndSplineSet
EndChar

StartChar: t
Encoding: 116 116 84
Width: 276
Flags: MW
HStem: -12 50<89.0022 136.563> 395 33<215 291>
VStem: 132 75<112.665 395>
LayerCount: 2
Back
SplineSet
314.703 72.9541 m 1
 308.982 61.5098 301.829 50.7812 292.531 40.7686 c 0
 283.232 31.4707 272.504 22.8877 261.062 15.7354 c 0
 248.901 7.86719 236.742 2.14551 223.153 -1.43066 c 0
 210.279 -5.72168 197.405 -7.15234 185.961 -7.15234 c 0
 119.444 -7.15234 86.543 38.623 86.543 130.173 c 2
 86.543 461.325 l 1
 26.4639 461.325 l 1
 22.1719 469.909 l 1
 41.4834 484.93 58.6494 499.233 72.9541 514.253 c 0
 91.5498 532.851 108.716 551.446 123.021 571.473 c 0
 138.04 590.783 153.774 613.671 171.657 640.135 c 1
 177.379 623.684 l 1
 177.379 497.804 l 1
 290.385 497.804 l 1
 290.385 461.325 l 1
 177.379 461.325 l 1
 177.379 146.624 l 2
 177.379 80.1064 195.975 47.2051 233.167 47.2051 c 0
 256.055 47.2051 278.941 59.3643 301.829 85.1133 c 1
 314.703 72.9541 l 1
EndSplineSet
Fore
SplineSet
296 428 m 1
 291 395 l 1
 207 395 l 1
 119 63 l 1
 119 59 l 2
 119 45 125 38 133 38 c 0
 149 38 166 54 214 117 c 1
 227 110 l 1
 164 18 130 -12 85 -12 c 0
 59 -12 37 4 37 26 c 0
 37 47 58 113 60 122 c 2
 132 395 l 1
 59 395 l 1
 57 398 57 401 57 401 c 1
 57 413 64 419 89 428 c 0
 122 437 183 486 223 538 c 0
 229 545 231 546 237 546 c 0
 242 546 245 543 245 536 c 2
 245 532 l 1
 215 428 l 1
 296 428 l 1
EndSplineSet
EndChar

StartChar: u
Encoding: 117 117 85
Width: 499
Flags: MW
HStem: -9 51<89.5728 162.787 338.001 393.197> 400 15<59 98.5233> 421 20<179.5 211 362.5 464>
VStem: 289 79<19.3564 70.1186>
LayerCount: 2
Back
SplineSet
545.008 39.3379 m 1
 539.287 38.623 530.704 37.1924 519.975 34.3311 c 0
 509.246 32.1855 495.657 27.8945 479.206 22.1719 c 2
 391.233 -5.72168 l 1
 389.803 85.1133 l 1
 341.167 36.4766 l 1
 308.982 7.15234 271.074 -7.15234 226.729 -7.15234 c 0
 196.688 -7.15234 168.795 0.714844 142.332 16.4502 c 1
 110.146 45.0596 93.6953 84.3975 93.6953 133.033 c 2
 93.6953 411.26 l 2
 93.6953 440.584 86.543 460.61 71.5234 469.909 c 1
 62.9404 479.206 47.9209 483.498 26.4639 483.498 c 1
 26.4639 497.804 l 1
 185.961 497.804 l 1
 185.961 139.471 l 2
 185.961 114.438 193.828 94.4111 209.563 79.3906 c 1
 211.709 74.3848 214.569 70.8086 218.861 67.9473 c 0
 223.153 65.8018 228.16 62.9404 234.597 60.0801 c 1
 271.074 55.7881 l 1
 303.976 55.7881 336.16 68.6621 366.2 93.6953 c 0
 377.643 101.563 384.081 119.444 384.081 148.053 c 2
 384.081 409.829 l 2
 384.081 439.154 377.643 458.465 366.2 466.332 c 0
 354.757 474.916 333.299 479.206 301.829 479.206 c 1
 301.829 497.804 l 1
 477.776 497.804 l 1
 477.776 120.159 l 2
 477.776 92.9805 481.353 75.0996 489.937 67.9473 c 0
 498.519 60.7949 516.399 57.2188 545.008 57.2188 c 1
 545.008 39.3379 l 1
EndSplineSet
Fore
SplineSet
119 376 m 0
 119 395 98 400 59 400 c 1
 59 415 l 1
 116 420 151 428 208 441 c 1
 211 439 l 1
 120 76 l 2
 119 73 119 70 119 67 c 0
 119 53 127 42 141 42 c 0
 171 42 221 92 281 187 c 0
 327 261 334 277 391 432 c 1
 464 432 l 1
 387 133 l 2
 368 62 368 62 368 56 c 0
 368 44 371 38 378 38 c 0
 394 38 409 53 461 117 c 1
 475 108 l 1
 407 12 384 -9 337 -9 c 0
 308 -9 289 9 289 40 c 0
 289 60 305 129 334 236 c 1
 220 42 166 -12 95 -12 c 0
 60 -12 42 7 42 44 c 0
 42 62 48 97 67 167 c 2
 104 309 l 2
 113 343 119 368 119 376 c 0
EndSplineSet
EndChar

StartChar: v
Encoding: 118 118 86
Width: 443
Flags: MW
HStem: -18 20 403 13<21 49.6749> 421 20G<148.5 156.5 360 385.5>
VStem: 375 51<300.954 390.867>
LayerCount: 2
Back
SplineSet
515.685 480.638 m 1
 496.372 480.638 480.638 469.909 468.479 449.883 c 0
 464.188 439.869 459.896 430.57 456.319 422.703 c 0
 452.743 414.121 448.451 404.822 444.161 394.094 c 1
 303.259 40.7686 l 1
 278.226 -2.86133 l 1
 272.504 -10.0137 l 1
 262.49 1.43066 l 1
 243.181 36.4766 l 1
 71.5234 439.154 l 1
 54.3574 462.757 l 1
 43.6289 474.916 28.6094 480.638 10.0137 480.638 c 1
 10.0137 497.804 l 1
 225.3 497.804 l 1
 225.3 480.638 l 1
 192.398 477.776 175.947 466.332 175.947 447.021 c 0
 175.947 442.015 176.662 436.294 178.809 430.57 c 0
 180.954 424.85 183.1 417.696 185.961 408.399 c 2
 297.537 127.312 l 1
 369.061 310.412 l 2
 382.649 345.458 392.663 373.353 399.101 393.379 c 0
 405.537 413.406 409.829 429.855 413.406 444.161 c 1
 413.406 449.883 l 2
 413.406 459.181 408.399 467.049 399.101 472.056 c 0
 389.803 477.776 377.643 480.638 361.908 480.638 c 1
 361.908 497.804 l 1
 515.685 497.804 l 1
 515.685 480.638 l 1
EndSplineSet
Fore
SplineSet
375 333 m 0
 375 365 333 364 333 407 c 0
 333 428 349 441 371 441 c 0
 400 441 426 415 426 382 c 0
 426 346 400 280 365 230 c 0
 264 88 170 -18 145 -18 c 0
 138 -18 136 -12 136 18 c 0
 136 75 125 226 114 294 c 0
 100 387 89 404 51 404 c 0
 40 404 32 404 21 403 c 1
 21 416 l 1
 111 430 145 441 152 441 c 0
 161 441 161 439 182 337 c 0
 193 264 201 211 207 70 c 1
 237 103 l 2
 309 176 375 287 375 333 c 0
EndSplineSet
EndChar

StartChar: w
Encoding: 119 119 87
Width: 666
Flags: MW
HStem: -18 20 404 13<16 29.1846 29.1846 83.1417> 421 20G<135 146.5 584.5 610.5>
VStem: 117 73<126 328.024> 601 46<312.158 394.938>
LayerCount: 2
Back
SplineSet
751.712 480.638 m 1
 735.976 477.776 720.957 457.75 705.937 421.988 c 2
 553.592 39.3379 l 1
 532.851 1.43066 l 1
 522.837 -10.0137 l 1
 517.114 -10.0137 508.531 4.29102 496.372 33.6162 c 2
 396.955 293.246 l 1
 272.504 29.3242 l 1
 267.497 15.7354 261.062 5.72168 253.193 0 c 1
 246.041 -10.0137 l 1
 231.735 4.29102 221.723 19.3115 216.716 35.0469 c 1
 47.2051 457.035 l 1
 42.1992 471.339 30.04 479.206 10.0137 480.638 c 1
 10.0137 497.804 l 1
 208.134 497.804 l 1
 208.134 480.638 l 1
 173.087 477.776 155.206 465.617 155.206 444.161 c 0
 155.206 434.862 168.795 394.809 195.975 324.001 c 2
 272.504 124.451 l 1
 373.353 344.027 l 1
 346.888 416.267 l 1
 326.863 457.035 l 1
 316.133 467.764 298.252 475.631 273.936 480.638 c 1
 273.936 497.804 l 1
 497.804 497.804 l 1
 497.804 480.638 l 1
 454.175 469.909 l 1
 441.3 464.188 434.862 454.175 434.862 439.154 c 0
 434.862 433.432 442.729 409.114 458.465 366.2 c 2
 546.439 128.742 l 1
 647.288 373.353 l 2
 651.578 382.649 655.155 394.094 658.73 407.684 c 0
 661.592 421.988 663.737 434.147 663.737 444.161 c 0
 663.737 459.181 648.003 471.339 616.531 480.638 c 1
 616.531 497.804 l 1
 751.712 497.804 l 1
 751.712 480.638 l 1
EndSplineSet
Fore
SplineSet
647 390 m 0
 647 275 428 29 428 25 c 1
 400 -7 390 -18 382 -18 c 0
 375 -18 374 -15 371 12 c 2
 341 331 l 1
 253 174 l 2
 177 43 154 -18 133 -18 c 0
 125 -18 123 -10 122 29 c 2
 117 117 l 2
 114 196 103 302 89 359 c 0
 83 397 73 407 45 404 c 2
 16 404 l 1
 16 417 l 1
 28 419 38 420 42 420 c 0
 124 435 129 441 141 441 c 0
 152 441 154 434 166 371 c 0
 176 300 187 196 190 126 c 1
 382 431 l 2
 387 438 390 439 395 439 c 0
 401 439 403 437 403 426 c 2
 435 75 l 1
 565 237 601 291 601 334 c 0
 601 366 557 376 557 407 c 0
 557 428 573 441 596 441 c 0
 625 441 647 419 647 390 c 0
EndSplineSet
EndChar

StartChar: x
Encoding: 120 120 88
Width: 443
Flags: MW
HStem: -12 59<-6.55522 72.506 285.753 344.587> 385 56<352.325 427.428> 404 37<98.403 187.505>
LayerCount: 2
Back
SplineSet
531.419 0 m 1
 308.982 0 l 1
 308.982 14.3047 l 1
 338.306 20.7422 l 2
 346.888 23.6025 351.895 31.4707 351.895 45.0596 c 0
 351.895 49.3516 349.75 54.3574 346.888 60.0801 c 0
 344.027 65.8018 340.452 72.9541 335.445 80.8213 c 2
 246.041 216.716 l 1
 158.066 82.252 l 2
 152.345 72.2383 147.338 63.6562 143.762 55.7881 c 0
 139.471 47.9209 137.325 40.7686 135.895 35.0469 c 0
 138.04 21.457 153.06 14.3047 180.239 14.3047 c 1
 180.239 0 l 1
 20.7422 0 l 1
 20.7422 14.3047 l 1
 42.1992 19.3115 54.3574 23.6025 58.6494 27.8945 c 0
 66.5166 31.4707 73.6689 37.9072 80.8213 45.0596 c 0
 87.2588 52.9277 94.4111 62.2256 102.278 72.9541 c 2
 228.16 256.055 l 1
 124.451 414.836 l 2
 108.716 437.724 91.5498 457.75 72.9541 474.916 c 1
 29.3242 480.638 l 1
 29.3242 497.804 l 1
 257.484 497.804 l 1
 257.484 480.638 l 1
 226.729 480.638 210.994 472.056 210.994 455.604 c 0
 210.994 444.161 233.167 404.107 276.796 336.875 c 1
 300.398 371.207 318.279 397.67 330.438 417.696 c 0
 342.598 437.009 349.034 449.883 349.75 455.604 c 0
 349.75 472.056 335.445 480.638 306.12 480.638 c 1
 306.12 497.804 l 1
 480.638 497.804 l 1
 480.638 480.638 l 1
 442.015 480.638 412.689 464.902 391.233 433.432 c 2
 298.969 300.398 l 1
 442.015 82.252 l 2
 456.319 62.2256 469.909 47.2051 484.213 35.0469 c 0
 498.519 23.6025 514.253 16.4502 531.419 14.3047 c 1
 531.419 0 l 1
EndSplineSet
Fore
SplineSet
334 44 m 0
 355 44 379 86 401 111 c 1
 416 103 l 1
 357 13 333 -12 294 -12 c 0
 262 -12 249 4 236 56 c 2
 207 176 l 1
 75 1 60 -12 23 -12 c 0
 -7 -12 -26 4 -26 31 c 0
 -26 51 -12 66 7 66 c 0
 30 66 49 47 64 47 c 0
 76 47 97 64 116 95 c 2
 198 212 l 1
 168 335 l 2
 155 395 149 404 125 404 c 0
 116 404 105 401 67 393 c 1
 64 409 l 1
 75 412 l 2
 136 432 170 441 192 441 c 0
 220 441 230 420 245 353 c 2
 255 297 l 1
 324 404 362 441 406 441 c 0
 431 441 447 425 447 404 c 0
 447 382 434 368 412 368 c 0
 393 368 376 385 360 385 c 0
 343 385 308 341 264 264 c 1
 264 241 303 85 303 85 c 2
 311 57 319 44 334 44 c 0
EndSplineSet
EndChar

StartChar: y
Encoding: 121 121 89
Width: 443
Flags: W
HStem: -207 56<10.9384 78.1724> 404 37<25.7777 138.326>
VStem: -23 449 387 39<294.453 389.153>
LayerCount: 2
Back
SplineSet
301.829 -19.3115 m 2
 473.485 432.002 l 1
 484.93 465.617 502.094 482.068 525.697 482.068 c 1
 525.697 497.804 l 1
 376.213 497.804 l 1
 376.213 482.068 l 1
 412.689 482.068 430.57 471.339 430.57 451.312 c 1
 318.994 128.742 l 1
 191.683 409.829 l 1
 183.1 424.85 178.809 437.724 178.809 449.883 c 0
 178.809 471.339 200.98 482.068 244.61 482.068 c 1
 244.61 497.804 l 1
 16.4502 497.804 l 1
 16.4502 483.498 l 1
 47.2051 477.776 65.8018 465.617 71.5234 447.021 c 1
 268.212 22.1719 l 2
 268.929 20.0264 269.644 17.166 269.644 12.874 c 1
 234.597 -70.0928 l 1
 210.279 -125.166 185.246 -152.345 159.498 -152.345 c 0
 150.199 -152.345 138.04 -148.768 124.451 -141.616 c 0
 110.861 -133.749 95.8418 -130.173 79.3906 -130.173 c 0
 42.9141 -130.173 25.0332 -147.338 25.0332 -181.669 c 0
 25.0332 -225.3 52.2119 -247.471 107.285 -247.471 c 0
 179.524 -247.471 243.896 -171.657 301.829 -19.3115 c 2
EndSplineSet
Fore
SplineSet
15 -123 m 0xe0
 44 -123 55 -151 76 -151 c 0
 89 -151 101 -144 122 -122 c 2
 185 -42 l 2
 199 -23 205 -7 205 7 c 0
 205 25 182 142 164 207 c 0
 119 379 103 404 45 404 c 0
 35 404 28 403 15 400 c 1
 15 417 l 1
 41 422 137 441 156 441 c 0
 177 441 232 257 245 187 c 2
 264 72 l 1
 349 212 387 291 387 331 c 0
 387 366 333 364 333 404 c 0
 333 426 349 441 371 441 c 0
 401 441 426 416 426 387 c 0xd0
 426 337 398 265 330 142 c 0
 223 -56 91 -207 26 -207 c 0
 -1 -207 -23 -187 -23 -163 c 0
 -23 -141 -7 -123 15 -123 c 0xe0
EndSplineSet
EndChar

StartChar: z
Encoding: 122 122 90
Width: 388
Flags: W
HStem: -81 21<235.254 303.185> -13 21G<-1 15> 368 60<101.268 308>
VStem: 308 55<-52.2447 13.8846>
LayerCount: 2
Back
SplineSet
448.451 146.624 m 1
 434.862 0 l 1
 17.8809 0 l 1
 17.8809 14.3047 l 1
 311.843 462.757 l 1
 156.637 462.757 l 2
 139.471 462.757 124.451 460.61 113.723 455.604 c 0
 102.278 450.598 92.9805 444.161 86.543 434.862 c 0
 79.3906 426.28 74.3848 416.267 71.5234 404.107 c 0
 68.6621 392.663 67.2324 379.789 65.8018 366.2 c 1
 42.1992 366.2 l 1
 47.2051 497.804 l 1
 433.432 497.804 l 1
 433.432 480.638 l 1
 134.464 33.6162 l 1
 286.81 33.6162 l 2
 311.843 33.6162 331.868 35.7617 347.604 39.3379 c 0
 364.054 43.6289 377.643 50.0664 388.373 59.3643 c 0
 399.101 68.6621 407.684 80.8213 414.121 95.8418 c 0
 419.843 110.861 425.564 130.173 429.141 152.345 c 1
 448.451 146.624 l 1
EndSplineSet
Fore
SplineSet
270 -81 m 0
 196 -81 124 4 53 4 c 0
 37 4 23 0 7 -13 c 1
 -1 -4 l 1
 308 368 l 1
 163 368 l 2
 116 368 103 359 81 309 c 1
 64 313 l 1
 97 428 l 1
 379 428 l 1
 379 417 l 1
 89 73 l 1
 148 60 167 47 211 -10 c 0
 245 -53 256 -60 281 -60 c 0
 297 -60 308 -54 308 -45 c 0
 308 -34 294 -19 294 0 c 0
 294 18 308 31 328 31 c 0
 349 31 363 16 363 -4 c 0
 363 -45 319 -81 270 -81 c 0
EndSplineSet
EndChar

StartChar: braceleft
Encoding: 123 123 91
Width: 399
Flags: W
VStem: 51 75<-151.693 -1.61716> 117 75<91.8164 235.604>
LayerCount: 2
Back
SplineSet
317.564 -183.1 m 1
 260.345 -183.1 218.861 -174.518 193.113 -156.637 c 0
 163.073 -135.18 148.053 -95.8418 148.053 -39.3379 c 2
 148.053 139.471 l 2
 148.053 174.518 141.616 200.266 129.457 217.432 c 0
 117.299 234.597 94.4111 247.471 61.5098 256.055 c 1
 93.6953 265.352 115.868 278.226 128.742 295.392 c 0
 141.616 312.558 148.053 337.591 148.053 371.922 c 2
 148.053 555.021 l 2
 148.053 610.81 163.073 649.433 193.113 670.891 c 0
 218.861 688.771 260.345 697.354 317.564 697.354 c 1
 317.564 685.194 l 1
 281.803 678.043 256.77 664.452 243.896 645.142 c 0
 231.021 626.545 223.868 597.936 223.868 559.313 c 2
 223.868 388.373 l 2
 223.868 348.319 218.146 317.564 206.702 297.537 c 1
 193.828 281.088 168.795 266.782 131.604 256.055 c 1
 151.63 250.331 166.65 243.896 178.809 237.457 c 0
 190.253 230.306 199.55 222.438 206.702 212.426 c 0
 213.14 202.412 218.146 190.968 220.293 176.662 c 0
 223.153 162.358 223.868 145.192 223.868 124.451 c 2
 223.868 -45.0596 l 2
 223.868 -82.252 231.021 -110.146 244.61 -128.742 c 0
 258.2 -147.338 282.518 -161.644 317.564 -171.657 c 1
 317.564 -183.1 l 1
EndSplineSet
Fore
SplineSet
51 -100 m 0x80
 51 -40 117 138 117 198 c 0
 117 227 104 242 64 255 c 1
 129 272 151 296 170 369 c 2
 218 546 l 2
 249 653 294 687 407 687 c 1
 404 677 l 1
 341 661 316 631 294 552 c 2
 250 384 l 2
 229 300 202 272 138 255 c 1
 176 237 192 220 192 192 c 0x40
 192 149 126 -63 126 -100 c 0
 126 -138 141 -155 179 -166 c 1
 176 -177 l 1
 83 -174 51 -154 51 -100 c 0x80
EndSplineSet
EndChar

StartChar: bar
Encoding: 124 124 92
Width: 273
Flags: W
HStem: -18 684<105 171 105 171 105 105>
VStem: 105 66<-18 666>
LayerCount: 2
Back
SplineSet
142.332 -177.379 m 1
 90.835 -177.379 l 1
 90.835 693.062 l 1
 142.332 693.062 l 1
 142.332 -177.379 l 1
EndSplineSet
Fore
SplineSet
105 -18 m 1
 105 666 l 1
 171 666 l 1
 171 -18 l 1
 105 -18 l 1
EndSplineSet
EndChar

StartChar: braceright
Encoding: 125 125 93
Width: 399
Flags: W
VStem: 208 75<274.325 419.405> 274 75<512.496 661.485>
LayerCount: 2
Back
SplineSet
294.677 256.055 m 1
 261.062 247.471 238.174 234.597 225.3 216.716 c 0
 213.14 199.55 206.702 173.087 206.702 139.471 c 2
 206.702 -39.3379 l 2
 206.702 -95.8418 191.683 -135.18 162.358 -156.637 c 0
 138.04 -174.518 96.5566 -183.1 37.9072 -183.1 c 1
 37.9072 -171.657 l 1
 100.848 -155.921 131.604 -113.723 131.604 -45.0596 c 2
 131.604 124.451 l 2
 131.604 164.504 137.325 193.113 148.053 209.563 c 0
 159.498 230.306 185.246 245.324 223.868 254.623 c 1
 186.676 265.352 162.358 280.371 150.199 298.969 c 0
 138.04 317.564 131.604 346.888 131.604 388.373 c 2
 131.604 559.313 l 2
 131.604 596.506 125.166 624.4 111.576 643.711 c 0
 97.9873 663.022 72.9541 676.611 37.9072 685.194 c 1
 37.9072 697.354 l 1
 97.9873 697.354 139.471 688.771 163.788 670.891 c 0
 192.398 650.148 206.702 611.524 206.702 553.592 c 2
 206.702 371.922 l 2
 206.702 311.843 236.027 273.219 294.677 256.055 c 1
EndSplineSet
Fore
SplineSet
208 318 m 0x80
 208 358 274 576 274 609 c 0
 274 646 259 665 221 677 c 1
 224 687 l 1
 315 684 349 664 349 609 c 0x40
 349 550 283 379 283 312 c 0
 283 283 296 270 335 255 c 1
 271 237 249 214 230 141 c 2
 182 -37 l 2
 151 -144 105 -177 -7 -177 c 1
 -4 -166 l 1
 59 -149 83 -122 105 -42 c 2
 149 126 l 2
 171 209 196 237 264 255 c 1
 224 272 208 291 208 318 c 0x80
EndSplineSet
EndChar

StartChar: asciitilde
Encoding: 126 126 94
Width: 540
Flags: MW
HStem: 186 66<301.563 424.766> 253 66<115.78 243.972>
LayerCount: 2
Back
SplineSet
546.439 279.656 m 1
 517.114 241.749 l 1
 494.942 219.576 l 2
 476.346 200.98 451.312 191.683 419.128 191.683 c 0
 396.24 191.683 359.762 203.127 308.982 225.3 c 0
 261.062 248.901 223.868 261.062 195.975 261.062 c 0
 163.788 261.062 135.18 236.027 110.146 187.392 c 1
 72.9541 238.889 l 1
 104.424 297.537 146.624 326.863 200.98 326.863 c 0
 223.868 326.863 261.062 315.418 311.843 293.246 c 0
 361.908 271.789 397.67 259.63 420.558 257.484 c 0
 448.451 257.484 478.491 282.518 509.963 331.153 c 1
 546.439 279.656 l 1
EndSplineSet
Fore
SplineSet
163 319 m 0
 262 319 301 252 374 252 c 0
 404 252 422 264 448 303 c 1
 502 271 l 1
 456 207 425 186 379 186 c 0
 279 186 248 253 168 253 c 0
 138 253 120 242 94 204 c 1
 40 234 l 1
 86 299 117 319 163 319 c 0
EndSplineSet
EndChar

StartChar: uni0E10.descless
Encoding: 128 63232 95
Width: 521
Flags: W
HStem: 0 21G<283 364.536> 155 28<174.739 234.585> 289 33<193.178 278.904> 409 30<199.47 310.112> 463 42<451.108 538.329> 499 65<262.982 398.564>
VStem: 147 27<183.36 270.031> 253 29<200.964 271.893> 366 78<291.76 367.113>
LayerCount: 2
Back
SplineSet
359.048 288.239 m 1
 357.618 339.021 332.584 379.074 282.518 406.969 c 0
 242.464 428.425 193.113 439.154 134.464 439.154 c 0
 117.299 439.154 104.424 439.154 96.5566 438.438 c 0
 88.6895 438.438 82.252 437.724 77.9609 436.294 c 1
 90.1191 478.491 125.166 499.233 183.1 499.233 c 0
 191.683 499.233 203.127 497.087 216.716 492.797 c 0
 230.306 488.505 245.324 484.213 262.49 479.206 c 0
 279.656 473.485 294.677 469.193 307.551 466.332 c 0
 320.425 464.188 330.438 462.757 338.306 462.757 c 0
 393.379 462.757 429.141 494.227 447.021 556.453 c 1
 416.267 556.453 l 1
 409.114 542.147 401.247 529.988 393.379 519.975 c 0
 384.796 509.963 372.638 505.671 356.187 505.671 c 0
 351.18 505.671 344.743 507.101 337.591 510.678 c 0
 330.438 514.253 322.571 517.83 313.987 522.121 c 0
 306.12 526.412 297.537 530.704 288.955 535.711 c 0
 281.088 540.002 273.936 543.578 268.212 546.439 c 0
 254.623 552.876 241.034 557.882 226.729 560.028 c 0
 213.14 562.889 199.55 563.605 185.961 563.605 c 0
 165.219 563.605 146.624 560.028 128.742 551.446 c 0
 111.576 542.862 95.126 532.134 81.5371 517.83 c 0
 67.2324 503.525 55.7881 487.075 47.2051 468.479 c 0
 37.9072 449.883 32.1855 429.855 29.3242 408.399 c 1
 96.5566 408.399 149.484 403.393 187.392 392.663 c 0
 248.901 376.213 281.088 341.167 282.518 286.81 c 1
 282.518 236.027 l 1
 271.789 263.922 256.055 285.378 235.312 300.398 c 0
 213.854 314.703 190.968 322.571 165.219 322.571 c 0
 138.04 322.571 118.014 313.987 104.424 298.252 c 0
 91.5498 281.803 85.1133 261.775 85.1133 237.457 c 0
 85.1133 217.432 90.835 199.55 102.994 181.669 c 0
 115.152 163.788 130.173 155.206 148.053 155.206 c 0
 167.365 155.206 183.1 163.073 194.543 179.524 c 0
 206.702 195.26 212.426 213.854 212.426 234.597 c 0
 212.426 250.331 210.279 262.49 205.272 272.504 c 1
 228.16 251.763 247.471 218.861 261.775 173.802 c 0
 275.365 128.027 282.518 70.0928 282.518 0 c 1
 359.048 0 l 1
 359.048 288.239 l 1
184.531 237.457 m 0
 184.531 219.576 180.954 205.987 173.802 196.688 c 0
 165.934 187.392 158.066 183.1 148.053 183.1 c 0
 137.325 183.1 128.742 187.392 122.305 196.688 c 0
 115.868 205.987 113.007 219.576 113.007 237.457 c 0
 113.007 251.763 115.868 263.922 122.305 273.936 c 0
 128.742 283.948 137.325 288.239 148.053 288.239 c 0
 159.498 288.239 168.795 283.232 175.232 271.789 c 0
 181.669 260.345 184.531 248.901 184.531 237.457 c 0
EndSplineSet
Fore
SplineSet
467 463 m 0xfb80
 419 463 354 499 322 499 c 0
 265 499 224 479 199 437 c 1
 209 438 221 439 256 439 c 0
 355 439 444 407 444 322 c 0
 444 312 442 300 439 289 c 2
 359 0 l 1
 283 0 l 1
 302 67 310 122 310 167 c 0
 310 216 300 251 281 272 c 1
 282 270 282 267 282 264 c 0
 282 214 238 155 190 155 c 0
 163 155 147 181 147 211 c 0
 147 270 197 322 255 322 c 0
 306 322 341 293 349 236 c 1
 355 261 366 289 366 317 c 0
 366 401 247 409 142 409 c 1
 177 494 261 564 343 564 c 0xf780
 430 564 461 505 497 505 c 0
 530 505 549 527 570 557 c 1
 601 557 l 1
 565 494 521 463 467 463 c 0xfb80
199 183 m 0
 222 183 253 216 253 256 c 0
 253 273 246 289 229 289 c 0
 199 289 174 247 174 212 c 0
 174 193 183 183 199 183 c 0
EndSplineSet
EndChar

StartChar: uni0E34.left
Encoding: 129 63233 96
Width: 0
Flags: W
HStem: 693 39<-297.76 -209.344> 798 52<-293.301 -127.45>
VStem: -397 86<718.254 773.428>
LayerCount: 2
Back
SplineSet
-248 731 m 4
 -159 731 -99 707 -50 668 c 5
 -53 715 -111 798 -196 798 c 4
 -233 798 -289 790 -297 754 c 4
 -298 753 -298 751 -298 749 c 4
 -298 732 -270 731 -248 731 c 4
-309 691 m 4
 -350 691 -382 699 -382 731 c 4
 -382 734 -382 737 -381 740 c 4
 -372 773 -327 809 -297 825 c 4
 -265 841 -229 850 -189 850 c 4
 -103 850 -19 778 -19 674 c 4
 -19 656 -21 638 -26 618 c 5
 -56 643 -100 664 -148 677 c 5
 -176 687 -214 693 -253 693 c 6
 -281 693 l 6
 -291 693 -302 693 -309 691 c 4
-234.597 668.029 m 1
 -238.174 679.473 -246.041 693.062 -256.77 708.081 c 0
 -268.212 723.102 -282.518 737.406 -299.684 750.996 c 0
 -316.85 763.87 -335.445 775.314 -355.472 784.613 c 0
 -375.499 793.91 -396.24 798.202 -417.696 798.202 c 0
 -426.28 798.202 -436.294 797.487 -447.021 796.056 c 0
 -457.75 794.625 -467.049 792.48 -476.346 789.618 c 0
 -484.93 786.757 -492.082 782.467 -497.804 776.029 c 0
 -504.24 770.308 -507.101 763.155 -507.101 754.572 c 0
 -507.101 743.843 -500.664 736.691 -487.79 734.546 c 0
 -474.916 732.4 -462.042 730.969 -449.883 730.969 c 0
 -429.855 730.969 -413.406 730.254 -399.101 728.108 c 0
 -384.796 725.962 -369.775 723.102 -353.326 719.525 c 0
 -330.438 714.52 -309.697 707.366 -291.1 698.784 c 0
 -271.789 690.2 -253.193 679.473 -234.597 668.029 c 1
-197.405 617.963 m 1
 -216.001 630.837 -237.457 642.281 -261.775 651.578 c 0
 -285.378 661.592 -309.697 670.176 -335.445 676.611 c 0
 -351.18 681.618 -368.346 685.194 -387.656 688.771 c 0
 -406.254 691.632 -425.564 693.062 -445.591 693.062 c 0
 -453.458 693.062 -462.042 693.062 -473.485 693.062 c 0
 -484.213 693.062 -492.797 692.347 -500.664 691.632 c 0
 -532.134 691.632 -555.021 695.924 -568.612 705.937 c 0
 -572.902 710.228 -577.194 715.234 -580.77 722.387 c 0
 -584.347 728.824 -585.776 734.546 -585.776 739.553 c 0
 -585.776 756.002 -579.34 772.453 -565.75 788.903 c 0
 -551.446 804.638 -538.572 816.797 -525.697 824.665 c 0
 -498.519 841.116 -464.902 849.698 -424.85 849.698 c 0
 -399.101 849.698 -373.353 843.977 -346.173 831.817 c 0
 -319.71 820.374 -295.392 803.923 -273.219 783.896 c 0
 -251.048 763.155 -233.167 738.838 -218.861 710.228 c 0
 -204.557 682.333 -197.405 651.578 -197.405 617.963 c 1
EndSplineSet
Fore
Refer: 179 3636 N 1 0 0 1 -81 0 2
EndChar

StartChar: uni0E35.left
Encoding: 130 63234 97
Width: 0
Flags: W
HStem: 693 39<-297.76 -209.344> 798 52<-293.301 -127.362>
VStem: -397 86<718.254 773.428>
LayerCount: 2
Back
SplineSet
-309 691 m 4
 -350 691 -382 699 -382 731 c 4
 -382 734 -382 737 -381 740 c 4
 -372 773 -327 809 -297 825 c 4
 -265 841 -229 850 -189 850 c 4
 -138 850 -94 826 -59 787 c 5
 -26 901 l 5
 31 901 l 5
 -22 712 l 5
 -20 700 -18 688 -18 676 c 4
 -18 658 -21 638 -26 618 c 5
 -56 643 -100 664 -148 677 c 5
 -176 687 -214 693 -253 693 c 6
 -281 693 l 6
 -291 693 -302 693 -309 691 c 4
-248 731 m 4
 -159 731 -99 707 -50 668 c 5
 -53 715 -111 798 -196 798 c 4
 -233 798 -289 790 -297 754 c 4
 -298 753 -298 751 -298 749 c 4
 -298 732 -270 731 -248 731 c 4
-219.576 901.194 m 1
 -276.796 901.194 l 1
 -276.796 786.757 l 1
 -298.969 806.069 -323.286 821.804 -348.319 832.532 c 0
 -374.067 843.977 -399.101 849.698 -424.85 849.698 c 0
 -464.902 849.698 -498.519 841.116 -525.697 824.665 c 0
 -538.572 816.797 -551.446 804.638 -565.75 788.903 c 0
 -579.34 772.453 -585.776 756.002 -585.776 739.553 c 0
 -585.776 734.546 -584.347 728.824 -580.77 722.387 c 0
 -577.194 715.234 -572.902 710.228 -568.612 705.937 c 0
 -555.021 695.924 -532.134 691.632 -500.664 691.632 c 0
 -492.797 692.347 -484.213 693.062 -473.485 693.062 c 0
 -462.042 693.062 -453.458 693.062 -445.591 693.062 c 0
 -425.563 693.062 -406.254 691.632 -387.656 688.771 c 0
 -368.346 685.194 -351.18 681.618 -335.445 676.611 c 0
 -309.697 670.176 -285.378 661.592 -261.775 651.578 c 0
 -237.457 642.281 -216.001 630.837 -197.405 617.963 c 1
 -197.405 651.578 -205.272 682.333 -219.576 711.658 c 1
 -219.576 901.194 l 1
-234.597 668.029 m 1
 -253.193 679.473 -271.789 690.2 -291.1 698.784 c 0
 -309.697 707.366 -330.438 714.52 -353.326 719.525 c 0
 -369.775 723.102 -384.796 725.962 -399.101 728.108 c 0
 -413.406 730.254 -429.855 730.969 -449.883 730.969 c 0
 -462.042 730.969 -474.916 732.4 -487.79 734.546 c 0
 -500.664 736.691 -507.101 743.843 -507.101 754.572 c 0
 -507.101 763.155 -504.24 770.308 -497.804 776.029 c 0
 -492.082 782.467 -484.93 786.757 -476.346 789.618 c 0
 -467.049 792.48 -457.75 794.625 -447.021 796.056 c 0
 -436.294 797.487 -426.28 798.202 -417.696 798.202 c 0
 -396.24 798.202 -375.498 793.91 -355.472 784.613 c 0
 -335.445 775.314 -316.85 763.87 -299.684 750.996 c 0
 -282.518 737.406 -268.212 723.102 -256.77 708.081 c 0
 -246.041 693.062 -238.174 679.473 -234.597 668.029 c 1
EndSplineSet
Fore
Refer: 180 3637 N 1 0 0 1 -81 0 2
EndChar

StartChar: uni0E36.left
Encoding: 131 63235 98
Width: 0
Flags: W
HStem: 693 39<-297.76 -209.344> 798 52<-293.301 -147.794> 872 36<-73.5559 1.06152>
VStem: -397 86<718.254 773.428> 3 39<798.231 869.907>
LayerCount: 2
Back
SplineSet
33 844 m 4
 33 801 0 763 -34 749 c 5
 -23 727 -18 703 -18 678 c 4
 -18 659 -21 639 -26 618 c 5
 -56 643 -100 664 -148 677 c 5
 -176 687 -214 693 -253 693 c 6
 -281 693 l 6
 -291 693 -302 693 -309 691 c 4
 -350 691 -382 699 -382 731 c 4
 -382 734 -382 737 -381 740 c 4
 -372 773 -327 809 -297 825 c 4
 -265 841 -229 850 -189 850 c 4
 -167 850 -145 845 -126 836 c 5
 -108 873 -67 901 -28 901 c 4
 9 901 33 877 33 844 c 4
-248 731 m 4
 -159 731 -99 707 -50 668 c 5
 -53 715 -111 798 -196 798 c 4
 -233 798 -289 790 -297 754 c 4
 -298 753 -298 751 -298 749 c 4
 -298 732 -270 731 -248 731 c 4
-38 864 m 4
 -65 864 -97 841 -97 809 c 4
 -97 790 -84 776 -63 776 c 4
 -34 776 -5 803 -5 833 c 4
 -5 852 -18 864 -38 864 c 4
-197.405 617.963 m 1
 -197.405 667.313 -212.426 710.228 -241.749 748.85 c 1
 -228.16 755.287 -217.432 765.301 -209.563 777.46 c 0
 -201.695 790.334 -197.405 804.638 -197.405 820.374 c 0
 -197.405 842.546 -205.272 861.857 -221.008 877.593 c 0
 -236.742 893.327 -256.055 901.194 -278.226 901.194 c 0
 -297.537 901.194 -314.703 894.759 -329.724 882.6 c 0
 -344.027 870.439 -353.326 854.705 -357.618 836.109 c 1
 -379.789 845.406 -402.677 849.698 -424.85 849.698 c 0
 -464.902 849.698 -498.519 841.116 -525.697 824.665 c 0
 -538.572 816.797 -551.446 804.638 -565.75 788.903 c 0
 -579.34 772.453 -585.776 756.002 -585.776 739.553 c 0
 -585.776 734.546 -584.347 728.824 -580.77 722.387 c 0
 -577.194 715.234 -572.902 710.228 -568.612 705.937 c 0
 -555.021 695.924 -532.134 691.632 -500.664 691.632 c 0
 -492.797 692.347 -484.213 693.062 -473.485 693.062 c 0
 -462.042 693.062 -453.458 693.062 -445.591 693.062 c 0
 -425.563 693.062 -406.254 691.632 -387.656 688.771 c 0
 -368.346 685.194 -351.18 681.618 -335.445 676.611 c 0
 -309.697 670.176 -285.378 661.592 -261.775 651.578 c 0
 -237.457 642.281 -216.001 630.837 -197.405 617.963 c 1
-234.597 668.029 m 1
 -253.193 679.473 -271.789 690.2 -291.1 698.784 c 0
 -309.697 707.366 -330.438 714.52 -353.326 719.525 c 0
 -369.775 723.102 -384.796 725.962 -399.101 728.108 c 0
 -413.406 730.254 -429.855 730.969 -449.883 730.969 c 0
 -462.042 730.969 -474.916 732.4 -487.79 734.546 c 0
 -500.664 736.691 -507.101 743.843 -507.101 754.572 c 0
 -507.101 763.155 -504.24 770.308 -497.804 776.029 c 0
 -492.082 782.467 -484.93 786.757 -476.346 789.618 c 0
 -467.049 792.48 -457.75 794.625 -447.021 796.056 c 0
 -436.294 797.487 -426.28 798.202 -417.696 798.202 c 0
 -396.24 798.202 -375.498 793.91 -355.472 784.613 c 0
 -335.445 775.314 -316.85 763.87 -299.684 750.996 c 0
 -282.518 737.406 -268.212 723.102 -256.77 708.081 c 0
 -246.041 693.062 -238.174 679.473 -234.597 668.029 c 1
-322.571 820.374 m 0
 -322.571 833.249 -318.279 843.262 -309.697 851.844 c 0
 -301.829 860.427 -291.1 864.004 -278.226 864.004 c 0
 -265.352 864.004 -255.338 860.427 -246.756 851.844 c 0
 -238.174 843.262 -234.597 833.249 -234.597 820.374 c 0
 -234.597 807.5 -238.174 796.771 -246.756 788.903 c 0
 -255.338 780.321 -265.352 776.029 -278.226 776.029 c 0
 -291.1 776.029 -301.829 780.321 -309.697 788.903 c 0
 -318.279 796.771 -322.571 807.5 -322.571 820.374 c 0
EndSplineSet
Fore
Refer: 181 3638 N 1 0 0 1 -81 0 2
EndChar

StartChar: uni0E37.left
Encoding: 132 63236 99
Width: 0
Flags: W
HStem: 693 39<-297.76 -209.344> 798 52<-293.301 -146.839>
VStem: -397 86<718.254 773.428>
LayerCount: 2
Back
SplineSet
-309 691 m 4
 -350 691 -382 699 -382 731 c 4
 -382 734 -382 737 -381 740 c 4
 -372 773 -327 809 -297 825 c 4
 -265 841 -229 850 -189 850 c 4
 -167 850 -146 845 -127 836 c 5
 -108 901 l 5
 -57 901 l 5
 -83 810 l 5
 -72 801 -62 792 -54 782 c 5
 -21 901 l 5
 31 901 l 5
 -22 712 l 5
 -20 700 -18 688 -18 676 c 4
 -18 658 -21 638 -26 618 c 5
 -56 643 -100 664 -148 677 c 5
 -176 687 -214 693 -253 693 c 6
 -281 693 l 6
 -291 693 -302 693 -309 691 c 4
-248 731 m 4
 -159 731 -99 707 -50 668 c 5
 -53 715 -111 798 -196 798 c 4
 -233 798 -289 790 -297 754 c 4
 -298 753 -298 751 -298 749 c 4
 -298 732 -270 731 -248 731 c 4
-219.576 901.194 m 1
 -271.074 901.194 l 1
 -271.074 782.467 l 1
 -281.803 791.764 -293.962 801.062 -307.551 810.361 c 1
 -307.551 901.194 l 1
 -359.048 901.194 l 1
 -359.048 836.109 l 1
 -381.22 845.406 -403.393 849.698 -424.85 849.698 c 0
 -464.902 849.698 -498.519 841.116 -525.697 824.665 c 0
 -538.572 816.797 -551.446 804.638 -565.75 788.903 c 0
 -579.34 772.453 -585.776 756.002 -585.776 739.553 c 0
 -585.776 734.546 -584.347 728.824 -580.77 722.387 c 0
 -577.194 715.234 -572.902 710.228 -568.612 705.937 c 0
 -555.021 695.924 -532.134 691.632 -500.664 691.632 c 0
 -492.797 692.347 -484.213 693.062 -473.485 693.062 c 0
 -462.042 693.062 -453.458 693.062 -445.591 693.062 c 0
 -425.563 693.062 -406.254 691.632 -387.656 688.771 c 0
 -368.346 685.194 -351.18 681.618 -335.445 676.611 c 0
 -309.697 670.176 -285.378 661.592 -261.775 651.578 c 0
 -237.457 642.281 -216.001 630.837 -197.405 617.963 c 1
 -197.405 651.578 -205.272 682.333 -219.576 711.658 c 1
 -219.576 901.194 l 1
-234.597 668.029 m 1
 -253.193 679.473 -271.789 690.2 -291.1 698.784 c 0
 -309.697 707.366 -330.438 714.52 -353.326 719.525 c 0
 -369.775 723.102 -384.796 725.962 -399.101 728.108 c 0
 -413.406 730.254 -429.855 730.969 -449.883 730.969 c 0
 -462.042 730.969 -474.916 732.4 -487.79 734.546 c 0
 -500.664 736.691 -507.101 743.843 -507.101 754.572 c 0
 -507.101 763.155 -504.24 770.308 -497.804 776.029 c 0
 -492.082 782.467 -484.93 786.757 -476.346 789.618 c 0
 -467.049 792.48 -457.75 794.625 -447.021 796.056 c 0
 -436.294 797.487 -426.28 798.202 -417.696 798.202 c 0
 -396.24 798.202 -375.498 793.91 -355.472 784.613 c 0
 -335.445 775.314 -316.85 763.87 -299.684 750.996 c 0
 -282.518 737.406 -268.212 723.102 -256.77 708.081 c 0
 -246.041 693.062 -238.174 679.473 -234.597 668.029 c 1
EndSplineSet
Fore
Refer: 182 3639 N 1 0 0 1 -81 0 2
EndChar

StartChar: ellipsis
Encoding: 133 8230 100
Width: 887
Flags: W
HStem: -12 112<68.7716 155.619 365.847 452.003 662.539 749.386>
VStem: 57 111<0.596924 87.0681> 354 110<-0.22839 87.9281> 650 112<1.24292 87.0681>
LayerCount: 2
Back
SplineSet
666.599 43.6289 m 0
 666.599 11.4434 647.288 -6.4375 609.38 -10.0137 c 1
 575.048 -10.0137 556.453 7.86719 552.161 43.6289 c 1
 552.161 82.9668 571.473 102.278 609.38 102.278 c 0
 625.115 102.278 638.704 96.5566 650.148 85.1133 c 0
 659.445 74.3848 664.452 60.7949 666.599 43.6289 c 0
442.015 43.6289 m 0
 442.015 11.4434 423.418 -6.4375 385.512 -10.0137 c 1
 351.18 -10.0137 331.868 7.86719 328.292 43.6289 c 1
 328.292 82.9668 346.888 102.278 385.512 102.278 c 0
 400.532 102.278 414.836 96.5566 426.28 85.1133 c 0
 434.862 74.3848 440.584 60.7949 442.015 43.6289 c 0
218.146 43.6289 m 0
 218.146 7.86719 199.55 -10.0137 160.928 -10.0137 c 0
 123.021 -10.0137 103.709 7.86719 103.709 43.6289 c 0
 103.709 82.9668 123.021 102.278 160.928 102.278 c 0
 199.55 102.278 218.146 82.9668 218.146 43.6289 c 0
EndSplineSet
Fore
SplineSet
111 100 m 0
 142 100 168 75 168 42 c 0
 168 13 142 -12 110 -12 c 0
 82 -12 57 15 57 42 c 0
 57 75 82 100 111 100 c 0
409 100 m 0
 439 100 464 75 464 42 c 0
 464 13 439 -12 407 -12 c 0
 379 -12 354 15 354 42 c 0
 354 75 379 100 409 100 c 0
706 100 m 0
 735 100 762 75 762 42 c 0
 762 13 735 -12 705 -12 c 0
 677 -12 650 15 650 42 c 0
 650 75 677 100 706 100 c 0
EndSplineSet
EndChar

StartChar: uni0E48.low_left
Encoding: 134 63237 101
Width: 0
Flags: W
LayerCount: 2
Back
SplineSet
4 874 m 5
 -20 802 -48 733 -76 665 c 5
 -81 656 -88 652 -97 652 c 4
 -104 652 -109 655 -109 662 c 4
 -109 663 -109 664 -108 665 c 5
 -98 737 -86 809 -69 874 c 5
 4 874 l 5
-238.889 874.731 m 1
 -244.61 786.757 l 1
 -261.062 665.169 l 1
 -262.49 656.585 -268.212 651.578 -276.796 651.578 c 0
 -285.378 651.578 -291.1 656.585 -293.246 665.169 c 1
 -307.551 786.757 l 1
 -311.843 874.731 l 1
 -238.889 874.731 l 1
EndSplineSet
Fore
Refer: 106 63242 N 1 0 0 1 -83 0 2
EndChar

StartChar: uni0E49.low_left
Encoding: 135 63238 102
Width: 0
Flags: W
HStem: 652 26<-260 -200.186> 652 34<-181 -90.6029> 727 27<-193.293 -168> 854 29<-178.029 -121.352>
VStem: -223 29<754.101 821.173> -121 29<768.714 848.749> 37 70<792.925 883>
LayerCount: 2
Back
SplineSet
-167 830 m 4xbc
 -167 772 -218 708 -256 686 c 5
 -199 686 -154 705 -116 744 c 4
 -81 779 -54 825 -38 883 c 5
 32 883 l 5
 12 809 -31 751 -94 709 c 4
 -148 674 -201 652 -264 652 c 6
 -343 652 l 5x7c
 -335 678 l 5
 -300 681 -271 697 -243 728 c 5
 -253 727 l 6
 -284 727 -299 741 -299 769 c 4
 -299 823 -258 883 -211 883 c 4
 -183 883 -167 860 -167 830 c 4xbc
-246 754 m 4
 -219 754 -196 792 -196 828 c 4
 -196 844 -203 854 -218 854 c 4
 -248 854 -270 814 -270 780 c 4
 -270 763 -261 754 -246 754 c 4
-212.426 883.313 m 1
 -212.426 808.93 -238.174 750.996 -290.385 708.798 c 0
 -312.558 691.632 -336.16 677.326 -360.479 667.313 c 0
 -384.796 657.3 -412.689 651.578 -444.161 651.578 c 2
 -522.837 651.578 l 1
 -522.837 678.043 l 1
 -489.937 680.903 -464.188 698.068 -445.591 728.108 c 1
 -455.604 726.679 l 2
 -496.372 726.679 -517.114 753.142 -517.114 805.354 c 0
 -517.114 825.381 -511.393 843.262 -499.949 858.997 c 0
 -489.22 875.446 -474.199 883.313 -455.604 883.313 c 0
 -437.724 883.313 -423.418 875.446 -411.26 859.712 c 0
 -399.815 843.977 -394.094 826.811 -394.094 806.784 c 0
 -394.094 751.712 -411.26 710.943 -447.021 685.194 c 1
 -389.803 685.194 -348.319 705.221 -322.571 743.843 c 0
 -309.697 761.726 -299.684 781.751 -293.246 804.638 c 0
 -286.093 827.525 -282.518 853.99 -282.518 883.313 c 1
 -212.426 883.313 l 1
-423.418 805.354 m 0
 -423.418 819.658 -426.28 831.103 -431.287 840.399 c 0
 -437.009 848.983 -444.876 853.99 -455.604 853.99 c 0
 -477.776 853.99 -489.22 837.539 -489.22 805.354 c 0
 -489.22 771.737 -477.776 754.572 -455.604 754.572 c 0
 -434.147 754.572 -423.418 771.737 -423.418 805.354 c 0
EndSplineSet
Fore
Refer: 107 63243 N 1 0 0 1 -83 0 2
EndChar

StartChar: uni0E4A.low_left
Encoding: 136 63239 103
Width: 0
Flags: W
HStem: 649 204 652 25<-277.635 -218.749> 816 34<-198.795 -146.221 -104.205 -38.441>
VStem: -305 27<677.145 760.409> -202 28<711.208 778.733> -150 28<759.127 782.999> -37 38<749.214 815.066>
LayerCount: 2
Back
SplineSet
-388 706 m 4
 -388 774 -317 848 -250 848 c 4
 -226 848 -211 835 -205 807 c 5
 -193 831 -166 848 -144 848 c 4
 -102 848 -82 831 -82 798 c 4
 -82 787 -84 775 -88 762 c 4
 -98 725 -117 699 -146 680 c 5
 -97 697 -64 737 -47 798 c 6
 -40 823 l 5
 -35 853 l 5
 29 853 l 5
 -7 716 -91 649 -218 649 c 5
 -211 678 l 5
 -168 687 -120 736 -120 786 c 4
 -120 806 -131 816 -151 816 c 4
 -176 816 -193 795 -205 753 c 5
 -233 753 l 5
 -230 764 -228 774 -228 783 c 4
 -228 805 -239 816 -261 816 c 4
 -271 816 -280 811 -291 803 c 5
 -268 803 -257 787 -257 762 c 4
 -257 752 -259 740 -262 728 c 4
 -277 677 -305 652 -346 652 c 4
 -373 652 -388 677 -388 706 c 4
-338 677 m 4
 -309 677 -285 716 -285 752 c 4
 -285 769 -292 779 -309 779 c 4
 -337 779 -361 737 -361 704 c 4
 -361 688 -354 677 -338 677 c 4
-206.702 852.559 m 1
 -206.702 716.665 -270.358 648.718 -398.386 648.718 c 1
 -398.386 678.043 l 1
 -381.935 682.333 -366.915 692.347 -354.757 708.081 c 0
 -341.882 724.532 -335.445 741.698 -335.445 760.294 c 0
 -335.445 797.487 -349.034 816.083 -376.213 816.083 c 0
 -401.962 816.083 -414.836 794.625 -414.836 753.142 c 1
 -442.015 753.142 l 1
 -442.015 794.625 -457.035 816.083 -486.359 816.083 c 0
 -496.372 816.083 -505.671 811.791 -514.253 802.493 c 1
 -497.804 802.493 -484.93 795.341 -477.062 781.751 c 0
 -468.479 767.447 -464.188 749.566 -464.188 728.108 c 0
 -464.188 677.326 -484.93 651.578 -525.697 651.578 c 0
 -542.147 651.578 -557.167 660.162 -569.327 675.896 c 0
 -581.486 692.347 -587.208 709.513 -587.208 728.108 c 0
 -587.208 750.281 -582.916 771.022 -574.333 789.618 c 0
 -566.466 803.923 -555.738 817.512 -542.862 829.672 c 0
 -529.273 841.831 -510.678 848.269 -486.359 848.269 c 0
 -460.61 848.269 -442.015 834.678 -429.141 806.784 c 1
 -426.28 818.943 -419.843 828.242 -409.829 836.109 c 0
 -400.532 843.977 -389.803 848.269 -379.074 848.269 c 0
 -325.432 848.269 -298.969 819.658 -298.969 761.726 c 0
 -298.969 725.247 -311.126 698.068 -335.445 679.473 c 1
 -290.385 697.354 -268.212 736.691 -268.212 798.202 c 2
 -268.212 823.235 l 1
 -271.074 852.559 l 1
 -206.702 852.559 l 1
-490.65 728.108 m 0
 -490.65 743.843 -493.512 756.002 -499.233 765.301 c 0
 -505.671 774.6 -514.253 779.606 -525.697 779.606 c 0
 -536.426 779.606 -545.008 773.883 -550.731 763.155 c 0
 -556.452 752.427 -559.313 740.982 -559.313 728.108 c 0
 -559.313 713.088 -556.453 700.931 -550.731 691.632 c 0
 -545.008 681.618 -536.426 676.611 -525.697 676.611 c 0
 -502.094 676.611 -490.65 693.777 -490.65 728.108 c 0
EndSplineSet
Fore
Refer: 108 63244 N 1 0 0 1 -81 0 2
EndChar

StartChar: uni0E4B.low_left
Encoding: 137 63240 104
Width: 0
Flags: W
HStem: 803 47<-169 -95 -8 65 -183 78 -169 -169>
VStem: -115 63<723.246 761.838>
LayerCount: 2
Back
SplineSet
-145 883 m 5
 -62 883 l 5
 -91 791 l 5
 -4 791 l 5
 -18 744 l 5
 -105 744 l 5
 -136 652 l 5
 -199 652 l 5
 -177 744 l 5
 -265 744 l 5
 -252 791 l 5
 -166 791 l 5
 -145 883 l 5
-389.803 883.313 m 1
 -385.512 791.049 l 1
 -471.339 791.049 l 1
 -471.339 743.843 l 1
 -384.081 743.843 l 1
 -379.074 651.578 l 1
 -316.133 651.578 l 1
 -311.843 743.843 l 1
 -223.868 743.843 l 1
 -223.868 791.049 l 1
 -310.412 791.049 l 1
 -306.12 883.313 l 1
 -389.803 883.313 l 1
EndSplineSet
Fore
Refer: 109 63245 N 1 0 0 1 -83 0 2
EndChar

StartChar: uni0E4C.low_left
Encoding: 138 63241 105
Width: 0
Flags: W
HStem: 652 38<-178.511 -114.675>
VStem: -243 63<691.059 787.539> -92 41<715.091 808.919>
LayerCount: 2
Back
SplineSet
-83 743 m 1
 -83 743 -81 762 -81 775 c 1
 -85 788 -92 795 -105 795 c 0
 -125 795 -146 778 -155 743 c 0
 -159 731 -161 721 -161 712 c 0
 -161 694 -152 686 -136 686 c 0
 -129 686 -116 691 -103 702 c 1
 -94 713 -88 731 -83 743 c 1
-45 779 m 0
 -45 716 -97 652 -149 652 c 0
 -191 652 -218 678 -218 716 c 0
 -218 725 -216 733 -214 743 c 0
 -195 811 -136 853 -32 880 c 0
 23 896 48 911 50 952 c 1
 117 967 l 1
 117 962 116 955 113 945 c 0
 104 914 82 891 22 872 c 0
 -15 860 -59 842 -79 826 c 1
 -56 820 -45 804 -45 779 c 0
-290.385 742.413 m 1
 -290.385 742.413 -290.385 745.989 -291.816 753.856 c 0
 -292.531 761.009 -293.962 768.162 -296.106 774.6 c 0
 -303.976 788.903 -313.987 795.341 -326.863 795.341 c 0
 -336.16 795.341 -344.743 791.049 -351.895 782.467 c 0
 -358.333 773.168 -361.908 760.294 -361.908 742.413 c 0
 -361.908 704.506 -349.75 685.194 -326.863 685.194 c 0
 -322.571 685.194 -318.279 687.34 -312.558 690.2 c 0
 -307.551 693.062 -302.544 696.639 -297.537 701.646 c 0
 -294.677 707.366 -292.531 714.52 -291.816 722.387 c 0
 -290.385 730.254 -290.385 736.691 -290.385 742.413 c 1
-307.551 826.096 m 1
 -273.219 817.512 -256.055 788.903 -256.055 740.982 c 0
 -256.055 718.095 -263.207 697.354 -276.796 678.758 c 0
 -290.385 660.877 -308.266 651.578 -329.724 651.578 c 0
 -354.757 651.578 -376.213 660.877 -394.094 678.043 c 0
 -411.26 695.924 -420.558 717.38 -420.558 742.413 c 0
 -420.558 776.744 -408.399 804.638 -384.796 826.811 c 0
 -360.479 848.983 -324.717 866.864 -276.796 880.453 c 0
 -251.763 888.32 -233.167 896.904 -222.438 906.918 c 0
 -211.709 916.215 -208.849 931.949 -213.854 951.977 c 1
 -150.914 966.996 l 1
 -150.199 961.99 -149.484 954.837 -149.484 944.825 c 0
 -149.484 929.089 -154.491 915.5 -163.788 904.057 c 0
 -173.802 891.897 -192.398 881.168 -219.576 871.871 c 0
 -236.027 865.434 -253.193 858.282 -270.358 850.413 c 0
 -287.524 841.831 -299.684 833.963 -307.551 826.096 c 1
EndSplineSet
Fore
Refer: 110 63246 N 1 0 0 1 -53 0 2
EndChar

StartChar: uni0E48.low
Encoding: 139 63242 106
Width: 0
Flags: MW
AnchorPoint: "AboveBase" 62 615 mark 0
LayerCount: 2
Back
SplineSet
-121.59 874.731 m 1
 -127.312 786.757 l 1
 -143.762 665.169 l 1
 -145.192 656.585 -150.914 651.578 -159.498 651.578 c 0
 -168.795 651.578 -173.802 656.585 -175.947 665.169 c 1
 -190.253 786.757 l 1
 -194.543 874.731 l 1
 -121.59 874.731 l 1
EndSplineSet
Fore
SplineSet
122 874 m 1
 91 787 l 1
 41 665 l 2
 37 656 29 652 21 652 c 0
 12 652 7 656 9 665 c 2
 28 787 l 1
 48 874 l 1
 122 874 l 1
EndSplineSet
EndChar

StartChar: uni0E49.low
Encoding: 140 63243 107
Width: 0
Flags: W
HStem: 652 26<-177 -117.186> 652 34<-98 -7.60291> 727 27<-110.293 -85> 854 29<-95.029 -38.3517>
VStem: -140 29<754.101 821.173> -38 29<768.714 848.749> 120 70<792.925 883>
AnchorPoint: "AboveBase" 62 615 mark 0
LayerCount: 2
Back
SplineSet
-54.3574 883.313 m 1
 -54.3574 808.93 -80.1064 750.996 -131.604 708.798 c 0
 -154.491 691.632 -177.379 677.326 -202.412 667.313 c 0
 -226.729 657.3 -254.623 651.578 -285.378 651.578 c 2
 -364.769 651.578 l 1
 -364.769 678.043 l 1
 -331.868 680.903 -305.405 698.068 -286.81 728.108 c 1
 -297.537 726.679 l 2
 -338.306 726.679 -359.048 753.142 -359.048 805.354 c 0
 -359.048 825.381 -353.326 843.262 -341.882 858.997 c 0
 -331.153 875.446 -316.133 883.313 -297.537 883.313 c 0
 -279.656 883.313 -265.352 875.446 -253.193 859.712 c 0
 -241.749 843.977 -236.027 826.811 -236.027 806.784 c 0
 -236.027 751.712 -253.193 710.943 -288.239 685.194 c 1
 -231.735 685.194 -190.253 705.221 -163.788 743.843 c 0
 -151.63 761.726 -141.616 781.751 -134.464 804.638 c 0
 -128.027 827.525 -124.451 853.99 -124.451 883.313 c 1
 -54.3574 883.313 l 1
-265.352 805.354 m 0
 -265.352 819.658 -267.497 831.103 -273.219 840.399 c 0
 -278.226 848.983 -286.81 853.99 -297.537 853.99 c 0
 -319.71 853.99 -331.153 837.539 -331.153 805.354 c 0
 -331.153 771.737 -319.71 754.572 -297.537 754.572 c 0
 -276.081 754.572 -265.352 771.737 -265.352 805.354 c 0
EndSplineSet
Fore
SplineSet
-9 831 m 0xbe
 -9 803 -33 723 -98 686 c 1
 -41 686 4 705 42 744 c 0
 78 779 104 825 120 883 c 1
 190 883 l 1
 149 733 4 652 -105 652 c 2
 -185 652 l 1x7e
 -177 678 l 1
 -142 681 -113 697 -85 728 c 1
 -95 727 l 2
 -125 727 -140 741 -140 770 c 0
 -140 828 -98 883 -53 883 c 0
 -25 883 -9 860 -9 831 c 0xbe
-88 754 m 0
 -53 754 -38 805 -38 828 c 0
 -38 843 -44 854 -60 854 c 0
 -101 854 -111 795 -111 780 c 0
 -111 763 -103 754 -88 754 c 0
EndSplineSet
EndChar

StartChar: uni0E4A.low
Encoding: 141 63244 108
Width: 0
Flags: MW
HStem: 649 204 652 25<-196.635 -137.749> 816 34<-117.795 -65.2211 -23.2049 42.559>
VStem: -224 27<677.145 760.409> -121 28<711.208 778.733> -69 28<759.127 782.999> 44 38<749.214 815.066>
AnchorPoint: "AboveBase" 62 615 mark 0
LayerCount: 2
Back
SplineSet
-42.1992 852.559 m 1
 -42.1992 716.665 -106.57 648.718 -234.597 648.718 c 1
 -234.597 678.043 l 1
 -217.432 682.333 -203.127 692.347 -190.253 708.081 c 0
 -177.379 724.532 -171.657 741.698 -171.657 760.294 c 0
 -171.657 797.487 -185.246 816.083 -212.426 816.083 c 0
 -237.457 816.083 -250.331 794.625 -250.331 753.142 c 1
 -278.226 753.142 l 1
 -278.226 794.625 -293.246 816.083 -322.571 816.083 c 0
 -331.868 816.083 -341.167 811.791 -349.75 802.493 c 1
 -333.299 802.493 -321.14 795.341 -312.558 781.751 c 0
 -304.69 767.447 -300.398 749.566 -300.398 728.108 c 0
 -300.398 677.326 -321.14 651.578 -361.908 651.578 c 0
 -378.359 651.578 -392.663 660.162 -404.822 675.896 c 0
 -416.981 692.347 -423.418 709.513 -423.418 728.108 c 0
 -423.418 738.838 -422.703 749.566 -420.558 759.579 c 0
 -418.413 769.593 -414.836 779.606 -409.829 789.618 c 0
 -402.677 806.069 -391.948 820.374 -378.359 831.817 c 0
 -365.485 843.977 -346.888 849.698 -322.571 849.698 c 0
 -297.537 849.698 -278.941 835.393 -265.352 806.784 c 1
 -262.49 818.943 -256.77 828.242 -248.187 836.109 c 0
 -240.318 843.977 -228.875 848.269 -215.286 848.269 c 0
 -161.644 848.269 -134.464 819.658 -134.464 761.726 c 0
 -134.464 725.247 -146.624 698.068 -171.657 679.473 c 1
 -126.597 697.354 -103.709 736.691 -103.709 798.202 c 2
 -103.709 823.235 l 1
 -107.285 852.559 l 1
 -42.1992 852.559 l 1
-326.863 728.108 m 0
 -326.863 743.843 -329.724 756.002 -335.445 765.301 c 0
 -341.167 774.6 -349.75 779.606 -361.908 779.606 c 0
 -372.638 779.606 -380.505 773.883 -386.941 763.155 c 0
 -392.663 752.427 -395.525 740.982 -395.525 728.108 c 0
 -395.525 713.088 -392.663 700.931 -386.941 691.632 c 0
 -380.505 681.618 -372.638 676.611 -361.908 676.611 c 0
 -338.306 676.611 -326.863 693.777 -326.863 728.108 c 0
EndSplineSet
Fore
SplineSet
18 680 m 1
 110 712 127 827 129 853 c 1
 193 853 l 1
 157 716 73 649 -54 649 c 1
 -47 678 l 1
 -12 686 44 730 44 785 c 0
 44 806 34 816 13 816 c 0
 -12 816 -29 795 -41 753 c 1
 -69 753 l 1
 -66 765 -64 775 -64 783 c 0
 -64 805 -75 816 -97 816 c 0
 -107 816 -116 811 -127 803 c 1
 -104 803 -93 786 -93 762 c 0
 -93 734 -110 652 -182 652 c 0
 -208 652 -224 677 -224 706 c 0
 -224 752 -174 850 -86 850 c 0
 -62 850 -47 835 -41 807 c 1
 -29 831 -7 848 21 848 c 0
 62 848 82 831 82 798 c 0
 82 786 77 719 18 680 c 1
-174 677 m 0
 -132 677 -121 739 -121 752 c 0
 -121 769 -129 779 -145 779 c 0
 -173 779 -197 735 -197 704 c 0
 -197 688 -189 677 -174 677 c 0
EndSplineSet
EndChar

StartChar: uni0E4B.low
Encoding: 142 63245 109
Width: 0
Flags: MW
HStem: 803 47<-86 -12 75 148 -100 161 -86 -86>
VStem: -32 63<723.246 761.838>
AnchorPoint: "AboveBase" 62 615 mark 0
LayerCount: 2
Back
SplineSet
-240.318 941.963 m 1
 -236.027 849.698 l 1
 -322.571 849.698 l 1
 -322.571 802.493 l 1
 -234.597 802.493 l 1
 -230.306 710.228 l 1
 -166.65 710.228 l 1
 -162.358 802.493 l 1
 -74.3848 802.493 l 1
 -74.3848 849.698 l 1
 -160.928 849.698 l 1
 -156.637 941.963 l 1
 -240.318 941.963 l 1
EndSplineSet
Fore
SplineSet
21 942 m 1
 104 942 l 1
 75 850 l 1
 161 850 l 1
 148 803 l 1
 60 803 l 1
 31 710 l 1
 -32 710 l 1
 -12 803 l 1
 -100 803 l 1
 -86 850 l 1
 0 850 l 1
 21 942 l 1
EndSplineSet
EndChar

StartChar: uni0E4C.low
Encoding: 143 63246 110
Width: 0
Flags: W
HStem: 652 38<-125.511 -61.6753>
VStem: -190 63<691.059 787.539> -39 41<715.091 808.919>
AnchorPoint: "AboveBase" 32 615 mark 0
LayerCount: 2
Back
SplineSet
-250.331 751.712 m 1
 -250.331 751.712 -251.048 755.287 -251.763 763.87 c 0
 -253.193 772.453 -254.623 779.606 -257.484 786.757 c 0
 -266.782 802.493 -277.511 810.361 -291.816 810.361 c 0
 -302.544 810.361 -311.843 805.354 -318.994 795.341 c 0
 -326.863 785.328 -331.153 771.022 -331.153 751.712 c 0
 -331.153 710.228 -317.564 690.2 -291.816 690.2 c 0
 -286.81 690.2 -281.088 691.632 -275.365 694.492 c 0
 -269.644 697.354 -263.922 701.646 -258.915 707.366 c 0
 -255.338 713.088 -253.193 720.957 -251.763 729.539 c 0
 -251.048 738.121 -250.331 745.274 -250.331 751.712 c 1
-269.644 843.977 m 1
 -231.735 834.678 -212.426 803.923 -212.426 750.281 c 0
 -212.426 724.532 -220.293 701.646 -235.312 681.618 c 0
 -250.331 661.592 -270.358 651.578 -294.677 651.578 c 0
 -322.571 651.578 -346.173 661.592 -365.485 680.188 c 0
 -384.796 699.499 -394.094 723.102 -394.094 751.712 c 0
 -394.094 826.811 -341.167 877.593 -236.027 905.486 c 0
 -207.419 913.354 -187.392 922.652 -175.947 933.381 c 0
 -163.788 944.109 -160.928 960.561 -166.65 982.731 c 1
 -96.5566 999.183 l 1
 -95.8418 994.891 -95.126 991.315 -95.126 987.023 c 0
 -95.126 983.447 -95.126 979.156 -95.126 975.58 c 0
 -95.126 959.129 -100.848 944.109 -111.576 929.806 c 0
 -122.305 916.215 -143.047 904.057 -174.518 893.327 c 0
 -191.683 887.605 -210.279 880.453 -228.16 871.156 c 0
 -246.756 861.857 -261.062 852.559 -269.644 843.977 c 1
EndSplineSet
Fore
SplineSet
-67 810 m 0
 -103 810 -127 759 -127 721 c 0
 -127 700 -118 690 -100 690 c 0
 -66 690 -39 732 -39 778 c 0
 -39 804 -56 810 -67 810 c 0
2 791 m 0
 2 718 -58 652 -114 652 c 0
 -161 652 -190 680 -190 722 c 0
 -190 759 -168 860 15 905 c 0
 76 921 104 937 105 983 c 1
 180 999 l 1
 180 995 180 992 179 987 c 2
 176 976 l 2
 151 891 39 901 -35 844 c 1
 -10 838 2 820 2 791 c 0
EndSplineSet
EndChar

StartChar: uni0E0D.descless
Encoding: 144 63247 111
Width: 795
Flags: MW
HStem: -9 28<149.527 240.392> 0 28<485 625.182> 132 29<211.212 261.282> 429 25<221 265.409> 516 48<308.887 472.001>
VStem: 263 26<61.6548 131.431> 511 81<396.837 480.294>
LayerCount: 2
Back
SplineSet
695.924 80.8213 m 2
 695.924 27.1787 674.466 0 631.552 0 c 2
 401.247 0 l 1
 401.247 376.213 l 2
 401.247 417.696 387.656 450.598 359.762 477.062 c 0
 331.868 502.811 297.537 515.685 256.055 515.685 c 0
 186.676 515.685 133.033 494.942 95.126 454.175 c 1
 145.192 454.175 185.961 432.717 218.146 389.803 c 1
 198.835 384.081 183.1 374.067 171.657 359.762 c 0
 159.498 345.458 153.774 326.863 153.774 303.259 c 2
 153.774 138.04 l 1
 159.498 145.192 165.934 151.63 173.802 155.206 c 0
 180.954 159.498 190.253 160.928 200.98 160.928 c 0
 217.432 160.928 231.735 153.774 243.896 139.471 c 0
 256.055 124.451 262.49 102.994 262.49 74.3848 c 0
 262.49 19.3115 231.735 -8.58301 171.657 -8.58301 c 0
 140.901 -8.58301 118.014 0 101.563 17.8809 c 0
 85.8281 35.0469 77.9609 59.3643 77.9609 90.835 c 2
 77.9609 283.948 l 2
 77.9609 344.027 106.57 382.649 163.788 399.815 c 1
 138.756 419.128 98.7021 429.141 43.6289 429.141 c 1
 54.3574 468.479 83.6826 500.664 130.173 527.127 c 0
 170.226 551.446 213.14 563.605 257.484 563.605 c 0
 404.107 563.605 477.776 501.379 477.776 376.213 c 2
 477.776 27.8945 l 1
 567.181 27.8945 l 2
 581.486 27.8945 593.644 32.1855 604.374 40.7686 c 0
 614.387 50.0664 619.394 62.9404 619.394 80.8213 c 2
 619.394 553.592 l 1
 695.924 553.592 l 1
 695.924 80.8213 l 2
238.889 74.3848 m 0
 238.889 91.5498 234.597 105.14 226.729 115.868 c 0
 219.576 126.597 210.279 131.604 200.98 131.604 c 0
 190.968 131.604 181.669 126.597 172.372 115.868 c 0
 163.073 105.14 158.066 90.835 158.066 72.9541 c 0
 158.066 62.2256 161.644 50.7812 168.795 37.9072 c 0
 175.232 25.0332 185.961 19.3115 200.98 19.3115 c 0
 210.279 19.3115 219.576 23.6025 226.729 33.6162 c 0
 234.597 43.6289 238.889 57.2188 238.889 74.3848 c 0
EndSplineSet
Fore
SplineSet
289 112 m 0
 289 88 278 -9 168 -9 c 0
 121 -9 97 14 97 54 c 0
 97 65 99 77 103 91 c 2
 157 284 l 2
 173 344 212 382 275 400 c 1
 255 419 217 429 163 429 c 1
 199 496 312 564 415 564 c 0
 533 564 592 523 592 442 c 0
 592 422 588 401 582 376 c 2
 485 28 l 1
 574 28 l 2
 603 28 633 45 642 81 c 2
 773 554 l 1
 850 554 l 1
 718 81 l 2
 703 26 674 0 631 0 c 2
 401 0 l 1
 505 376 l 2
 509 391 511 404 511 417 c 0
 511 477 468 516 400 516 c 0
 331 516 271 495 221 454 c 1
 271 454 306 432 327 390 c 1
 284 378 250 350 237 303 c 2
 192 138 l 1
 208 154 224 161 246 161 c 0
 271 161 289 145 289 112 c 0
207 19 m 0
 230 19 263 57 263 97 c 0
 263 118 252 132 237 132 c 0
 216 132 176 98 176 56 c 0
 176 37 184 19 207 19 c 0
EndSplineSet
EndChar

StartChar: quoteleft
Encoding: 145 8216 112
Width: 332
Flags: MW
VStem: 171 63<496.809 572.947>
LayerCount: 2
Back
SplineSet
191.683 504.24 m 0
 191.683 485.645 185.246 469.909 173.087 458.465 c 0
 162.358 450.598 148.768 445.591 133.033 444.161 c 0
 115.868 444.161 98.7021 449.883 82.252 461.325 c 1
 60.7949 479.923 50.0664 507.101 50.0664 542.147 c 0
 50.0664 572.902 65.0859 605.803 96.5566 640.135 c 0
 122.305 668.744 144.478 685.91 163.788 693.062 c 1
 174.518 673.751 l 1
 118.014 637.989 89.4043 601.513 89.4043 565.75 c 0
 89.4043 556.453 94.4111 551.446 103.709 550.731 c 2
 117.299 552.161 l 1
 128.742 555.021 l 1
 170.94 555.021 191.683 537.857 191.683 504.24 c 0
EndSplineSet
Fore
SplineSet
234 560 m 0
 234 531 280 523 280 483 c 0
 280 456 258 437 229 437 c 0
 196 437 171 467 171 507 c 0
 171 562 217 620 300 666 c 1
 311 649 l 1
 258 614 234 587 234 560 c 0
EndSplineSet
EndChar

StartChar: quoteright
Encoding: 146 8217 113
Width: 332
Flags: MW
VStem: 226 64<527.475 605.812>
LayerCount: 2
Back
SplineSet
191.683 594.36 m 0
 191.683 569.327 179.524 539.287 153.774 505.671 c 0
 130.173 477.062 105.14 456.319 77.9609 444.161 c 1
 68.6621 462.757 l 1
 124.451 499.949 152.345 536.426 152.345 572.902 c 0
 152.345 581.486 147.338 585.776 138.04 585.776 c 2
 125.881 584.347 l 1
 113.007 582.916 l 2
 70.8086 582.916 50.0664 600.082 50.0664 634.412 c 0
 50.0664 668.744 70.0928 688.056 110.146 693.062 c 1
 127.312 693.062 143.762 687.34 159.498 675.182 c 0
 180.954 656.585 191.683 630.122 191.683 594.36 c 0
EndSplineSet
Fore
SplineSet
160 437 m 1
 151 453 l 1
 204 488 226 516 226 541 c 0
 226 572 182 576 182 620 c 0
 182 646 204 666 231 666 c 0
 265 666 290 636 290 595 c 0
 290 539 245 482 160 437 c 1
EndSplineSet
EndChar

StartChar: quotedblleft
Encoding: 147 8220 114
Width: 555
Flags: MW
VStem: 166 64<496.399 572.947> 375 64<496.604 574.237>
LayerCount: 2
Back
SplineSet
405.537 505.671 m 0
 405.537 460.61 386.941 437.724 349.75 437.724 c 0
 295.392 437.724 268.212 469.193 268.212 531.419 c 0
 268.212 597.221 306.12 650.863 382.649 693.062 c 1
 392.663 673.751 l 1
 336.875 638.704 308.982 602.228 308.982 565.75 c 0
 308.982 559.313 311.843 555.738 317.564 553.592 c 1
 325.432 564.32 336.875 570.042 351.895 570.042 c 0
 387.656 570.757 405.537 549.3 405.537 505.671 c 0
193.113 505.671 m 0
 193.113 460.61 174.518 437.724 138.04 437.724 c 0
 82.9668 437.724 55.7881 469.193 55.7881 531.419 c 0
 55.7881 597.221 93.6953 650.863 170.226 693.062 c 1
 180.239 673.751 l 1
 124.451 638.704 96.5566 602.228 96.5566 565.75 c 0
 96.5566 559.313 99.418 555.738 105.14 553.592 c 1
 113.007 564.32 124.451 570.042 139.471 570.042 c 0
 175.232 570.757 193.113 549.3 193.113 505.671 c 0
EndSplineSet
Fore
SplineSet
230 560 m 0
 230 527 275 525 275 483 c 0
 275 456 253 437 224 437 c 0
 190 437 166 467 166 507 c 0
 166 562 212 620 296 666 c 1
 305 649 l 1
 253 614 230 587 230 560 c 0
439 560 m 0
 439 529 483 524 483 483 c 0
 483 456 461 437 434 437 c 0
 400 437 375 467 375 507 c 0
 375 562 420 620 505 666 c 1
 514 649 l 1
 461 614 439 587 439 560 c 0
EndSplineSet
EndChar

StartChar: quotedblright
Encoding: 148 8221 115
Width: 555
Flags: MW
VStem: 226 64<527.475 605.812> 435 64<528.758 605.147>
LayerCount: 2
Back
SplineSet
405.537 605.088 m 0
 405.537 540.718 367.631 487.075 291.816 444.161 c 1
 281.088 462.757 l 1
 336.875 497.804 364.769 534.28 364.769 571.473 c 0
 364.769 577.909 361.908 582.201 356.187 582.916 c 1
 348.319 572.188 336.875 567.181 322.571 567.181 c 0
 286.093 565.75 268.212 587.208 268.212 631.552 c 0
 268.212 675.896 286.81 698.784 324.001 698.784 c 0
 378.359 698.784 405.537 667.313 405.537 605.088 c 0
193.113 605.088 m 0
 193.113 540.718 155.206 487.075 79.3906 444.161 c 1
 68.6621 462.757 l 1
 124.451 497.804 152.345 534.28 152.345 571.473 c 0
 152.345 577.909 149.484 582.201 143.762 582.916 c 1
 135.895 572.188 124.451 567.181 110.146 567.181 c 0
 73.6689 565.75 55.7881 587.208 55.7881 631.552 c 0
 55.7881 675.896 74.3848 698.784 111.576 698.784 c 0
 165.934 698.784 193.113 667.313 193.113 605.088 c 0
EndSplineSet
Fore
SplineSet
160 437 m 1
 151 453 l 1
 204 488 226 516 226 541 c 0
 226 572 182 576 182 620 c 0
 182 646 204 666 231 666 c 0
 265 666 290 636 290 595 c 0
 290 539 245 482 160 437 c 1
369 437 m 1
 360 453 l 1
 412 488 435 516 435 541 c 0
 435 572 390 575 390 620 c 0
 390 646 412 666 441 666 c 0
 475 666 499 636 499 595 c 0
 499 539 453 482 369 437 c 1
EndSplineSet
EndChar

StartChar: bullet
Encoding: 149 8226 116
Width: 348
Flags: W
HStem: 190 271<101.778 247.548>
VStem: 40 271<252.663 396.481>
LayerCount: 2
Back
SplineSet
335.445 339.737 m 0
 335.445 321.14 331.868 303.259 324.717 286.093 c 0
 316.85 268.929 306.836 254.623 294.677 241.749 c 0
 281.803 228.875 266.782 218.861 250.331 211.709 c 0
 233.882 204.557 216.001 200.98 195.975 200.98 c 0
 177.379 200.98 160.213 204.557 143.047 211.709 c 0
 125.881 218.861 110.861 228.875 98.7021 241.749 c 0
 86.543 254.623 77.2451 268.929 69.3779 286.093 c 0
 62.2256 303.259 58.6494 321.14 58.6494 339.737 c 0
 58.6494 359.048 62.2256 377.643 69.3779 394.094 c 0
 77.2451 410.544 86.543 424.85 98.7021 437.009 c 0
 110.861 449.168 125.881 459.181 143.047 466.332 c 0
 160.213 474.199 177.379 477.776 195.975 477.776 c 0
 216.001 477.776 233.882 474.199 250.331 466.332 c 0
 266.782 459.181 281.803 449.168 294.677 437.009 c 0
 306.836 424.85 316.85 410.544 324.717 394.094 c 0
 331.868 377.643 335.445 359.048 335.445 339.737 c 0
EndSplineSet
Fore
SplineSet
174 461 m 0
 250 461 311 401 311 324 c 0
 311 252 249 190 174 190 c 0
 100 190 40 250 40 327 c 0
 40 401 100 461 174 461 c 0
EndSplineSet
EndChar

StartChar: endash
Encoding: 150 8211 117
Width: 499
Flags: W
HStem: 196 47<1 497>
LayerCount: 2
Back
SplineSet
733.831 250.331 m 1
 61.5098 250.331 l 1
 61.5098 300.398 l 1
 733.831 300.398 l 1
 733.831 250.331 l 1
EndSplineSet
Fore
SplineSet
505 243 m 1
 497 196 l 1
 -6 196 l 1
 1 243 l 1
 505 243 l 1
EndSplineSet
EndChar

StartChar: emdash
Encoding: 151 8212 118
Width: 887
Flags: W
HStem: 196 47<1 886>
LayerCount: 2
Back
SplineSet
1467.66 250.331 m 1
 61.5098 250.331 l 1
 61.5098 300.398 l 1
 1467.66 300.398 l 1
 1467.66 250.331 l 1
EndSplineSet
Fore
SplineSet
894 243 m 1
 886 196 l 1
 -6 196 l 1
 1 243 l 1
 894 243 l 1
EndSplineSet
EndChar

StartChar: uni0E31.left
Encoding: 152 63248 119
Width: 0
Flags: W
HStem: 620 33<-165.534 -19.9677> 681 32<-197 -144.824> 816 34<-183.941 -123.914>
VStem: -263 61<691.051 776.632> -123 33<732.815 815.296> 110 74<755.975 850>
LayerCount: 2
Back
SplineSet
-16 789 m 4
 -16 733 -61 666 -111 666 c 5
 -123 669 l 5
 -110 647 -62 639 -22 639 c 4
 23 639 94 662 132 707 c 4
 164 744 186 787 199 835 c 5
 272 835 l 5
 255 769 220 713 170 671 c 4
 119 628 29 605 -35 605 c 4
 -78 605 -135 617 -160 639 c 4
 -178 656 -188 678 -188 705 c 4
 -188 716 -187 727 -183 740 c 4
 -166 803 -126 835 -66 835 c 4
 -32 835 -16 820 -16 789 c 4
-103 699 m 4
 -75 699 -49 744 -49 775 c 4
 -49 791 -57 801 -73 801 c 4
 -104 801 -127 763 -127 725 c 4
 -127 708 -119 699 -103 699 c 4
40.7686 834.678 m 1
 40.7686 768.876 22.1719 713.805 -16.4502 670.891 c 0
 -25.748 660.162 -37.9072 650.863 -52.9277 642.281 c 0
 -67.2324 633.697 -82.9668 627.261 -100.133 621.538 c 0
 -117.299 616.531 -135.18 612.241 -153.06 609.38 c 0
 -170.94 606.518 -188.106 605.088 -203.842 605.088 c 0
 -225.3 605.088 -248.901 607.949 -274.65 613.671 c 0
 -300.398 619.394 -321.14 627.976 -336.875 638.704 c 0
 -371.207 663.737 -388.373 698.068 -388.373 739.553 c 0
 -388.373 803.209 -357.618 834.678 -297.537 834.678 c 0
 -252.478 834.678 -230.306 806.784 -230.306 751.712 c 0
 -230.306 730.254 -236.027 710.228 -247.471 693.062 c 0
 -258.915 675.182 -275.365 666.599 -296.106 666.599 c 1
 -308.982 669.459 l 1
 -298.969 658.73 -283.232 650.863 -261.775 645.856 c 0
 -239.604 640.85 -218.861 638.704 -199.55 638.704 c 0
 -176.662 638.704 -151.63 644.426 -124.451 656.585 c 0
 -97.2715 668.029 -77.2451 685.194 -64.3711 707.366 c 0
 -42.9141 743.843 -32.1855 786.042 -32.1855 834.678 c 1
 40.7686 834.678 l 1
-261.062 751.712 m 0
 -261.062 766.016 -263.922 778.175 -269.644 787.474 c 0
 -275.365 796.771 -283.948 801.062 -296.106 801.062 c 0
 -318.994 801.062 -331.153 784.613 -331.153 751.712 c 0
 -331.153 715.95 -318.994 698.784 -296.106 698.784 c 0
 -286.81 698.784 -278.941 703.791 -271.074 714.52 c 0
 -268.212 719.525 -266.067 725.247 -264.637 731.686 c 0
 -263.207 738.121 -261.775 744.56 -261.062 751.712 c 0
EndSplineSet
Fore
Refer: 176 3633 N 1 0 0 1 -83 0 2
EndChar

